<svg width="37" height="41" viewBox="0 0 37 41" fill="none" xmlns="http://www.w3.org/2000/svg">
<path d="M18.826 40.9991C18.6112 40.9991 18.3941 40.9991 18.1792 40.9991C17.5958 40.7998 17.0078 40.614 16.4334 40.3968C12.512 38.9212 9.10618 36.6754 6.23637 33.6437C4.30055 31.5972 2.71978 29.3312 1.81293 26.6398C0.835968 23.7469 0.345228 20.7644 0.134911 17.7349C-0.138728 13.8076 0.0150527 9.88692 0.462825 5.97747C0.560068 5.12661 0.887982 4.76164 1.73377 4.52878C7.10704 3.05098 12.478 1.57542 17.849 0.0908977C18.2946 -0.0322523 18.7107 -0.0322523 19.1562 0.0908977C24.5272 1.57542 29.9004 3.05098 35.2715 4.52878C36.1286 4.76388 36.4474 5.13781 36.5469 6.01777C36.8975 9.11444 37.058 12.2178 36.9789 15.3346C36.9042 18.3171 36.608 21.2727 35.9047 24.1813C35.3936 26.295 34.7129 28.3482 33.503 30.1776C30.5291 34.6737 26.4924 37.9226 21.5081 40.0206C20.6329 40.3878 19.7215 40.6744 18.826 40.9991ZM16.9399 20.9816C16.7635 20.7443 16.6912 20.6099 16.5871 20.5069C15.1782 19.1053 13.7693 17.7058 12.3514 16.3131C11.6752 15.6503 10.9244 15.6503 10.2482 16.2997C9.82307 16.7094 9.40018 17.1237 8.99085 17.5491C8.38477 18.1783 8.38025 18.9261 8.99763 19.5396C11.2998 21.8302 13.6088 24.1163 15.9245 26.3957C16.5397 27.0025 17.3176 26.9981 17.935 26.3868C21.689 22.6789 25.4363 18.9664 29.1813 15.2495C29.8077 14.6271 29.7942 13.8658 29.1723 13.2276C28.8149 12.8627 28.4486 12.5089 28.0867 12.1506C27.2387 11.311 26.5489 11.3132 25.6964 12.1574C22.8808 14.9428 20.0653 17.7282 17.2543 20.5159C17.1503 20.6166 17.0869 20.7577 16.9399 20.9816Z" fill="#FF0000"/>
</svg>
