<svg width="45" height="45" viewBox="0 0 45 45" fill="none" xmlns="http://www.w3.org/2000/svg">
<path fill-rule="evenodd" clip-rule="evenodd" d="M38.7478 15.5913H6.25239C5.65502 15.5913 5.08211 15.8297 4.65971 16.2541C4.2373 16.6785 4 17.2541 4 17.8543V21.4893C4.00075 23.829 4.9263 26.0726 6.57315 27.7268C8.22 29.381 10.4533 30.3105 12.7821 30.3107H17.1269C17.6427 30.3106 18.1519 30.1945 18.6172 29.9708C19.0824 29.7472 19.4919 29.4217 19.8156 29.0182C20.1384 28.6142 20.5474 28.2881 21.0124 28.0641C21.4774 27.8401 21.9865 27.7238 22.5022 27.7238C23.0179 27.7238 23.527 27.8401 23.992 28.0641C24.457 28.2881 24.866 28.6142 25.1889 29.0182C25.5124 29.4218 25.9218 29.7475 26.3871 29.9711C26.8524 30.1948 27.3617 30.3109 27.8775 30.3107H32.2179C33.3714 30.3121 34.5138 30.0848 35.5798 29.642C36.6458 29.1991 37.6143 28.5494 38.4301 27.73C39.2458 26.9106 39.8927 25.9377 40.3336 24.8668C40.7746 23.7959 41.0011 22.6482 41 21.4893V17.8543C41 17.2541 40.7627 16.6786 40.3404 16.2542C39.918 15.8298 39.3451 15.5914 38.7478 15.5913ZM10.2249 20.4991C10.1188 21.0393 10.121 21.5953 10.2314 22.1346C10.3419 22.6738 10.5583 23.1856 10.868 23.6398C11.1778 24.094 11.5746 24.4815 12.0353 24.7797C12.496 25.0779 13.0112 25.2807 13.5509 25.3763C14.0906 25.4719 14.6439 25.4584 15.1783 25.3365C15.7127 25.2145 16.2175 24.9867 16.6632 24.6663C17.1089 24.3459 17.4864 23.9394 17.7738 23.4706C18.0611 23.0018 18.2524 22.48 18.3366 21.936L10.2249 20.4991ZM34.7688 22.1346C34.8792 21.5953 34.8814 21.0393 34.7753 20.4991L26.6637 21.936C26.7478 22.48 26.9391 23.0018 27.2265 23.4706C27.5138 23.9394 27.8914 24.3459 28.3371 24.6663C28.7827 24.9867 29.2875 25.2145 29.822 25.3365C30.3564 25.4584 30.9096 25.4719 31.4493 25.3763C31.989 25.2807 32.5043 25.0779 32.965 24.7797C33.4256 24.4815 33.8225 24.094 34.1322 23.6398C34.442 23.1856 34.6584 22.6738 34.7688 22.1346Z" fill="#F7A125"/>
<path d="M22.5 0C10.0931 0 0 10.0939 0 22.5009C0.0010443 34.9067 10.0946 45 22.5 45C34.9065 45 45 34.9069 45 22.5007C44.9998 10.0939 34.9065 0 22.5 0ZM22.5 3.13293C27.0993 3.13293 31.3283 4.74556 34.6539 7.43383L7.43393 34.654C4.74612 31.3285 3.13331 27.0997 3.13289 22.5007C3.13289 11.8214 11.821 3.13293 22.5 3.13293ZM22.5 41.8671C17.5463 41.8671 13.0218 39.9965 9.59312 36.9258L36.9255 9.59304C39.9964 13.0217 41.8669 17.5467 41.8669 22.5009C41.8669 33.1794 33.1788 41.8671 22.5 41.8671Z" fill="#C24848"/>
</svg>
