<svg width="45" height="45" viewBox="0 0 45 45" fill="none" xmlns="http://www.w3.org/2000/svg">
<path d="M35 18.2583V16.9337C35 15.4165 33.7758 14.1865 32.2656 14.1865H12.7344C11.2242 14.1865 10 15.4165 10 16.9337V18.2583C10 18.3937 10.1093 18.5036 10.2441 18.5036H34.7559C34.8907 18.5036 35 18.3937 35 18.2583Z" fill="#F7A125"/>
<path d="M10 20.3188V28.7076C10 30.2248 11.2242 31.4548 12.7344 31.4548H32.2656C33.7758 31.4548 35 30.2248 35 28.7076V20.3188C35 20.1833 34.8907 20.0735 34.7559 20.0735H10.2441C10.1093 20.0735 10 20.1833 10 20.3188ZM16.25 26.7453C16.25 27.1788 15.9002 27.5302 15.4688 27.5302H14.6875C14.2561 27.5302 13.9062 27.1788 13.9062 26.7453V25.9604C13.9062 25.5269 14.2561 25.1755 14.6875 25.1755H15.4688C15.9002 25.1755 16.25 25.5269 16.25 25.9604V26.7453Z" fill="#F7A125"/>
<path d="M22.5 0C10.0931 0 0 10.0939 0 22.5009C0.0010443 34.9067 10.0946 45 22.5 45C34.9065 45 45 34.9069 45 22.5007C44.9998 10.0939 34.9065 0 22.5 0ZM22.5 3.13293C27.0993 3.13293 31.3283 4.74556 34.6539 7.43383L7.43393 34.654C4.74612 31.3285 3.13331 27.0997 3.13289 22.5007C3.13289 11.8214 11.821 3.13293 22.5 3.13293ZM22.5 41.8671C17.5463 41.8671 13.0218 39.9965 9.59312 36.9258L36.9255 9.59304C39.9964 13.0217 41.8669 17.5467 41.8669 22.5009C41.8669 33.1794 33.1788 41.8671 22.5 41.8671Z" fill="#C24848"/>
</svg>
