<svg width="53" height="54" viewBox="0 0 53 54" fill="none" xmlns="http://www.w3.org/2000/svg">
<path d="M2.55051 48.5435C1.23383 48.5435 0.167099 49.6174 0.167099 50.9441C0.167099 52.2685 1.23383 53.3425 2.55051 53.3425H50.2054C51.5221 53.3425 52.5888 52.2685 52.5888 50.9441C52.5877 49.6174 51.521 48.5435 50.2065 48.5435H2.55051Z" fill="white"/>
<path fill-rule="evenodd" clip-rule="evenodd" d="M3.14798 44.7048C3.14798 46.0303 4.21471 47.1054 5.53139 47.1054H47.23C48.5466 47.1054 49.6134 46.0303 49.6134 44.7048C49.6134 43.3792 48.5466 42.3053 47.23 42.3053H46.6352V20.7142H47.23C47.8894 20.7142 48.4206 20.1772 48.4206 19.5155C48.4206 18.8539 47.8872 18.3169 47.23 18.3169H5.53139C4.87305 18.3169 4.3408 18.8539 4.3408 19.5155C4.3408 20.1772 4.87417 20.7142 5.53139 20.7142H6.12725V42.3041H5.53139V42.3053C4.21471 42.3053 3.14798 43.3792 3.14798 44.7048ZM41.8684 42.3041H34.7204V20.7142H41.8684V42.3041ZM29.9536 42.3041H22.8056V20.7142H29.9536V42.3041ZM18.0398 20.7142V42.3041H10.8918V20.7142H18.0398Z" fill="white"/>
<path d="M50.2051 16.1656C50.2129 16.1656 50.2218 16.1656 50.2285 16.1656C51.5463 16.1656 52.6119 15.0917 52.6119 13.7661C52.6119 12.7124 51.938 11.8193 51.0018 11.4958L27.3573 0.784484C26.7358 0.503642 26.025 0.503642 25.4024 0.784484L1.57266 11.5789C0.547215 12.044 -0.0162793 13.1651 0.220277 14.2705C0.455717 15.3759 1.42649 16.1656 2.55013 16.1656H50.2051Z" fill="white"/>
</svg>
