<svg width="53" height="54" viewBox="0 0 53 54" fill="none" xmlns="http://www.w3.org/2000/svg">
<path d="M2.55053 48.5435C1.23385 48.5435 0.167114 49.6174 0.167114 50.9441C0.167114 52.2685 1.23385 53.3425 2.55053 53.3425H50.2054C51.5221 53.3425 52.5888 52.2685 52.5888 50.9441C52.5877 49.6174 51.521 48.5435 50.2066 48.5435H2.55053Z" fill="#C24848"/>
<path fill-rule="evenodd" clip-rule="evenodd" d="M3.14807 44.7048C3.14807 46.0303 4.2148 47.1054 5.53148 47.1054H47.23C48.5467 47.1054 49.6135 46.0303 49.6135 44.7048C49.6135 43.3792 48.5467 42.3053 47.23 42.3053H46.6353V20.7142H47.23C47.8895 20.7142 48.4206 20.1772 48.4206 19.5155C48.4206 18.8539 47.8873 18.3169 47.23 18.3169H5.53148C4.87314 18.3169 4.34089 18.8539 4.34089 19.5155C4.34089 20.1772 4.87426 20.7142 5.53148 20.7142H6.12734V42.3041H5.53148V42.3053C4.2148 42.3053 3.14807 43.3792 3.14807 44.7048ZM41.8685 42.3041H34.7205V20.7142H41.8685V42.3041ZM29.9537 42.3041H22.8056V20.7142H29.9537V42.3041ZM18.0399 20.7142V42.3041H10.8919V20.7142H18.0399Z" fill="#C24848"/>
<path d="M50.2051 16.1655C50.213 16.1655 50.2219 16.1655 50.2286 16.1655C51.5464 16.1655 52.612 15.0916 52.612 13.766C52.612 12.7123 51.938 11.8192 51.0018 11.4957L27.3574 0.784362C26.7359 0.50352 26.0251 0.50352 25.4024 0.784362L1.57274 11.5788C0.547292 12.0439 -0.016203 13.165 0.220353 14.2704C0.455794 15.3758 1.42657 16.1655 2.55021 16.1655H50.2051Z" fill="#C24848"/>
</svg>
