<svg width="57" height="57" viewBox="0 0 57 57" fill="none" xmlns="http://www.w3.org/2000/svg">
    <g id="calculator" clip-path="url(#clip0)">
        <path id="minus" d="M43.084 15.7313H36.4043C35.6477 15.7313 35.0344 15.1179 35.0344 14.3613C35.0344 13.6048 35.6477 12.9914 36.4043 12.9914H43.084C43.8405 12.9914 44.4539 13.6048 44.4539 14.3613C44.4539 15.1179 43.8405 15.7313 43.084 15.7313Z" fill="#801C1C"/>
        <g id="equal-to">
            <path id="Vector" d="M35.8477 41.1574H43.6406C44.3972 41.1574 45.0105 41.7708 45.0105 42.5273C45.0105 43.2839 44.3972 43.8973 43.6406 43.8973H35.8477C35.0911 43.8973 34.4777 43.2839 34.4777 42.5273C34.4777 41.7708 35.0911 41.1574 35.8477 41.1574Z" fill="#801C1C"/>
            <path id="Vector_2" d="M35.8477 35.591H43.6406C44.3972 35.591 45.0105 36.2044 45.0105 36.9609C45.0105 37.7175 44.3972 38.3309 43.6406 38.3309H35.8477C35.0911 38.3309 34.4777 37.7175 34.4777 36.9609C34.4777 36.2044 35.0911 35.591 35.8477 35.591Z" fill="#801C1C"/>
        </g>
        <path id="multiply" d="M18.1129 35.9922L18.113 35.9923C18.6481 36.5272 18.6481 37.3946 18.1131 37.9295L18.1131 37.9295L16.5106 39.5319L16.2985 39.7441L16.5106 39.9562L18.113 41.5586C18.648 42.0936 18.648 42.9609 18.113 43.4959L18.1129 43.496C17.8455 43.7635 17.4955 43.8972 17.1443 43.8972C16.7932 43.8972 16.4432 43.7635 16.1758 43.496L16.1757 43.496L14.5733 41.8936L14.3611 41.6814L14.149 41.8935L12.5466 43.4959L12.5465 43.496C12.2791 43.7635 11.929 43.8972 11.5779 43.8972C11.2268 43.8972 10.8768 43.7635 10.6092 43.496C10.0742 42.961 10.0742 42.0937 10.6092 41.5587L12.2117 39.9562L12.4238 39.7441L12.2117 39.5319L10.6092 37.9295C10.0742 37.3945 10.0742 36.5271 10.6092 35.9921C11.1442 35.4571 12.0117 35.4572 12.5465 35.9921L12.5466 35.9921L14.149 37.5946L14.3611 37.8067L14.5733 37.5946L16.1756 35.9923C16.7106 35.4572 17.5781 35.4573 18.1129 35.9922Z" fill="#801C1C"/>
        <path id="outer-body" d="M53.8055 30.1887V30.2797L53.856 30.3553C55.6517 33.0453 56.7 36.2741 56.7 39.7441C56.7 49.0933 49.0934 56.7 39.7441 56.7C36.274 56.7 33.0452 55.6517 30.3552 53.856L30.2796 53.8055H30.1886H5.00977C2.41307 53.8055 0.3 51.6924 0.3 49.0957V5.00977C0.3 2.41307 2.41307 0.3 5.00977 0.3H49.0957C51.6924 0.3 53.8055 2.41307 53.8055 5.00977V30.1887ZM50.5737 26.7078L51.0656 27.1171V26.4772V5.00977C51.0656 3.92329 50.1822 3.03984 49.0957 3.03984H28.7227H28.4227V3.33984V26.4772V27.1171L28.9146 26.7078C31.8544 24.2614 35.6301 22.7883 39.7441 22.7883C43.8582 22.7883 47.6339 24.2614 50.5737 26.7078ZM25.6828 3.33984V3.03984H25.3828H5.00977C3.92329 3.03984 3.03984 3.92329 3.03984 5.00977V25.3828V25.6828H3.33984H25.3828H25.6828V25.3828V3.33984ZM3.33984 28.4227H3.03984V28.7227V49.0957C3.03984 50.1822 3.92329 51.0656 5.00977 51.0656H26.4772H27.1171L26.7078 50.5737C24.2614 47.6339 22.7883 43.8582 22.7883 39.7441C22.7883 36.2741 23.8365 33.0453 25.6323 30.3553L25.6828 30.2797V30.1887V28.7227V28.4227H25.3828H3.33984ZM25.5281 39.7441C25.5281 47.5831 31.9052 53.9602 39.7441 53.9602C47.5831 53.9602 53.9602 47.5831 53.9602 39.7441C53.9602 31.9052 47.5831 25.5281 39.7441 25.5281C31.9052 25.5281 25.5281 31.9052 25.5281 39.7441Z" fill="#801C1C"/>
        <g id="percentage">
            <path id="Vector_3" d="M13.3627 9.81317C13.3627 7.74113 11.6765 6.05493 9.60443 6.05493C7.53239 6.05493 5.84619 7.74113 5.84619 9.81317C5.84619 11.8852 7.53239 13.5714 9.60443 13.5714C11.6765 13.5714 13.3627 11.8852 13.3627 9.81317ZM8.35169 9.81317C8.35169 9.12166 8.91292 8.56043 9.60443 8.56043C10.296 8.56043 10.8572 9.12166 10.8572 9.81317C10.8572 10.5047 10.296 11.0659 9.60443 11.0659C8.91292 11.0659 8.35169 10.5047 8.35169 9.81317Z" fill="#F7A125"/>
            <path id="Vector_4" d="M19.6262 13.5714C17.5541 13.5714 15.8679 15.2576 15.8679 17.3297C15.8679 19.4017 17.5541 21.0879 19.6262 21.0879C21.6982 21.0879 23.3844 19.4017 23.3844 17.3297C23.3844 15.2576 21.6982 13.5714 19.6262 13.5714ZM19.6262 18.5824C18.9346 18.5824 18.3734 18.0212 18.3734 17.3297C18.3734 16.6381 18.9346 16.0769 19.6262 16.0769C20.3177 16.0769 20.8789 16.6381 20.8789 17.3297C20.8789 18.0212 20.3177 18.5824 19.6262 18.5824Z" fill="#F7A125"/>
            <path id="Vector_5" d="M8.57837 20.3834L18.6056 5.35158L20.6902 6.74213L10.6629 21.774L8.57837 20.3834Z" fill="#F7A125"/>
        </g>
    </g>
    <defs>
        <clipPath id="clip0">
            <rect width="57" height="57" fill="white"/>
        </clipPath>
    </defs>
</svg>
