<svg width="57" height="57" viewBox="0 0 57 57" fill="none" xmlns="http://www.w3.org/2000/svg">
<path d="M43.084 15.7313H36.4043C35.6477 15.7313 35.0344 15.1179 35.0344 14.3613C35.0344 13.6048 35.6477 12.9914 36.4043 12.9914H43.084C43.8405 12.9914 44.4539 13.6048 44.4539 14.3613C44.4539 15.1179 43.8405 15.7313 43.084 15.7313Z" fill="#801C1C" stroke="#FFF9F0" stroke-width="0.6"/>
<path d="M35.8477 41.1574H43.6406C44.3972 41.1574 45.0105 41.7708 45.0105 42.5273C45.0105 43.2839 44.3972 43.8973 43.6406 43.8973H35.8477C35.0911 43.8973 34.4777 43.2839 34.4777 42.5273C34.4777 41.7708 35.0911 41.1574 35.8477 41.1574Z" fill="#801C1C" stroke="#FFF9F0" stroke-width="0.6"/>
<path d="M35.8477 35.591H43.6406C44.3972 35.591 45.0105 36.2044 45.0105 36.9609C45.0105 37.7175 44.3972 38.3309 43.6406 38.3309H35.8477C35.0911 38.3309 34.4777 37.7175 34.4777 36.9609C34.4777 36.2044 35.0911 35.591 35.8477 35.591Z" fill="#801C1C" stroke="#FFF9F0" stroke-width="0.6"/>
<path d="M18.1128 35.9924L18.1129 35.9924C18.648 36.5273 18.648 37.3947 18.113 37.9296L18.113 37.9296L16.5105 39.5321L16.2984 39.7442L16.5105 39.9563L18.1128 41.5587C18.6478 42.0937 18.6478 42.961 18.1128 43.496L18.1128 43.4961C17.8454 43.7637 17.4953 43.8973 17.1442 43.8973C16.7931 43.8973 16.4431 43.7637 16.1757 43.4962L16.1756 43.4961L14.5732 41.8937L14.361 41.6815L14.1489 41.8937L12.5464 43.496L12.5464 43.4961C12.279 43.7637 11.9289 43.8973 11.5778 43.8973C11.2267 43.8973 10.8766 43.7637 10.6091 43.4961C10.0741 42.9611 10.0741 42.0938 10.6091 41.5588L12.2116 39.9563L12.4237 39.7442L12.2116 39.5321L10.6091 37.9296C10.0741 37.3946 10.0741 36.5273 10.6091 35.9923C11.1441 35.4573 12.0115 35.4573 12.5464 35.9922L12.5464 35.9923L14.1489 37.5947L14.361 37.8069L14.5732 37.5947L16.1755 35.9924C16.7105 35.4574 17.578 35.4574 18.1128 35.9924Z" fill="#801C1C" stroke="#FFF9F0" stroke-width="0.6"/>
<path d="M53.8055 30.1887V30.2797L53.856 30.3553C55.6517 33.0453 56.7 36.2741 56.7 39.7441C56.7 49.0933 49.0934 56.7 39.7441 56.7C36.274 56.7 33.0452 55.6517 30.3552 53.856L30.2796 53.8055H30.1886H5.00977C2.41307 53.8055 0.3 51.6924 0.3 49.0957V5.00977C0.3 2.41307 2.41307 0.3 5.00977 0.3H49.0957C51.6924 0.3 53.8055 2.41307 53.8055 5.00977V30.1887ZM50.5737 26.7078L51.0656 27.1171V26.4772V5.00977C51.0656 3.92329 50.1822 3.03984 49.0957 3.03984H28.7227H28.4227V3.33984V26.4772V27.1171L28.9146 26.7078C31.8544 24.2614 35.6301 22.7883 39.7441 22.7883C43.8582 22.7883 47.6339 24.2614 50.5737 26.7078ZM25.6828 3.33984V3.03984H25.3828H5.00977C3.92329 3.03984 3.03984 3.92329 3.03984 5.00977V25.3828V25.6828H3.33984H25.3828H25.6828V25.3828V3.33984ZM3.33984 28.4227H3.03984V28.7227V49.0957C3.03984 50.1822 3.92329 51.0656 5.00977 51.0656H26.4772H27.1171L26.7078 50.5737C24.2614 47.6339 22.7883 43.8582 22.7883 39.7441C22.7883 36.2741 23.8365 33.0453 25.6323 30.3553L25.6828 30.2797V30.1887V28.7227V28.4227H25.3828H3.33984ZM25.5281 39.7441C25.5281 47.5831 31.9052 53.9602 39.7441 53.9602C47.5831 53.9602 53.9602 47.5831 53.9602 39.7441C53.9602 31.9052 47.5831 25.5281 39.7441 25.5281C31.9052 25.5281 25.5281 31.9052 25.5281 39.7441Z" fill="#801C1C" stroke="#FFF9F0" stroke-width="0.6"/>
<path d="M13.3628 9.81293C13.3628 7.74089 11.6766 6.05469 9.60451 6.05469C7.53247 6.05469 5.84627 7.74089 5.84627 9.81293C5.84627 11.885 7.53247 13.5712 9.60451 13.5712C11.6766 13.5712 13.3628 11.885 13.3628 9.81293ZM8.35176 9.81293C8.35176 9.12141 8.91299 8.56018 9.60451 8.56018C10.296 8.56018 10.8573 9.12141 10.8573 9.81293C10.8573 10.5044 10.296 11.0657 9.60451 11.0657C8.91299 11.0657 8.35176 10.5044 8.35176 9.81293Z" fill="#F7A125"/>
<path d="M19.6263 13.5713C17.5542 13.5713 15.868 15.2575 15.868 17.3295C15.868 19.4016 17.5542 21.0878 19.6263 21.0878C21.6983 21.0878 23.3845 19.4016 23.3845 17.3295C23.3845 15.2575 21.6983 13.5713 19.6263 13.5713ZM19.6263 18.5823C18.9348 18.5823 18.3735 18.021 18.3735 17.3295C18.3735 16.638 18.9348 16.0768 19.6263 16.0768C20.3178 16.0768 20.879 16.638 20.879 17.3295C20.879 18.021 20.3178 18.5823 19.6263 18.5823Z" fill="#F7A125"/>
<path d="M8.57839 20.3833L18.6056 5.35146L20.6902 6.74201L10.663 21.7739L8.57839 20.3833Z" fill="#F7A125"/>
</svg>
