<svg width="59" height="67" viewBox="0 0 59 67" fill="none" xmlns="http://www.w3.org/2000/svg">
<path d="M8.8815 7.46082C8.81035 7.46836 8.74 7.4786 8.66992 7.49019H8.8815V7.46082Z" fill="#D4E1F4"/>
<path d="M55.0437 41.3362C55.0437 39.6921 54.5562 38.0849 53.6428 36.7178C52.7293 35.3508 51.431 34.2853 49.9121 33.6561C48.3931 33.0269 46.7216 32.8623 45.1091 33.183C43.4965 33.5038 42.0153 34.2955 40.8528 35.4581C39.6902 36.6207 38.8985 38.1019 38.5777 39.7144C38.2569 41.327 38.4216 42.9984 39.0508 44.5174C39.6799 46.0364 40.7454 47.3347 42.1125 48.2481C43.4795 49.1615 45.0867 49.6491 46.7309 49.6491C48.9348 49.6466 51.0478 48.77 52.6062 47.2115C54.1646 45.6531 55.0412 43.5401 55.0437 41.3362V41.3362ZM40.0352 41.3362C40.0352 40.0119 40.4279 38.7174 41.1636 37.6163C41.8993 36.5152 42.945 35.657 44.1685 35.1502C45.392 34.6434 46.7383 34.5108 48.0371 34.7692C49.336 35.0275 50.529 35.6652 51.4654 36.6016C52.4018 37.538 53.0395 38.7311 53.2979 40.0299C53.5563 41.3288 53.4237 42.6751 52.9169 43.8985C52.4101 45.122 51.5519 46.1677 50.4508 46.9035C49.3497 47.6392 48.0551 48.0319 46.7309 48.0319C44.9557 48.0299 43.2537 47.3238 41.9985 46.0686C40.7432 44.8133 40.0372 43.1114 40.0352 41.3362V41.3362Z" fill="#F7A125"/>
<path d="M45.5371 55.4507C45.7516 55.4507 45.9572 55.3655 46.1089 55.2138C46.2605 55.0622 46.3457 54.8565 46.3457 54.6421V54.1704C46.3457 53.956 46.2605 53.7503 46.1089 53.5986C45.9572 53.447 45.7516 53.3618 45.5371 53.3618C45.3227 53.3618 45.117 53.447 44.9653 53.5986C44.8137 53.7503 44.7285 53.956 44.7285 54.1704V54.6421C44.7285 54.8565 44.8137 55.0622 44.9653 55.2138C45.117 55.3655 45.3227 55.4507 45.5371 55.4507Z" fill="#F7A125"/>
<path d="M43.1113 55.4507C43.3258 55.4507 43.5315 55.3655 43.6831 55.2138C43.8347 55.0622 43.9199 54.8565 43.9199 54.6421V54.1704C43.9199 53.956 43.8347 53.7503 43.6831 53.5986C43.5315 53.447 43.3258 53.3618 43.1113 53.3618C42.8969 53.3618 42.6912 53.447 42.5396 53.5986C42.3879 53.7503 42.3027 53.956 42.3027 54.1704V54.6421C42.3027 54.8565 42.3879 55.0622 42.5396 55.2138C42.6912 55.3655 42.8969 55.4507 43.1113 55.4507Z" fill="#F7A125"/>
<path d="M40.6855 55.4507C40.9 55.4507 41.1057 55.3655 41.2573 55.2138C41.409 55.0622 41.4941 54.8565 41.4941 54.6421V54.1704C41.4941 53.956 41.409 53.7503 41.2573 53.5986C41.1057 53.447 40.9 53.3618 40.6855 53.3618C40.4711 53.3618 40.2654 53.447 40.1138 53.5986C39.9621 53.7503 39.877 53.956 39.877 54.1704V54.6421C39.877 54.8565 39.9621 55.0622 40.1138 55.2138C40.2654 55.3655 40.4711 55.4507 40.6855 55.4507Z" fill="#F7A125"/>
<path d="M38.2598 55.4507C38.4742 55.4507 38.6799 55.3655 38.8315 55.2138C38.9832 55.0622 39.0684 54.8565 39.0684 54.6421V54.1704C39.0684 53.956 38.9832 53.7503 38.8315 53.5986C38.6799 53.447 38.4742 53.3618 38.2598 53.3618C38.0453 53.3618 37.8396 53.447 37.688 53.5986C37.5364 53.7503 37.4512 53.956 37.4512 54.1704V54.6421C37.4512 54.8565 37.5364 55.0622 37.688 55.2138C37.8396 55.3655 38.0453 55.4507 38.2598 55.4507Z" fill="#F7A125"/>
<path d="M50.3887 55.4507C50.6031 55.4507 50.8088 55.3655 50.9604 55.2138C51.1121 55.0622 51.1973 54.8565 51.1973 54.6421V54.1704C51.1973 53.956 51.1121 53.7503 50.9604 53.5986C50.8088 53.447 50.6031 53.3618 50.3887 53.3618C50.1742 53.3618 49.9685 53.447 49.8169 53.5986C49.6653 53.7503 49.5801 53.956 49.5801 54.1704V54.6421C49.5801 54.8565 49.6653 55.0622 49.8169 55.2138C49.9685 55.3655 50.1742 55.4507 50.3887 55.4507Z" fill="#F7A125"/>
<path d="M47.9629 55.4507C48.1773 55.4507 48.383 55.3655 48.5347 55.2138C48.6863 55.0622 48.7715 54.8565 48.7715 54.6421V54.1704C48.7715 53.956 48.6863 53.7503 48.5347 53.5986C48.383 53.447 48.1773 53.3618 47.9629 53.3618C47.7484 53.3618 47.5428 53.447 47.3911 53.5986C47.2395 53.7503 47.1543 53.956 47.1543 54.1704V54.6421C47.1543 54.8565 47.2395 55.0622 47.3911 55.2138C47.5428 55.3655 47.7484 55.4507 47.9629 55.4507Z" fill="#F7A125"/>
<path d="M55.2402 55.4507C55.4547 55.4507 55.6604 55.3655 55.812 55.2138C55.9636 55.0622 56.0488 54.8565 56.0488 54.6421V54.1704C56.0488 53.956 55.9636 53.7503 55.812 53.5986C55.6604 53.447 55.4547 53.3618 55.2402 53.3618C55.0258 53.3618 54.8201 53.447 54.6685 53.5986C54.5168 53.7503 54.4316 53.956 54.4316 54.1704V54.6421C54.4316 54.8565 54.5168 55.0622 54.6685 55.2138C54.8201 55.3655 55.0258 55.4507 55.2402 55.4507Z" fill="#F7A125"/>
<path d="M52.8145 55.4507C53.0289 55.4507 53.2346 55.3655 53.3862 55.2138C53.5379 55.0622 53.623 54.8565 53.623 54.6421V54.1704C53.623 53.956 53.5379 53.7503 53.3862 53.5986C53.2346 53.447 53.0289 53.3618 52.8145 53.3618C52.6 53.3618 52.3943 53.447 52.2427 53.5986C52.091 53.7503 52.0059 53.956 52.0059 54.1704V54.6421C52.0059 54.8565 52.091 55.0622 52.2427 55.2138C52.3943 55.3655 52.6 55.4507 52.8145 55.4507Z" fill="#F7A125"/>
<path d="M45.5371 60.0258C45.7516 60.0258 45.9572 59.9406 46.1089 59.7889C46.2605 59.6373 46.3457 59.4316 46.3457 59.2172V58.7455C46.3457 58.531 46.2605 58.3254 46.1089 58.1737C45.9572 58.0221 45.7516 57.9369 45.5371 57.9369C45.3227 57.9369 45.117 58.0221 44.9653 58.1737C44.8137 58.3254 44.7285 58.531 44.7285 58.7455V59.2172C44.7285 59.4316 44.8137 59.6373 44.9653 59.7889C45.117 59.9406 45.3227 60.0258 45.5371 60.0258V60.0258Z" fill="#F7A125"/>
<path d="M43.1113 60.0258C43.3258 60.0258 43.5315 59.9406 43.6831 59.7889C43.8347 59.6373 43.9199 59.4316 43.9199 59.2172V58.7455C43.9199 58.531 43.8347 58.3254 43.6831 58.1737C43.5315 58.0221 43.3258 57.9369 43.1113 57.9369C42.8969 57.9369 42.6912 58.0221 42.5396 58.1737C42.3879 58.3254 42.3027 58.531 42.3027 58.7455V59.2172C42.3027 59.4316 42.3879 59.6373 42.5396 59.7889C42.6912 59.9406 42.8969 60.0258 43.1113 60.0258V60.0258Z" fill="#F7A125"/>
<path d="M40.6855 60.0258C40.9 60.0258 41.1057 59.9406 41.2573 59.7889C41.409 59.6373 41.4941 59.4316 41.4941 59.2172V58.7455C41.4941 58.531 41.409 58.3254 41.2573 58.1737C41.1057 58.0221 40.9 57.9369 40.6855 57.9369C40.4711 57.9369 40.2654 58.0221 40.1138 58.1737C39.9621 58.3254 39.877 58.531 39.877 58.7455V59.2172C39.877 59.4316 39.9621 59.6373 40.1138 59.7889C40.2654 59.9406 40.4711 60.0258 40.6855 60.0258V60.0258Z" fill="#F7A125"/>
<path d="M38.2598 60.0258C38.4742 60.0258 38.6799 59.9406 38.8315 59.7889C38.9832 59.6373 39.0684 59.4316 39.0684 59.2172V58.7455C39.0684 58.531 38.9832 58.3254 38.8315 58.1737C38.6799 58.0221 38.4742 57.9369 38.2598 57.9369C38.0453 57.9369 37.8396 58.0221 37.688 58.1737C37.5364 58.3254 37.4512 58.531 37.4512 58.7455V59.2172C37.4512 59.4316 37.5364 59.6373 37.688 59.7889C37.8396 59.9406 38.0453 60.0258 38.2598 60.0258V60.0258Z" fill="#F7A125"/>
<path d="M50.3887 60.0258C50.6031 60.0258 50.8088 59.9406 50.9604 59.7889C51.1121 59.6373 51.1973 59.4316 51.1973 59.2172V58.7455C51.1973 58.531 51.1121 58.3254 50.9604 58.1737C50.8088 58.0221 50.6031 57.9369 50.3887 57.9369C50.1742 57.9369 49.9685 58.0221 49.8169 58.1737C49.6653 58.3254 49.5801 58.531 49.5801 58.7455V59.2172C49.5801 59.4316 49.6653 59.6373 49.8169 59.7889C49.9685 59.9406 50.1742 60.0258 50.3887 60.0258V60.0258Z" fill="#F7A125"/>
<path d="M47.9629 60.0258C48.1773 60.0258 48.383 59.9406 48.5347 59.7889C48.6863 59.6373 48.7715 59.4316 48.7715 59.2172V58.7455C48.7715 58.531 48.6863 58.3254 48.5347 58.1737C48.383 58.0221 48.1773 57.9369 47.9629 57.9369C47.7484 57.9369 47.5428 58.0221 47.3911 58.1737C47.2395 58.3254 47.1543 58.531 47.1543 58.7455V59.2172C47.1543 59.4316 47.2395 59.6373 47.3911 59.7889C47.5428 59.9406 47.7484 60.0258 47.9629 60.0258V60.0258Z" fill="#F7A125"/>
<path d="M55.2402 60.0258C55.4547 60.0258 55.6604 59.9406 55.812 59.7889C55.9636 59.6373 56.0488 59.4316 56.0488 59.2172V58.7455C56.0488 58.531 55.9636 58.3254 55.812 58.1737C55.6604 58.0221 55.4547 57.9369 55.2402 57.9369C55.0258 57.9369 54.8201 58.0221 54.6685 58.1737C54.5168 58.3254 54.4316 58.531 54.4316 58.7455V59.2172C54.4316 59.4316 54.5168 59.6373 54.6685 59.7889C54.8201 59.9406 55.0258 60.0258 55.2402 60.0258V60.0258Z" fill="#F7A125"/>
<path d="M52.8145 60.0258C53.0289 60.0258 53.2346 59.9406 53.3862 59.7889C53.5379 59.6373 53.623 59.4316 53.623 59.2172V58.7455C53.623 58.531 53.5379 58.3254 53.3862 58.1737C53.2346 58.0221 53.0289 57.9369 52.8145 57.9369C52.6 57.9369 52.3943 58.0221 52.2427 58.1737C52.091 58.3254 52.0059 58.531 52.0059 58.7455V59.2172C52.0059 59.4316 52.091 59.6373 52.2427 59.7889C52.3943 59.9406 52.6 60.0258 52.8145 60.0258V60.0258Z" fill="#F7A125"/>
<path d="M45.5371 62.512C45.3227 62.512 45.117 62.5972 44.9653 62.7488C44.8137 62.9004 44.7285 63.1061 44.7285 63.3206V63.7922C44.7285 64.0067 44.8137 64.2124 44.9653 64.364C45.117 64.5156 45.3227 64.6008 45.5371 64.6008C45.7516 64.6008 45.9572 64.5156 46.1089 64.364C46.2605 64.2124 46.3457 64.0067 46.3457 63.7922V63.3206C46.3457 63.1061 46.2605 62.9004 46.1089 62.7488C45.9572 62.5972 45.7516 62.512 45.5371 62.512Z" fill="#F7A125"/>
<path d="M43.1113 62.512C42.8969 62.512 42.6912 62.5972 42.5396 62.7488C42.3879 62.9004 42.3027 63.1061 42.3027 63.3206V63.7922C42.3027 64.0067 42.3879 64.2124 42.5396 64.364C42.6912 64.5156 42.8969 64.6008 43.1113 64.6008C43.3258 64.6008 43.5315 64.5156 43.6831 64.364C43.8347 64.2124 43.9199 64.0067 43.9199 63.7922V63.3206C43.9199 63.1061 43.8347 62.9004 43.6831 62.7488C43.5315 62.5972 43.3258 62.512 43.1113 62.512Z" fill="#F7A125"/>
<path d="M40.6855 62.512C40.4711 62.512 40.2654 62.5972 40.1138 62.7488C39.9621 62.9004 39.877 63.1061 39.877 63.3206V63.7922C39.877 64.0067 39.9621 64.2124 40.1138 64.364C40.2654 64.5156 40.4711 64.6008 40.6855 64.6008C40.9 64.6008 41.1057 64.5156 41.2573 64.364C41.409 64.2124 41.4941 64.0067 41.4941 63.7922V63.3206C41.4941 63.1061 41.409 62.9004 41.2573 62.7488C41.1057 62.5972 40.9 62.512 40.6855 62.512Z" fill="#F7A125"/>
<path d="M38.2598 62.512C38.0453 62.512 37.8396 62.5972 37.688 62.7488C37.5364 62.9004 37.4512 63.1061 37.4512 63.3206V63.7922C37.4512 64.0067 37.5364 64.2124 37.688 64.364C37.8396 64.5156 38.0453 64.6008 38.2598 64.6008C38.4742 64.6008 38.6799 64.5156 38.8315 64.364C38.9832 64.2124 39.0684 64.0067 39.0684 63.7922V63.3206C39.0684 63.1061 38.9832 62.9004 38.8315 62.7488C38.6799 62.5972 38.4742 62.512 38.2598 62.512Z" fill="#F7A125"/>
<path d="M50.3887 62.512C50.1742 62.512 49.9685 62.5972 49.8169 62.7488C49.6653 62.9004 49.5801 63.1061 49.5801 63.3206V63.7922C49.5801 64.0067 49.6653 64.2124 49.8169 64.364C49.9685 64.5156 50.1742 64.6008 50.3887 64.6008C50.6031 64.6008 50.8088 64.5156 50.9604 64.364C51.1121 64.2124 51.1973 64.0067 51.1973 63.7922V63.3206C51.1973 63.1061 51.1121 62.9004 50.9604 62.7488C50.8088 62.5972 50.6031 62.512 50.3887 62.512Z" fill="#F7A125"/>
<path d="M47.9629 62.512C47.7484 62.512 47.5428 62.5972 47.3911 62.7488C47.2395 62.9004 47.1543 63.1061 47.1543 63.3206V63.7922C47.1543 64.0067 47.2395 64.2124 47.3911 64.364C47.5428 64.5156 47.7484 64.6008 47.9629 64.6008C48.1773 64.6008 48.383 64.5156 48.5347 64.364C48.6863 64.2124 48.7715 64.0067 48.7715 63.7922V63.3206C48.7715 63.1061 48.6863 62.9004 48.5347 62.7488C48.383 62.5972 48.1773 62.512 47.9629 62.512Z" fill="#F7A125"/>
<path d="M55.2402 62.512C55.0258 62.512 54.8201 62.5972 54.6685 62.7488C54.5168 62.9004 54.4316 63.1061 54.4316 63.3206V63.7922C54.4316 64.0067 54.5168 64.2124 54.6685 64.364C54.8201 64.5156 55.0258 64.6008 55.2402 64.6008C55.4547 64.6008 55.6604 64.5156 55.812 64.364C55.9636 64.2124 56.0488 64.0067 56.0488 63.7922V63.3206C56.0488 63.1061 55.9636 62.9004 55.812 62.7488C55.6604 62.5972 55.4547 62.512 55.2402 62.512Z" fill="#F7A125"/>
<path d="M52.8145 62.512C52.6 62.512 52.3943 62.5972 52.2427 62.7488C52.091 62.9004 52.0059 63.1061 52.0059 63.3206V63.7922C52.0059 64.0067 52.091 64.2124 52.2427 64.364C52.3943 64.5156 52.6 64.6008 52.8145 64.6008C53.0289 64.6008 53.2346 64.5156 53.3862 64.364C53.5379 64.2124 53.623 64.0067 53.623 63.7922V63.3206C53.623 63.1061 53.5379 62.9004 53.3862 62.7488C53.2346 62.5972 53.0289 62.512 52.8145 62.512Z" fill="#F7A125"/>
<path d="M48.978 6.68176H46.0764V4.29224C46.0764 3.25572 45.6646 2.26165 44.9317 1.52872C44.1987 0.795789 43.2047 0.384033 42.1682 0.384033C41.1316 0.384033 40.1376 0.795789 39.4046 1.52872C38.6717 2.26165 38.26 3.25572 38.26 4.29224V6.68176H16.0236V4.29224C16.0236 3.23785 15.6048 2.22664 14.8592 1.48107C14.1136 0.735505 13.1024 0.31665 12.048 0.31665C10.9936 0.31665 9.98244 0.735505 9.23688 1.48107C8.49131 2.22664 8.07245 3.23785 8.07245 4.29224V6.68176H5.24494C4.64062 6.67827 4.04164 6.79498 3.48284 7.0251C2.92404 7.25521 2.41657 7.59414 1.98995 8.02218C1.56334 8.45021 1.22609 8.9588 0.997831 9.51836C0.769569 10.0779 0.65485 10.6773 0.660345 11.2816V50.9171C0.660345 53.4801 2.68183 55.6017 5.24534 55.6017H35.8342V53.9845H5.24561C3.57438 53.9845 2.27753 52.589 2.27753 50.9174V17.463H52.0061V32.8263H53.6232V11.2817C53.622 10.6742 53.5006 10.0729 53.2661 9.51243C53.0317 8.95196 52.6888 8.44336 52.2571 8.01588C51.8254 7.5884 51.3134 7.25046 50.7507 7.02151C50.188 6.79255 49.5855 6.67709 48.978 6.68176ZM39.8771 4.29224C39.8771 3.68462 40.1185 3.10189 40.5482 2.67224C40.9778 2.24259 41.5605 2.00122 42.1682 2.00122C42.7758 2.00122 43.3585 2.24259 43.7882 2.67224C44.2178 3.10189 44.4592 3.68462 44.4592 4.29224V10.3204H39.8771V4.29224ZM9.68964 4.29224C9.68964 3.66675 9.93812 3.06688 10.3804 2.6246C10.8227 2.18231 11.4226 1.93384 12.048 1.93384C12.6735 1.93384 13.2734 2.18231 13.7157 2.6246C14.158 3.06688 14.4064 3.66675 14.4064 4.29224V10.3204H9.68964V4.29224ZM2.27753 15.8458V11.2813C2.27185 10.8893 2.34463 10.5002 2.49158 10.1367C2.63854 9.77326 2.8567 9.44287 3.13323 9.16499C3.40976 8.8871 3.73907 8.66733 4.10179 8.5186C4.46452 8.36987 4.85333 8.29519 5.24534 8.29895H8.07245V11.1099C8.07425 11.3275 8.16094 11.5358 8.31407 11.6904C8.4672 11.845 8.67466 11.9337 8.89223 11.9376H15.164C15.3858 11.9352 15.5983 11.8482 15.758 11.6943C15.9178 11.5405 16.0128 11.3314 16.0236 11.1099V8.29895H38.26V11.1099C38.2571 11.3253 38.3394 11.5332 38.489 11.6882C38.6386 11.8432 38.8434 11.9329 39.0588 11.9376H45.3304C45.777 11.9376 46.0764 11.5565 46.0764 11.1099V8.29895H48.9777C49.3729 8.294 49.7652 8.36743 50.1319 8.515C50.4985 8.66257 50.8323 8.88136 51.1139 9.15871C51.3955 9.43606 51.6194 9.76647 51.7725 10.1308C51.9256 10.4952 52.005 10.8863 52.0061 11.2816V15.8458H2.27753Z" fill="#801C1C"/>
<path d="M18.4186 21.3981C17.9528 21.3979 17.4974 21.5358 17.1099 21.7944C16.7225 22.0531 16.4205 22.4208 16.2421 22.8511C16.0637 23.2814 16.0169 23.7549 16.1076 24.2118C16.1983 24.6687 16.4225 25.0885 16.7518 25.4179C17.0811 25.7474 17.5008 25.9718 17.9576 26.0628C18.4145 26.1538 18.888 26.1072 19.3184 25.929C19.7488 25.7508 20.1167 25.449 20.3755 25.0617C20.6344 24.6744 20.7725 24.2191 20.7726 23.7532C20.772 23.129 20.5238 22.5305 20.0825 22.0889C19.6413 21.6474 19.0429 21.399 18.4186 21.3981V21.3981ZM18.4186 24.4909C18.2726 24.4912 18.1299 24.4481 18.0084 24.3671C17.8869 24.2862 17.7922 24.171 17.7361 24.0362C17.6801 23.9014 17.6654 23.753 17.6937 23.6098C17.7221 23.4666 17.7923 23.335 17.8955 23.2317C17.9986 23.1284 18.1301 23.058 18.2733 23.0295C18.4164 23.001 18.5648 23.0155 18.6997 23.0714C18.8346 23.1272 18.9499 23.2218 19.031 23.3432C19.1121 23.4645 19.1554 23.6073 19.1554 23.7532C19.1553 23.9487 19.0776 24.1361 18.9395 24.2744C18.8014 24.4127 18.6141 24.4906 18.4186 24.4909V24.4909Z" fill="#801C1C"/>
<path d="M27.111 21.3981C26.6452 21.3979 26.1897 21.5358 25.8023 21.7944C25.4149 22.0531 25.1129 22.4208 24.9345 22.8511C24.7561 23.2814 24.7093 23.7549 24.8 24.2118C24.8907 24.6687 25.1149 25.0885 25.4442 25.4179C25.7735 25.7474 26.1931 25.9718 26.65 26.0628C27.1068 26.1538 27.5804 26.1072 28.0108 25.929C28.4412 25.7508 28.8091 25.449 29.0679 25.0617C29.3267 24.6744 29.4649 24.2191 29.4649 23.7532C29.4644 23.129 29.2162 22.5305 28.7749 22.0889C28.3336 21.6474 27.7352 21.399 27.111 21.3981V21.3981ZM27.111 24.4909C26.965 24.4912 26.8222 24.4481 26.7008 24.3671C26.5793 24.2862 26.4845 24.171 26.4285 24.0362C26.3725 23.9014 26.3578 23.753 26.3861 23.6098C26.4145 23.4666 26.4847 23.335 26.5878 23.2317C26.691 23.1284 26.8225 23.058 26.9657 23.0295C27.1088 23.001 27.2572 23.0155 27.3921 23.0714C27.527 23.1272 27.6423 23.2218 27.7234 23.3432C27.8045 23.4645 27.8478 23.6073 27.8478 23.7532C27.8476 23.9487 27.77 24.1361 27.6319 24.2744C27.4938 24.4127 27.3064 24.4906 27.111 24.4909V24.4909Z" fill="#801C1C"/>
<path d="M35.8043 21.3981C35.3385 21.3979 34.8831 21.5358 34.4957 21.7944C34.1083 22.0531 33.8062 22.4208 33.6278 22.8511C33.4494 23.2814 33.4026 23.7549 33.4934 24.2118C33.5841 24.6687 33.8083 25.0885 34.1376 25.4179C34.4669 25.7474 34.8865 25.9718 35.3434 26.0628C35.8002 26.1538 36.2738 26.1072 36.7042 25.929C37.1345 25.7508 37.5024 25.449 37.7613 25.0617C38.0201 24.6744 38.1583 24.2191 38.1583 23.7532C38.1577 23.129 37.9096 22.5305 37.4683 22.0889C37.027 21.6474 36.4286 21.399 35.8043 21.3981V21.3981ZM35.8043 24.4909C35.6584 24.4912 35.5156 24.4481 35.3941 24.3671C35.2726 24.2862 35.1779 24.171 35.1219 24.0362C35.0659 23.9014 35.0511 23.753 35.0795 23.6098C35.1078 23.4666 35.178 23.335 35.2812 23.2317C35.3844 23.1284 35.5158 23.058 35.659 23.0295C35.8022 23.001 35.9506 23.0155 36.0855 23.0714C36.2204 23.1272 36.3356 23.2218 36.4168 23.3432C36.4979 23.4645 36.5411 23.6073 36.5411 23.7532C36.541 23.9487 36.4634 24.1361 36.3253 24.2744C36.1871 24.4127 35.9998 24.4906 35.8043 24.4909V24.4909Z" fill="#801C1C"/>
<path d="M44.4977 21.3981C44.0319 21.3979 43.5765 21.5358 43.189 21.7944C42.8016 22.0531 42.4996 22.4208 42.3212 22.8511C42.1428 23.2814 42.096 23.7549 42.1867 24.2118C42.2774 24.6687 42.5016 25.0885 42.8309 25.4179C43.1602 25.7474 43.5799 25.9718 44.0367 26.0628C44.4936 26.1538 44.9671 26.1072 45.3975 25.929C45.8279 25.7508 46.1958 25.449 46.4546 25.0617C46.7135 24.6744 46.8516 24.2191 46.8517 23.7532C46.8511 23.129 46.6029 22.5305 46.1616 22.0889C45.7204 21.6474 45.122 21.399 44.4977 21.3981V21.3981ZM44.4977 24.4909C44.3517 24.4912 44.209 24.4481 44.0875 24.3671C43.966 24.2862 43.8713 24.171 43.8153 24.0362C43.7592 23.9014 43.7445 23.753 43.7728 23.6098C43.8012 23.4666 43.8714 23.335 43.9746 23.2317C44.0777 23.1284 44.2092 23.058 44.3524 23.0295C44.4955 23.001 44.644 23.0155 44.7788 23.0714C44.9137 23.1272 45.029 23.2218 45.1101 23.3432C45.1912 23.4645 45.2345 23.6073 45.2345 23.7532C45.2344 23.9487 45.1567 24.1361 45.0186 24.2744C44.8805 24.4127 44.6932 24.4906 44.4977 24.4909V24.4909Z" fill="#801C1C"/>
<path d="M9.72525 28.647C9.25942 28.6468 8.80399 28.7847 8.41657 29.0433C8.02915 29.302 7.72713 29.6697 7.54872 30.1C7.3703 30.5303 7.32351 31.0039 7.41426 31.4608C7.50501 31.9177 7.72922 32.3374 8.05853 32.6669C8.38785 32.9963 8.80747 33.2207 9.26433 33.3117C9.72119 33.4027 10.1948 33.3561 10.6252 33.1779C11.0555 32.9997 11.4234 32.6978 11.6822 32.3105C11.9411 31.9232 12.0792 31.4678 12.0792 31.002C12.0786 30.3778 11.8305 29.7793 11.3892 29.3378C10.9479 28.8963 10.3495 28.6478 9.72525 28.647V28.647ZM9.72525 31.7398C9.57927 31.7401 9.43651 31.697 9.31503 31.616C9.19355 31.5351 9.09881 31.4199 9.0428 31.2851C8.98679 31.1503 8.97203 31.0019 9.00038 30.8587C9.02872 30.7155 9.09891 30.5839 9.20206 30.4806C9.3052 30.3774 9.43667 30.307 9.57983 30.2784C9.72298 30.2499 9.8714 30.2644 10.0063 30.3202C10.1412 30.376 10.2565 30.4706 10.3376 30.592C10.4187 30.7133 10.462 30.856 10.462 31.002C10.4619 31.1975 10.3843 31.3849 10.2462 31.5233C10.1081 31.6616 9.92073 31.7395 9.72525 31.7398V31.7398Z" fill="#801C1C"/>
<path d="M18.4186 28.647C17.9528 28.6468 17.4974 28.7847 17.1099 29.0433C16.7225 29.302 16.4205 29.6697 16.2421 30.1C16.0637 30.5303 16.0169 31.0039 16.1076 31.4608C16.1984 31.9177 16.4226 32.3374 16.7519 32.6669C17.0812 32.9963 17.5008 33.2207 17.9577 33.3117C18.4146 33.4027 18.8881 33.3561 19.3185 33.1779C19.7489 32.9997 20.1168 32.6978 20.3756 32.3105C20.6344 31.9232 20.7726 31.4678 20.7726 31.002C20.772 30.3778 20.5238 29.7793 20.0825 29.3378C19.6412 28.8963 19.0428 28.6478 18.4186 28.647V28.647ZM18.4186 31.7398C18.2726 31.7401 18.1299 31.697 18.0084 31.616C17.8869 31.5351 17.7922 31.4199 17.7362 31.2851C17.6802 31.1503 17.6654 31.0019 17.6937 30.8587C17.7221 30.7155 17.7923 30.5839 17.8954 30.4806C17.9986 30.3774 18.13 30.307 18.2732 30.2784C18.4163 30.2499 18.5648 30.2644 18.6996 30.3202C18.8345 30.376 18.9498 30.4706 19.0309 30.592C19.1121 30.7133 19.1554 30.856 19.1554 31.002C19.1553 31.1975 19.0777 31.3849 18.9396 31.5233C18.8014 31.6616 18.6141 31.7395 18.4186 31.7398V31.7398Z" fill="#801C1C"/>
<path d="M27.111 28.647C26.6452 28.6468 26.1897 28.7847 25.8023 29.0433C25.4149 29.302 25.1129 29.6697 24.9345 30.1C24.756 30.5303 24.7093 31.0039 24.8 31.4608C24.8908 31.9177 25.115 32.3374 25.4443 32.6669C25.7736 32.9963 26.1932 33.2207 26.6501 33.3117C27.1069 33.4027 27.5805 33.3561 28.0109 33.1779C28.4413 32.9997 28.8091 32.6978 29.068 32.3105C29.3268 31.9232 29.4649 31.4678 29.4649 31.002C29.4644 30.3778 29.2162 29.7793 28.7749 29.3378C28.3336 28.8963 27.7352 28.6478 27.111 28.647ZM27.111 31.7398C26.965 31.7401 26.8223 31.697 26.7008 31.616C26.5793 31.5351 26.4846 31.4199 26.4285 31.2851C26.3725 31.1503 26.3578 31.0019 26.3861 30.8587C26.4145 30.7155 26.4846 30.5839 26.5878 30.4806C26.6909 30.3774 26.8224 30.307 26.9656 30.2784C27.1087 30.2499 27.2571 30.2644 27.392 30.3202C27.5269 30.376 27.6422 30.4706 27.7233 30.592C27.8044 30.7133 27.8478 30.856 27.8478 31.002C27.8477 31.1975 27.7701 31.3849 27.6319 31.5233C27.4938 31.6616 27.3065 31.7395 27.111 31.7398V31.7398Z" fill="#801C1C"/>
<path d="M35.8044 28.647C35.3385 28.6468 34.8831 28.7847 34.4957 29.0433C34.1083 29.302 33.8062 29.6697 33.6278 30.1C33.4494 30.5303 33.4026 31.0039 33.4934 31.4608C33.5841 31.9177 33.8083 32.3374 34.1376 32.6669C34.4669 32.9963 34.8866 33.2207 35.3434 33.3117C35.8003 33.4027 36.2739 33.3561 36.7043 33.1779C37.1346 32.9997 37.5025 32.6978 37.7613 32.3105C38.0202 31.9232 38.1583 31.4678 38.1583 31.002C38.1577 30.3778 37.9096 29.7793 37.4683 29.3378C37.027 28.8963 36.4286 28.6478 35.8044 28.647ZM35.8044 31.7398C35.6584 31.7401 35.5156 31.697 35.3941 31.616C35.2727 31.5351 35.1779 31.4199 35.1219 31.2851C35.0659 31.1503 35.0511 31.0019 35.0795 30.8587C35.1078 30.7155 35.178 30.5839 35.2812 30.4806C35.3843 30.3774 35.5158 30.307 35.6589 30.2784C35.8021 30.2499 35.9505 30.2644 36.0854 30.3202C36.2203 30.376 36.3356 30.4706 36.4167 30.592C36.4978 30.7133 36.5411 30.856 36.5411 31.002C36.541 31.1975 36.4634 31.3849 36.3253 31.5233C36.1872 31.6616 35.9998 31.7395 35.8044 31.7398V31.7398Z" fill="#801C1C"/>
<path d="M9.72525 35.8961C9.25943 35.8959 8.80401 36.0338 8.41659 36.2925C8.02916 36.5511 7.72715 36.9188 7.54873 37.3491C7.37031 37.7794 7.32351 38.253 7.41425 38.7099C7.50499 39.1668 7.72918 39.5865 8.05848 39.916C8.38778 40.2455 8.8074 40.4699 9.26425 40.5608C9.7211 40.6518 10.1947 40.6052 10.6251 40.4271C11.0554 40.2489 11.4233 39.947 11.6822 39.5597C11.941 39.1725 12.0792 38.7171 12.0792 38.2513C12.0786 37.627 11.8305 37.0285 11.3892 36.587C10.9479 36.1455 10.3495 35.897 9.72525 35.8961V35.8961ZM9.72525 38.989C9.57927 38.9892 9.4365 38.9461 9.31502 38.8652C9.19354 38.7842 9.0988 38.669 9.04279 38.5342C8.98678 38.3994 8.97203 38.251 9.00038 38.1078C9.02874 37.9646 9.09895 37.833 9.2021 37.7298C9.30526 37.6265 9.43674 37.5561 9.57991 37.5275C9.72308 37.499 9.87149 37.5136 10.0064 37.5694C10.1413 37.6252 10.2565 37.7198 10.3377 37.8412C10.4188 37.9626 10.462 38.1053 10.462 38.2513C10.4619 38.4467 10.3843 38.6342 10.2462 38.7725C10.108 38.9108 9.9207 38.9886 9.72525 38.989V38.989Z" fill="#801C1C"/>
<path d="M18.4186 35.8961C17.9528 35.8959 17.4974 36.0338 17.1099 36.2925C16.7225 36.5511 16.4205 36.9188 16.2421 37.3491C16.0637 37.7794 16.0169 38.253 16.1076 38.7099C16.1983 39.1668 16.4225 39.5865 16.7518 39.916C17.0811 40.2455 17.5008 40.4699 17.9576 40.5608C18.4145 40.6518 18.888 40.6052 19.3184 40.4271C19.7488 40.2489 20.1167 39.947 20.3755 39.5597C20.6344 39.1725 20.7725 38.7171 20.7726 38.2513C20.772 37.627 20.5238 37.0285 20.0825 36.587C19.6413 36.1455 19.0429 35.897 18.4186 35.8961V35.8961ZM18.4186 38.989C18.2726 38.9892 18.1299 38.9461 18.0084 38.8652C17.8869 38.7842 17.7922 38.669 17.7361 38.5342C17.6801 38.3994 17.6654 38.251 17.6937 38.1078C17.7221 37.9646 17.7923 37.833 17.8955 37.7298C17.9986 37.6265 18.1301 37.5561 18.2733 37.5275C18.4164 37.499 18.5648 37.5136 18.6997 37.5694C18.8346 37.6252 18.9499 37.7198 19.031 37.8412C19.1121 37.9626 19.1554 38.1053 19.1554 38.2513C19.1553 38.4467 19.0776 38.6342 18.9395 38.7725C18.8014 38.9108 18.6141 38.9886 18.4186 38.989V38.989Z" fill="#801C1C"/>
<path d="M27.111 35.8961C26.6452 35.8959 26.1897 36.0338 25.8023 36.2925C25.4149 36.5511 25.1129 36.9188 24.9345 37.3491C24.7561 37.7794 24.7093 38.253 24.8 38.7099C24.8907 39.1668 25.1149 39.5865 25.4442 39.916C25.7735 40.2455 26.1931 40.4699 26.65 40.5608C27.1068 40.6518 27.5804 40.6052 28.0108 40.4271C28.4412 40.2489 28.8091 39.947 29.0679 39.5597C29.3267 39.1725 29.4649 38.7171 29.4649 38.2513C29.4644 37.627 29.2162 37.0285 28.7749 36.587C28.3336 36.1455 27.7352 35.897 27.111 35.8961V35.8961ZM27.111 38.989C26.965 38.9892 26.8222 38.9461 26.7008 38.8652C26.5793 38.7842 26.4845 38.669 26.4285 38.5342C26.3725 38.3994 26.3578 38.251 26.3861 38.1078C26.4145 37.9646 26.4847 37.833 26.5878 37.7298C26.691 37.6265 26.8225 37.5561 26.9657 37.5275C27.1088 37.499 27.2572 37.5136 27.3921 37.5694C27.527 37.6252 27.6423 37.7198 27.7234 37.8412C27.8045 37.9626 27.8478 38.1053 27.8478 38.2513C27.8476 38.4467 27.77 38.6342 27.6319 38.7725C27.4938 38.9108 27.3064 38.9886 27.111 38.989Z" fill="#801C1C"/>
<path d="M9.72552 43.1451C9.25965 43.1449 8.80418 43.2828 8.41671 43.5415C8.02925 43.8001 7.72719 44.1679 7.54875 44.5982C7.37031 45.0285 7.32351 45.5021 7.41426 45.9591C7.50501 46.416 7.72923 46.8358 8.05857 47.1653C8.38791 47.4948 8.80757 47.7192 9.26447 47.8101C9.72137 47.9011 10.195 47.8545 10.6254 47.6763C11.0558 47.498 11.4237 47.1961 11.6825 46.8088C11.9414 46.4214 12.0795 45.966 12.0795 45.5002C12.0789 44.8759 11.8307 44.2774 11.3894 43.8359C10.9481 43.3944 10.3497 43.146 9.72552 43.1451ZM9.72552 46.2381C9.57951 46.2384 9.43671 46.1953 9.31519 46.1144C9.19367 46.0334 9.09889 45.9183 9.04285 45.7834C8.98681 45.6486 8.97202 45.5002 9.00036 45.3569C9.0287 45.2137 9.09889 45.0821 9.20205 44.9788C9.30521 44.8754 9.4367 44.805 9.57988 44.7765C9.72307 44.7479 9.87151 44.7624 10.0064 44.8183C10.1414 44.8741 10.2567 44.9687 10.3378 45.09C10.419 45.2114 10.4623 45.3542 10.4623 45.5002C10.4622 45.6957 10.3846 45.8831 10.2465 46.0215C10.1084 46.1598 9.92101 46.2378 9.72552 46.2381Z" fill="#801C1C"/>
<path d="M18.4179 43.1451C17.952 43.1449 17.4966 43.2828 17.1091 43.5415C16.7216 43.8001 16.4196 44.1679 16.2411 44.5982C16.0627 45.0285 16.0159 45.5021 16.1066 45.9591C16.1974 46.416 16.4216 46.8358 16.751 47.1653C17.0803 47.4948 17.5 47.7192 17.9569 47.8101C18.4138 47.9011 18.8874 47.8545 19.3178 47.6763C19.7482 47.498 20.1161 47.1961 20.3749 46.8088C20.6337 46.4214 20.7719 45.966 20.7718 45.5002C20.7713 44.8759 20.5231 44.2774 20.0818 43.8359C19.6405 43.3944 19.0421 43.146 18.4179 43.1451V43.1451ZM18.4179 46.2381C18.2719 46.2384 18.1291 46.1953 18.0076 46.1144C17.8861 46.0334 17.7913 45.9183 17.7352 45.7834C17.6792 45.6486 17.6644 45.5002 17.6927 45.3569C17.7211 45.2137 17.7913 45.0821 17.8944 44.9788C17.9976 44.8754 18.1291 44.805 18.2723 44.7765C18.4155 44.7479 18.5639 44.7624 18.6988 44.8183C18.8337 44.8741 18.9491 44.9687 19.0302 45.09C19.1113 45.2114 19.1547 45.3542 19.1547 45.5002C19.1546 45.6957 19.077 45.8831 18.9389 46.0215C18.8007 46.1598 18.6134 46.2378 18.4179 46.2381Z" fill="#801C1C"/>
<path d="M27.1113 43.1451C26.6454 43.1449 26.1899 43.2828 25.8025 43.5415C25.415 43.8001 25.1129 44.1679 24.9345 44.5982C24.7561 45.0285 24.7093 45.5021 24.8 45.9591C24.8907 46.416 25.115 46.8358 25.4443 47.1653C25.7737 47.4948 26.1933 47.7192 26.6502 47.8101C27.1071 47.9011 27.5807 47.8545 28.0111 47.6763C28.4416 47.498 28.8095 47.1961 29.0683 46.8088C29.3271 46.4214 29.4652 45.966 29.4652 45.5002C29.4646 44.8759 29.2165 44.2774 28.7752 43.8359C28.3339 43.3944 27.7355 43.146 27.1113 43.1451ZM27.1113 46.2381C26.9653 46.2384 26.8225 46.1953 26.7009 46.1144C26.5794 46.0334 26.4846 45.9183 26.4286 45.7834C26.3726 45.6486 26.3578 45.5002 26.3861 45.3569C26.4144 45.2137 26.4846 45.0821 26.5878 44.9788C26.6909 44.8754 26.8224 44.805 26.9656 44.7765C27.1088 44.7479 27.2573 44.7624 27.3922 44.8183C27.5271 44.8741 27.6424 44.9687 27.7236 45.09C27.8047 45.2114 27.848 45.3542 27.848 45.5002C27.848 45.6957 27.7703 45.8831 27.6322 46.0215C27.4941 46.1598 27.3068 46.2378 27.1113 46.2381Z" fill="#801C1C"/>
<path d="M5.78125 20.3157C5.78125 20.1012 5.69606 19.8956 5.54442 19.7439C5.39278 19.5923 5.18711 19.5071 4.97266 19.5071C4.7582 19.5071 4.55254 19.5923 4.40089 19.7439C4.24925 19.8956 4.16406 20.1012 4.16406 20.3157V20.7178C4.16406 20.9323 4.24925 21.1379 4.40089 21.2896C4.55254 21.4412 4.7582 21.5264 4.97266 21.5264C5.18711 21.5264 5.39278 21.4412 5.54442 21.2896C5.69606 21.1379 5.78125 20.9323 5.78125 20.7178V20.3157Z" fill="#801C1C"/>
<path d="M4.97266 22.5116C4.7582 22.5116 4.55254 22.5968 4.40089 22.7484C4.24925 22.9001 4.16406 23.1057 4.16406 23.3202V35.0002C4.16406 35.2146 4.24925 35.4203 4.40089 35.572C4.55254 35.7236 4.7582 35.8088 4.97266 35.8088C5.18711 35.8088 5.39278 35.7236 5.54442 35.572C5.69606 35.4203 5.78125 35.2146 5.78125 35.0002V23.3202C5.78125 23.1057 5.69606 22.9001 5.54442 22.7484C5.39278 22.5968 5.18711 22.5116 4.97266 22.5116V22.5116Z" fill="#801C1C"/>
<path d="M56.0689 51.2891H52.2191C54.4332 50.0712 56.1794 48.1514 57.1827 45.832C58.1859 43.5127 58.3891 40.9255 57.7604 38.4779C57.1317 36.0304 55.7067 33.8615 53.7099 32.3127C51.7131 30.764 49.2578 29.9235 46.7308 29.9235C44.2038 29.9235 41.7485 30.764 39.7517 32.3127C37.7549 33.8615 36.3299 36.0304 35.7012 38.4779C35.0725 40.9255 35.2757 43.5127 36.2789 45.832C37.2822 48.1514 39.0283 50.0712 41.2425 51.2891H37.3927C36.7683 51.2933 36.1705 51.5424 35.7278 51.9828C35.2851 52.4232 35.0329 53.0197 35.0254 53.6441V55.169C35.0254 55.7296 35.2283 56.2712 35.5967 56.6938C35.2283 57.1165 35.0254 57.6582 35.0254 58.2188V59.7438C35.0254 60.3045 35.2283 60.8462 35.5967 61.2689C35.2283 61.6915 35.0254 62.2331 35.0254 62.7937V64.3189C35.0338 64.941 35.2869 65.5348 35.73 65.9716C36.1731 66.4083 36.7705 66.6529 37.3927 66.6523H56.0689C57.3561 66.6523 58.3398 65.6055 58.3398 64.3189V62.7937C58.3398 62.2331 58.1369 61.6915 57.7686 61.2689C58.1369 60.8462 58.3398 60.3045 58.3398 59.7438V58.2188C58.3398 57.6582 58.1369 57.1165 57.7686 56.6938C58.1369 56.2712 58.3398 55.7296 58.3398 55.169V53.6441C58.3398 52.3573 57.3561 51.2891 56.0689 51.2891ZM40.6451 47.4213C40.57 47.3462 40.4809 47.2866 40.3828 47.246C40.2847 47.2053 40.1795 47.1844 40.0733 47.1844C39.9671 47.1844 39.862 47.2053 39.7638 47.246C39.6657 47.2866 39.5766 47.3462 39.5015 47.4213L39.2859 47.6275C37.9584 46.0835 37.1597 44.1554 37.0064 42.125H37.3164C37.5309 42.125 37.7365 42.0398 37.8882 41.8882C38.0398 41.7365 38.125 41.5309 38.125 41.3164C38.125 41.1019 38.0398 40.8963 37.8882 40.7446C37.7365 40.593 37.5309 40.5078 37.3164 40.5078H37.0064C37.1854 38.4896 37.9811 36.5753 39.2856 35.025L39.5012 35.246C39.5761 35.3211 39.6649 35.3808 39.7628 35.4215C39.8607 35.4623 39.9656 35.4834 40.0716 35.4836C40.1777 35.4838 40.2827 35.4631 40.3807 35.4227C40.4787 35.3823 40.5679 35.323 40.643 35.2482C40.7181 35.1734 40.7777 35.0845 40.8185 34.9866C40.8592 34.8887 40.8803 34.7838 40.8805 34.6778C40.8807 34.5717 40.86 34.4667 40.8196 34.3687C40.7792 34.2707 40.7199 34.1816 40.6451 34.1064L40.4387 33.8908C41.9827 32.5635 43.911 31.7652 45.9414 31.6125V31.9224C45.9414 32.1369 46.0266 32.3426 46.1782 32.4942C46.3299 32.6458 46.5355 32.731 46.75 32.731C46.9645 32.731 47.1701 32.6458 47.3218 32.4942C47.4734 32.3426 47.5586 32.1369 47.5586 31.9224V31.6125C49.5769 31.7911 51.4913 32.5865 53.0418 33.8908L52.8208 34.1064C52.7448 34.1811 52.6844 34.27 52.643 34.3681C52.6015 34.4661 52.5799 34.5714 52.5794 34.6779C52.5788 34.7844 52.5993 34.8899 52.6397 34.9884C52.6801 35.0869 52.7396 35.1765 52.8148 35.2519C52.8899 35.3273 52.9793 35.3871 53.0776 35.4278C53.176 35.4686 53.2815 35.4895 53.3879 35.4893C53.4944 35.4891 53.5998 35.4678 53.698 35.4267C53.7962 35.3856 53.8854 35.3255 53.9602 35.2498L54.1759 35.0238C55.4805 36.5745 56.2762 38.4892 56.4547 40.5078H56.1448C55.9303 40.5078 55.7247 40.593 55.573 40.7446C55.4214 40.8963 55.3362 41.1019 55.3362 41.3164C55.3362 41.5309 55.4214 41.7365 55.573 41.8882C55.7247 42.0398 55.9303 42.125 56.1448 42.125H56.4547C56.3016 44.1554 55.5029 46.0836 54.1756 47.6277L53.96 47.4166C53.8846 47.3415 53.7952 47.282 53.6969 47.2414C53.5986 47.2009 53.4932 47.1801 53.3868 47.1803C53.172 47.1807 52.9662 47.2664 52.8145 47.4185C52.6629 47.5707 52.5779 47.7768 52.5783 47.9916C52.5786 48.2065 52.6643 48.4123 52.8165 48.564L53.0421 48.7805C51.4916 50.0853 49.5771 50.8811 47.5586 51.06V50.75C47.5586 50.5355 47.4734 50.3299 47.3218 50.1782C47.1701 50.0266 46.9645 49.9414 46.75 49.9414C46.5355 49.9414 46.3299 50.0266 46.1782 50.1782C46.0266 50.3299 45.9414 50.5355 45.9414 50.75V51.06C43.9111 50.9069 41.983 50.1083 40.4391 48.7809L40.6504 48.5653C40.7252 48.4899 40.7844 48.4004 40.8246 48.3021C40.8649 48.2038 40.8853 48.0984 40.8848 47.9922C40.8843 47.886 40.8629 47.7809 40.8218 47.6829C40.7807 47.5849 40.7206 47.496 40.6451 47.4213V47.4213ZM56.7227 55.1547C56.7227 55.3447 56.6472 55.5269 56.5128 55.6613C56.3785 55.7956 56.1962 55.8711 56.0062 55.8711H37.359C37.169 55.8711 36.9868 55.7956 36.8524 55.6613C36.7181 55.5269 36.6426 55.3447 36.6426 55.1547V53.6227C36.6426 53.4327 36.7181 53.2504 36.8524 53.1161C36.9868 52.9817 37.169 52.9062 37.359 52.9062H56.0062C56.1962 52.9062 56.3785 52.9817 56.5128 53.1161C56.6472 53.2504 56.7227 53.4327 56.7227 53.6227V55.1547ZM56.7227 59.7367C56.7227 59.9267 56.6472 60.1089 56.5128 60.2433C56.3785 60.3776 56.1962 60.4531 56.0062 60.4531H37.359C37.169 60.4531 36.9868 60.3777 36.8525 60.2433C36.7181 60.109 36.6426 59.9268 36.6426 59.7368V58.2046C36.6426 58.0146 36.7181 57.8324 36.8525 57.6981C36.9868 57.5637 37.169 57.4883 37.359 57.4883H56.0062C56.1962 57.4883 56.3784 57.5637 56.5128 57.6981C56.6471 57.8324 56.7226 58.0146 56.7227 58.2046V59.7367ZM56.7227 64.3187C56.7227 64.5087 56.6472 64.691 56.5128 64.8253C56.3785 64.9597 56.1962 65.0351 56.0062 65.0351H37.359C37.169 65.0351 36.9868 64.9597 36.8525 64.8254C36.7181 64.691 36.6426 64.5088 36.6426 64.3189V62.7866C36.6426 62.5966 36.7181 62.4144 36.8525 62.2801C36.9868 62.1458 37.169 62.0703 37.359 62.0703H56.0062C56.1962 62.0703 56.3784 62.1458 56.5128 62.2801C56.6471 62.4144 56.7226 62.5966 56.7227 62.7866V64.3187Z" fill="#F7A125"/>
</svg>
