<svg width="69" height="69" viewBox="0 0 69 69" fill="none" xmlns="http://www.w3.org/2000/svg">
<path d="M13.8814 8.46094C13.8102 8.46848 13.7398 8.47873 13.6698 8.49032H13.8814V8.46094Z" fill="#D4E1F4"/>
<path d="M60.0435 42.3363C60.0435 40.6922 59.5559 39.085 58.6425 37.7179C57.7291 36.3509 56.4308 35.2854 54.9118 34.6562C53.3928 34.027 51.7214 33.8624 50.1088 34.1832C48.4963 34.5039 47.0151 35.2956 45.8525 36.4582C44.6899 37.6208 43.8982 39.102 43.5774 40.7146C43.2567 42.3271 43.4213 43.9985 44.0505 45.5175C44.6797 47.0365 45.7451 48.3348 47.1122 49.2482C48.4792 50.1617 50.0865 50.6492 51.7306 50.6492C53.9345 50.6467 56.0475 49.7701 57.6059 48.2117C59.1644 46.6532 60.041 44.5403 60.0435 42.3363ZM45.0349 42.3363C45.0349 41.012 45.4276 39.7175 46.1633 38.6164C46.899 37.5153 47.9448 36.6571 49.1683 36.1503C50.3917 35.6435 51.738 35.5109 53.0369 35.7693C54.3357 36.0276 55.5288 36.6653 56.4652 37.6018C57.4016 38.5382 58.0393 39.7312 58.2976 41.0301C58.556 42.3289 58.4234 43.6752 57.9166 44.8987C57.4098 46.1221 56.5516 47.1679 55.4505 47.9036C54.3494 48.6393 53.0549 49.032 51.7306 49.032C49.9554 49.03 48.2535 48.3239 46.9982 47.0687C45.743 45.8134 45.0369 44.1115 45.0349 42.3363Z" fill="#F7A125"/>
<path d="M50.5371 56.4507C50.7516 56.4507 50.9572 56.3655 51.1089 56.2138C51.2605 56.0622 51.3457 55.8565 51.3457 55.6421V55.1704C51.3457 54.956 51.2605 54.7503 51.1089 54.5986C50.9572 54.447 50.7516 54.3618 50.5371 54.3618C50.3227 54.3618 50.117 54.447 49.9653 54.5986C49.8137 54.7503 49.7285 54.956 49.7285 55.1704V55.6421C49.7285 55.8565 49.8137 56.0622 49.9653 56.2138C50.117 56.3655 50.3227 56.4507 50.5371 56.4507Z" fill="#F7A125"/>
<path d="M48.1113 56.4507C48.3258 56.4507 48.5315 56.3655 48.6831 56.2138C48.8347 56.0622 48.9199 55.8565 48.9199 55.6421V55.1704C48.9199 54.956 48.8347 54.7503 48.6831 54.5986C48.5315 54.447 48.3258 54.3618 48.1113 54.3618C47.8969 54.3618 47.6912 54.447 47.5396 54.5986C47.3879 54.7503 47.3027 54.956 47.3027 55.1704V55.6421C47.3027 55.8565 47.3879 56.0622 47.5396 56.2138C47.6912 56.3655 47.8969 56.4507 48.1113 56.4507Z" fill="#F7A125"/>
<path d="M45.6855 56.4507C45.9 56.4507 46.1057 56.3655 46.2573 56.2138C46.409 56.0622 46.4941 55.8565 46.4941 55.6421V55.1704C46.4941 54.956 46.409 54.7503 46.2573 54.5986C46.1057 54.447 45.9 54.3618 45.6855 54.3618C45.4711 54.3618 45.2654 54.447 45.1138 54.5986C44.9621 54.7503 44.877 54.956 44.877 55.1704V55.6421C44.877 55.8565 44.9621 56.0622 45.1138 56.2138C45.2654 56.3655 45.4711 56.4507 45.6855 56.4507Z" fill="#F7A125"/>
<path d="M43.2598 56.4507C43.4742 56.4507 43.6799 56.3655 43.8315 56.2138C43.9832 56.0622 44.0684 55.8565 44.0684 55.6421V55.1704C44.0684 54.956 43.9832 54.7503 43.8315 54.5986C43.6799 54.447 43.4742 54.3618 43.2598 54.3618C43.0453 54.3618 42.8396 54.447 42.688 54.5986C42.5364 54.7503 42.4512 54.956 42.4512 55.1704V55.6421C42.4512 55.8565 42.5364 56.0622 42.688 56.2138C42.8396 56.3655 43.0453 56.4507 43.2598 56.4507Z" fill="#F7A125"/>
<path d="M55.3887 56.4507C55.6031 56.4507 55.8088 56.3655 55.9604 56.2138C56.1121 56.0622 56.1973 55.8565 56.1973 55.6421V55.1704C56.1973 54.956 56.1121 54.7503 55.9604 54.5986C55.8088 54.447 55.6031 54.3618 55.3887 54.3618C55.1742 54.3618 54.9685 54.447 54.8169 54.5986C54.6653 54.7503 54.5801 54.956 54.5801 55.1704V55.6421C54.5801 55.8565 54.6653 56.0622 54.8169 56.2138C54.9685 56.3655 55.1742 56.4507 55.3887 56.4507Z" fill="#F7A125"/>
<path d="M52.9629 56.4507C53.1773 56.4507 53.383 56.3655 53.5347 56.2138C53.6863 56.0622 53.7715 55.8565 53.7715 55.6421V55.1704C53.7715 54.956 53.6863 54.7503 53.5347 54.5986C53.383 54.447 53.1773 54.3618 52.9629 54.3618C52.7484 54.3618 52.5428 54.447 52.3911 54.5986C52.2395 54.7503 52.1543 54.956 52.1543 55.1704V55.6421C52.1543 55.8565 52.2395 56.0622 52.3911 56.2138C52.5428 56.3655 52.7484 56.4507 52.9629 56.4507Z" fill="#F7A125"/>
<path d="M60.2402 56.4507C60.4547 56.4507 60.6604 56.3655 60.812 56.2138C60.9636 56.0622 61.0488 55.8565 61.0488 55.6421V55.1704C61.0488 54.956 60.9636 54.7503 60.812 54.5986C60.6604 54.447 60.4547 54.3618 60.2402 54.3618C60.0258 54.3618 59.8201 54.447 59.6685 54.5986C59.5168 54.7503 59.4316 54.956 59.4316 55.1704V55.6421C59.4316 55.8565 59.5168 56.0622 59.6685 56.2138C59.8201 56.3655 60.0258 56.4507 60.2402 56.4507Z" fill="#F7A125"/>
<path d="M57.8145 56.4507C58.0289 56.4507 58.2346 56.3655 58.3862 56.2138C58.5379 56.0622 58.623 55.8565 58.623 55.6421V55.1704C58.623 54.956 58.5379 54.7503 58.3862 54.5986C58.2346 54.447 58.0289 54.3618 57.8145 54.3618C57.6 54.3618 57.3943 54.447 57.2427 54.5986C57.091 54.7503 57.0059 54.956 57.0059 55.1704V55.6421C57.0059 55.8565 57.091 56.0622 57.2427 56.2138C57.3943 56.3655 57.6 56.4507 57.8145 56.4507Z" fill="#F7A125"/>
<path d="M50.5371 61.0259C50.7516 61.0259 50.9572 60.9407 51.1089 60.789C51.2605 60.6374 51.3457 60.4317 51.3457 60.2173V59.7456C51.3457 59.5312 51.2605 59.3255 51.1089 59.1738C50.9572 59.0222 50.7516 58.937 50.5371 58.937C50.3227 58.937 50.117 59.0222 49.9653 59.1738C49.8137 59.3255 49.7285 59.5312 49.7285 59.7456V60.2173C49.7285 60.4317 49.8137 60.6374 49.9653 60.789C50.117 60.9407 50.3227 61.0259 50.5371 61.0259Z" fill="#F7A125"/>
<path d="M48.1113 61.0259C48.3258 61.0259 48.5315 60.9407 48.6831 60.789C48.8347 60.6374 48.9199 60.4317 48.9199 60.2173V59.7456C48.9199 59.5312 48.8347 59.3255 48.6831 59.1738C48.5315 59.0222 48.3258 58.937 48.1113 58.937C47.8969 58.937 47.6912 59.0222 47.5396 59.1738C47.3879 59.3255 47.3027 59.5312 47.3027 59.7456V60.2173C47.3027 60.4317 47.3879 60.6374 47.5396 60.789C47.6912 60.9407 47.8969 61.0259 48.1113 61.0259Z" fill="#F7A125"/>
<path d="M45.6855 61.0259C45.9 61.0259 46.1057 60.9407 46.2573 60.789C46.409 60.6374 46.4941 60.4317 46.4941 60.2173V59.7456C46.4941 59.5312 46.409 59.3255 46.2573 59.1738C46.1057 59.0222 45.9 58.937 45.6855 58.937C45.4711 58.937 45.2654 59.0222 45.1138 59.1738C44.9621 59.3255 44.877 59.5312 44.877 59.7456V60.2173C44.877 60.4317 44.9621 60.6374 45.1138 60.789C45.2654 60.9407 45.4711 61.0259 45.6855 61.0259Z" fill="#F7A125"/>
<path d="M43.2598 61.0259C43.4742 61.0259 43.6799 60.9407 43.8315 60.789C43.9832 60.6374 44.0684 60.4317 44.0684 60.2173V59.7456C44.0684 59.5312 43.9832 59.3255 43.8315 59.1738C43.6799 59.0222 43.4742 58.937 43.2598 58.937C43.0453 58.937 42.8396 59.0222 42.688 59.1738C42.5364 59.3255 42.4512 59.5312 42.4512 59.7456V60.2173C42.4512 60.4317 42.5364 60.6374 42.688 60.789C42.8396 60.9407 43.0453 61.0259 43.2598 61.0259Z" fill="#F7A125"/>
<path d="M55.3887 61.0259C55.6031 61.0259 55.8088 60.9407 55.9604 60.789C56.1121 60.6374 56.1973 60.4317 56.1973 60.2173V59.7456C56.1973 59.5312 56.1121 59.3255 55.9604 59.1738C55.8088 59.0222 55.6031 58.937 55.3887 58.937C55.1742 58.937 54.9685 59.0222 54.8169 59.1738C54.6653 59.3255 54.5801 59.5312 54.5801 59.7456V60.2173C54.5801 60.4317 54.6653 60.6374 54.8169 60.789C54.9685 60.9407 55.1742 61.0259 55.3887 61.0259Z" fill="#F7A125"/>
<path d="M52.9629 61.0259C53.1773 61.0259 53.383 60.9407 53.5347 60.789C53.6863 60.6374 53.7715 60.4317 53.7715 60.2173V59.7456C53.7715 59.5312 53.6863 59.3255 53.5347 59.1738C53.383 59.0222 53.1773 58.937 52.9629 58.937C52.7484 58.937 52.5428 59.0222 52.3911 59.1738C52.2395 59.3255 52.1543 59.5312 52.1543 59.7456V60.2173C52.1543 60.4317 52.2395 60.6374 52.3911 60.789C52.5428 60.9407 52.7484 61.0259 52.9629 61.0259Z" fill="#F7A125"/>
<path d="M60.2402 61.0259C60.4547 61.0259 60.6604 60.9407 60.812 60.789C60.9636 60.6374 61.0488 60.4317 61.0488 60.2173V59.7456C61.0488 59.5312 60.9636 59.3255 60.812 59.1738C60.6604 59.0222 60.4547 58.937 60.2402 58.937C60.0258 58.937 59.8201 59.0222 59.6685 59.1738C59.5168 59.3255 59.4316 59.5312 59.4316 59.7456V60.2173C59.4316 60.4317 59.5168 60.6374 59.6685 60.789C59.8201 60.9407 60.0258 61.0259 60.2402 61.0259Z" fill="#F7A125"/>
<path d="M57.8145 61.0259C58.0289 61.0259 58.2346 60.9407 58.3862 60.789C58.5379 60.6374 58.623 60.4317 58.623 60.2173V59.7456C58.623 59.5312 58.5379 59.3255 58.3862 59.1738C58.2346 59.0222 58.0289 58.937 57.8145 58.937C57.6 58.937 57.3943 59.0222 57.2427 59.1738C57.091 59.3255 57.0059 59.5312 57.0059 59.7456V60.2173C57.0059 60.4317 57.091 60.6374 57.2427 60.789C57.3943 60.9407 57.6 61.0259 57.8145 61.0259Z" fill="#F7A125"/>
<path d="M50.5371 63.5122C50.3227 63.5122 50.117 63.5974 49.9653 63.749C49.8137 63.9007 49.7285 64.1063 49.7285 64.3208V64.7925C49.7285 65.0069 49.8137 65.2126 49.9653 65.3642C50.117 65.5159 50.3227 65.6011 50.5371 65.6011C50.7516 65.6011 50.9572 65.5159 51.1089 65.3642C51.2605 65.2126 51.3457 65.0069 51.3457 64.7925V64.3208C51.3457 64.1063 51.2605 63.9007 51.1089 63.749C50.9572 63.5974 50.7516 63.5122 50.5371 63.5122Z" fill="#F7A125"/>
<path d="M48.1113 63.5122C47.8969 63.5122 47.6912 63.5974 47.5396 63.749C47.3879 63.9007 47.3027 64.1063 47.3027 64.3208V64.7925C47.3027 65.0069 47.3879 65.2126 47.5396 65.3642C47.6912 65.5159 47.8969 65.6011 48.1113 65.6011C48.3258 65.6011 48.5315 65.5159 48.6831 65.3642C48.8347 65.2126 48.9199 65.0069 48.9199 64.7925V64.3208C48.9199 64.1063 48.8347 63.9007 48.6831 63.749C48.5315 63.5974 48.3258 63.5122 48.1113 63.5122Z" fill="#F7A125"/>
<path d="M45.6855 63.5122C45.4711 63.5122 45.2654 63.5974 45.1138 63.749C44.9621 63.9007 44.877 64.1063 44.877 64.3208V64.7925C44.877 65.0069 44.9621 65.2126 45.1138 65.3642C45.2654 65.5159 45.4711 65.6011 45.6855 65.6011C45.9 65.6011 46.1057 65.5159 46.2573 65.3642C46.409 65.2126 46.4941 65.0069 46.4941 64.7925V64.3208C46.4941 64.1063 46.409 63.9007 46.2573 63.749C46.1057 63.5974 45.9 63.5122 45.6855 63.5122Z" fill="#F7A125"/>
<path d="M43.2598 63.5122C43.0453 63.5122 42.8396 63.5974 42.688 63.749C42.5364 63.9007 42.4512 64.1063 42.4512 64.3208V64.7925C42.4512 65.0069 42.5364 65.2126 42.688 65.3642C42.8396 65.5159 43.0453 65.6011 43.2598 65.6011C43.4742 65.6011 43.6799 65.5159 43.8315 65.3642C43.9832 65.2126 44.0684 65.0069 44.0684 64.7925V64.3208C44.0684 64.1063 43.9832 63.9007 43.8315 63.749C43.6799 63.5974 43.4742 63.5122 43.2598 63.5122Z" fill="#F7A125"/>
<path d="M55.3887 63.5122C55.1742 63.5122 54.9685 63.5974 54.8169 63.749C54.6653 63.9007 54.5801 64.1063 54.5801 64.3208V64.7925C54.5801 65.0069 54.6653 65.2126 54.8169 65.3642C54.9685 65.5159 55.1742 65.6011 55.3887 65.6011C55.6031 65.6011 55.8088 65.5159 55.9604 65.3642C56.1121 65.2126 56.1973 65.0069 56.1973 64.7925V64.3208C56.1973 64.1063 56.1121 63.9007 55.9604 63.749C55.8088 63.5974 55.6031 63.5122 55.3887 63.5122Z" fill="#F7A125"/>
<path d="M52.9629 63.5122C52.7484 63.5122 52.5428 63.5974 52.3911 63.749C52.2395 63.9007 52.1543 64.1063 52.1543 64.3208V64.7925C52.1543 65.0069 52.2395 65.2126 52.3911 65.3642C52.5428 65.5159 52.7484 65.6011 52.9629 65.6011C53.1773 65.6011 53.383 65.5159 53.5347 65.3642C53.6863 65.2126 53.7715 65.0069 53.7715 64.7925V64.3208C53.7715 64.1063 53.6863 63.9007 53.5347 63.749C53.383 63.5974 53.1773 63.5122 52.9629 63.5122Z" fill="#F7A125"/>
<path d="M60.2402 63.5122C60.0258 63.5122 59.8201 63.5974 59.6685 63.749C59.5168 63.9007 59.4316 64.1063 59.4316 64.3208V64.7925C59.4316 65.0069 59.5168 65.2126 59.6685 65.3642C59.8201 65.5159 60.0258 65.6011 60.2402 65.6011C60.4547 65.6011 60.6604 65.5159 60.812 65.3642C60.9636 65.2126 61.0488 65.0069 61.0488 64.7925V64.3208C61.0488 64.1063 60.9636 63.9007 60.812 63.749C60.6604 63.5974 60.4547 63.5122 60.2402 63.5122Z" fill="#F7A125"/>
<path d="M57.8145 63.5122C57.6 63.5122 57.3943 63.5974 57.2427 63.749C57.091 63.9007 57.0059 64.1063 57.0059 64.3208V64.7925C57.0059 65.0069 57.091 65.2126 57.2427 65.3642C57.3943 65.5159 57.6 65.6011 57.8145 65.6011C58.0289 65.6011 58.2346 65.5159 58.3862 65.3642C58.5379 65.2126 58.623 65.0069 58.623 64.7925V64.3208C58.623 64.1063 58.5379 63.9007 58.3862 63.749C58.2346 63.5974 58.0289 63.5122 57.8145 63.5122Z" fill="#F7A125"/>
<path d="M53.9776 7.68152H51.076V5.29199C51.076 4.25547 50.6642 3.26141 49.9313 2.52848C49.1984 1.79554 48.2043 1.38379 47.1678 1.38379C46.1313 1.38379 45.1372 1.79554 44.4043 2.52848C43.6713 3.26141 43.2596 4.25547 43.2596 5.29199V7.68152H21.0233V5.29199C21.0233 4.2376 20.6044 3.2264 19.8588 2.48083C19.1133 1.73526 18.1021 1.31641 17.0477 1.31641C15.9933 1.31641 14.9821 1.73526 14.2365 2.48083C13.4909 3.2264 13.0721 4.2376 13.0721 5.29199V7.68152H10.2446C9.64025 7.67803 9.04127 7.79474 8.48247 8.02485C7.92367 8.25497 7.4162 8.5939 6.98959 9.02193C6.56297 9.44996 6.22573 9.95855 5.99746 10.5181C5.7692 11.0777 5.65448 11.677 5.65998 12.2813V51.9169C5.65998 54.4798 7.68146 56.6014 10.245 56.6014H40.8338V54.9842H10.2452C8.57402 54.9842 7.27717 53.5887 7.27717 51.9171V18.4628H57.0057V33.826H58.6229V12.2815C58.6216 11.6739 58.5002 11.0727 58.2658 10.5122C58.0313 9.95172 57.6884 9.44312 57.2567 9.01564C56.825 8.58815 56.3131 8.25022 55.7503 8.02126C55.1876 7.79231 54.5852 7.67685 53.9776 7.68152ZM44.8768 5.29199C44.8768 4.68438 45.1181 4.10165 45.5478 3.672C45.9774 3.24235 46.5602 3.00098 47.1678 3.00098C47.7754 3.00098 48.3581 3.24235 48.7878 3.672C49.2174 4.10165 49.4588 4.68438 49.4588 5.29199V11.3202H44.8768V5.29199ZM14.6893 5.29199C14.6893 4.66651 14.9377 4.06664 15.38 3.62435C15.8223 3.18207 16.4222 2.93359 17.0477 2.93359C17.6732 2.93359 18.273 3.18207 18.7153 3.62435C19.1576 4.06664 19.4061 4.66651 19.4061 5.29199V11.3202H14.6893V5.29199ZM7.27717 16.8456V12.2811C7.27149 11.8891 7.34426 11.4999 7.49122 11.1365C7.63817 10.773 7.85633 10.4426 8.13286 10.1647C8.40939 9.88686 8.7387 9.66709 9.10143 9.51836C9.46415 9.36963 9.85296 9.29495 10.245 9.29871H13.0721V12.1096C13.0739 12.3273 13.1606 12.5356 13.3137 12.6902C13.4668 12.8448 13.6743 12.9335 13.8919 12.9374H20.1636C20.3854 12.935 20.5979 12.8479 20.7577 12.6941C20.9175 12.5403 21.0125 12.3312 21.0233 12.1096V9.29871H43.2596V12.1096C43.2567 12.3251 43.339 12.5329 43.4886 12.688C43.6383 12.843 43.8431 12.9326 44.0585 12.9374H50.3301C50.7767 12.9374 51.076 12.5563 51.076 12.1096V9.29871H53.9774C54.3726 9.29376 54.7649 9.36719 55.1315 9.51476C55.4982 9.66233 55.832 9.88111 56.1136 10.1585C56.3952 10.4358 56.619 10.7662 56.7721 11.1306C56.9252 11.495 57.0046 11.8861 57.0057 12.2813V16.8456H7.27717Z" fill="#801C1C"/>
<path d="M23.4185 22.3979C22.9527 22.3977 22.4973 22.5357 22.1099 22.7943C21.7224 23.0529 21.4204 23.4207 21.242 23.851C21.0636 24.2813 21.0168 24.7548 21.1075 25.2117C21.1983 25.6686 21.4225 26.0883 21.7518 26.4178C22.0811 26.7473 22.5007 26.9717 22.9575 27.0627C23.4144 27.1536 23.8879 27.1071 24.3183 26.9289C24.7487 26.7507 25.1166 26.4489 25.3754 26.0616C25.6343 25.6743 25.7724 25.2189 25.7725 24.7531C25.7719 24.1289 25.5237 23.5303 25.0825 23.0888C24.6412 22.6473 24.0428 22.3988 23.4185 22.3979ZM23.4185 25.4908C23.2725 25.491 23.1298 25.4479 23.0083 25.367C22.8868 25.286 22.7921 25.1709 22.7361 25.0361C22.6801 24.9012 22.6653 24.7528 22.6937 24.6096C22.722 24.4664 22.7922 24.3349 22.8954 24.2316C22.9985 24.1283 23.13 24.0579 23.2732 24.0294C23.4163 24.0008 23.5648 24.0154 23.6996 24.0712C23.8345 24.1271 23.9498 24.2217 24.0309 24.343C24.112 24.4644 24.1553 24.6071 24.1553 24.7531C24.1552 24.9486 24.0775 25.136 23.9394 25.2743C23.8013 25.4126 23.614 25.4905 23.4185 25.4908Z" fill="#801C1C"/>
<path d="M32.1112 22.3979C31.6454 22.3977 31.19 22.5357 30.8025 22.7943C30.4151 23.0529 30.1131 23.4207 29.9347 23.851C29.7563 24.2813 29.7095 24.7548 29.8002 25.2117C29.8909 25.6686 30.1151 26.0883 30.4444 26.4178C30.7737 26.7473 31.1934 26.9717 31.6502 27.0627C32.1071 27.1536 32.5806 27.1071 33.011 26.9289C33.4414 26.7507 33.8093 26.4489 34.0681 26.0616C34.327 25.6743 34.4651 25.2189 34.4652 24.7531C34.4646 24.1289 34.2164 23.5303 33.7751 23.0888C33.3338 22.6473 32.7354 22.3988 32.1112 22.3979ZM32.1112 25.4908C31.9652 25.491 31.8225 25.4479 31.701 25.367C31.5795 25.286 31.4848 25.1709 31.4287 25.0361C31.3727 24.9012 31.358 24.7528 31.3863 24.6096C31.4147 24.4664 31.4849 24.3349 31.5881 24.2316C31.6912 24.1283 31.8227 24.0579 31.9659 24.0294C32.109 24.0008 32.2574 24.0154 32.3923 24.0712C32.5272 24.1271 32.6425 24.2217 32.7236 24.343C32.8047 24.4644 32.848 24.6071 32.848 24.7531C32.8479 24.9486 32.7702 25.136 32.6321 25.2743C32.494 25.4126 32.3067 25.4905 32.1112 25.4908Z" fill="#801C1C"/>
<path d="M40.8039 22.3979C40.3381 22.3977 39.8826 22.5357 39.4952 22.7943C39.1078 23.0529 38.8058 23.4207 38.6274 23.851C38.449 24.2813 38.4022 24.7548 38.4929 25.2117C38.5836 25.6686 38.8078 26.0883 39.1371 26.4178C39.4664 26.7473 39.886 26.9717 40.3429 27.0627C40.7997 27.1536 41.2733 27.1071 41.7037 26.9289C42.1341 26.7507 42.502 26.4489 42.7608 26.0616C43.0196 25.6743 43.1578 25.2189 43.1578 24.7531C43.1573 24.1289 42.9091 23.5303 42.4678 23.0888C42.0265 22.6473 41.4281 22.3988 40.8039 22.3979ZM40.8039 25.4908C40.6579 25.491 40.5151 25.4479 40.3937 25.367C40.2722 25.286 40.1774 25.1709 40.1214 25.0361C40.0654 24.9012 40.0507 24.7528 40.079 24.6096C40.1074 24.4664 40.1776 24.3349 40.2807 24.2316C40.3839 24.1283 40.5154 24.0579 40.6586 24.0294C40.8017 24.0008 40.9501 24.0154 41.085 24.0712C41.2199 24.1271 41.3352 24.2217 41.4163 24.343C41.4974 24.4644 41.5407 24.6071 41.5407 24.7531C41.5405 24.9486 41.4629 25.136 41.3248 25.2743C41.1867 25.4126 40.9993 25.4905 40.8039 25.4908Z" fill="#801C1C"/>
<path d="M49.4973 22.3979C49.0315 22.3977 48.5761 22.5357 48.1886 22.7943C47.8012 23.0529 47.4992 23.4207 47.3208 23.851C47.1424 24.2813 47.0956 24.7548 47.1863 25.2117C47.2771 25.6686 47.5012 26.0883 47.8305 26.4178C48.1599 26.7473 48.5795 26.9717 49.0363 27.0627C49.4932 27.1536 49.9667 27.1071 50.3971 26.9289C50.8275 26.7507 51.1954 26.4489 51.4542 26.0616C51.7131 25.6743 51.8512 25.2189 51.8513 24.7531C51.8507 24.1289 51.6025 23.5303 51.1613 23.0888C50.72 22.6473 50.1216 22.3988 49.4973 22.3979ZM49.4973 25.4908C49.3513 25.491 49.2086 25.4479 49.0871 25.367C48.9656 25.286 48.8709 25.1709 48.8149 25.0361C48.7588 24.9012 48.7441 24.7528 48.7725 24.6096C48.8008 24.4664 48.871 24.3349 48.9742 24.2316C49.0773 24.1283 49.2088 24.0579 49.352 24.0294C49.4951 24.0008 49.6436 24.0154 49.7784 24.0712C49.9133 24.1271 50.0286 24.2217 50.1097 24.343C50.1908 24.4644 50.2341 24.6071 50.2341 24.7531C50.234 24.9486 50.1563 25.136 50.0182 25.2743C49.8801 25.4126 49.6928 25.4905 49.4973 25.4908Z" fill="#801C1C"/>
<path d="M14.725 29.647C14.2592 29.6468 13.8038 29.7847 13.4164 30.0433C13.0289 30.302 12.7269 30.6697 12.5485 31.1C12.3701 31.5303 12.3233 32.0039 12.414 32.4608C12.5048 32.9177 12.729 33.3374 13.0583 33.6669C13.3876 33.9963 13.8073 34.2207 14.2641 34.3117C14.721 34.4027 15.1946 34.3561 15.6249 34.1779C16.0553 33.9997 16.4232 33.6978 16.682 33.3105C16.9408 32.9232 17.079 32.4678 17.079 32.002C17.0784 31.3778 16.8303 30.7793 16.389 30.3378C15.9477 29.8963 15.3493 29.6478 14.725 29.647ZM14.725 32.7398C14.5791 32.7401 14.4363 32.697 14.3148 32.616C14.1933 32.5351 14.0986 32.4199 14.0426 32.2851C13.9866 32.1503 13.9718 32.0019 14.0002 31.8587C14.0285 31.7155 14.0987 31.5839 14.2018 31.4806C14.305 31.3774 14.4365 31.307 14.5796 31.2784C14.7228 31.2499 14.8712 31.2644 15.0061 31.3202C15.141 31.376 15.2563 31.4706 15.3374 31.592C15.4185 31.7133 15.4618 31.856 15.4618 32.002C15.4617 32.1975 15.3841 32.3849 15.246 32.5233C15.1079 32.6616 14.9205 32.7395 14.725 32.7398Z" fill="#801C1C"/>
<path d="M23.4185 29.647C22.9527 29.6468 22.4973 29.7847 22.1098 30.0433C21.7224 30.302 21.4204 30.6697 21.242 31.1C21.0636 31.5303 21.0168 32.0039 21.1075 32.4608C21.1983 32.9177 21.4225 33.3374 21.7518 33.6669C22.0811 33.9963 22.5007 34.2207 22.9576 34.3117C23.4145 34.4027 23.888 34.3561 24.3184 34.1779C24.7488 33.9997 25.1167 33.6978 25.3755 33.3105C25.6343 32.9232 25.7725 32.4678 25.7725 32.002C25.7719 31.3778 25.5237 30.7793 25.0824 30.3378C24.6411 29.8963 24.0427 29.6478 23.4185 29.647ZM23.4185 32.7398C23.2725 32.7401 23.1298 32.697 23.0083 32.616C22.8868 32.5351 22.7921 32.4199 22.7361 32.2851C22.6801 32.1503 22.6653 32.0019 22.6936 31.8587C22.722 31.7155 22.7922 31.5839 22.8953 31.4806C22.9985 31.3774 23.1299 31.307 23.2731 31.2784C23.4163 31.2499 23.5647 31.2644 23.6995 31.3202C23.8344 31.376 23.9497 31.4706 24.0309 31.592C24.112 31.7133 24.1553 31.856 24.1553 32.002C24.1552 32.1975 24.0776 32.3849 23.9395 32.5233C23.8013 32.6616 23.614 32.7395 23.4185 32.7398Z" fill="#801C1C"/>
<path d="M32.1112 29.647C31.6454 29.6468 31.1899 29.7847 30.8025 30.0433C30.4151 30.302 30.1131 30.6697 29.9347 31.1C29.7563 31.5303 29.7095 32.0039 29.8002 32.4608C29.891 32.9177 30.1152 33.3374 30.4445 33.6669C30.7738 33.9963 31.1934 34.2207 31.6503 34.3117C32.1071 34.4027 32.5807 34.3561 33.0111 34.1779C33.4415 33.9997 33.8094 33.6978 34.0682 33.3105C34.327 32.9232 34.4651 32.4678 34.4651 32.002C34.4646 31.3778 34.2164 30.7793 33.7751 30.3378C33.3338 29.8963 32.7354 29.6478 32.1112 29.647ZM32.1112 32.7398C31.9652 32.7401 31.8225 32.697 31.701 32.616C31.5795 32.5351 31.4848 32.4199 31.4288 32.2851C31.3727 32.1503 31.358 32.0019 31.3863 31.8587C31.4147 31.7155 31.4849 31.5839 31.588 31.4806C31.6912 31.3774 31.8226 31.307 31.9658 31.2784C32.1089 31.2499 32.2573 31.2644 32.3922 31.3202C32.5271 31.376 32.6424 31.4706 32.7235 31.592C32.8047 31.7133 32.848 31.856 32.848 32.002C32.8479 32.1975 32.7703 32.3849 32.6322 32.5233C32.494 32.6616 32.3067 32.7395 32.1112 32.7398Z" fill="#801C1C"/>
<path d="M40.8039 29.647C40.3381 29.6468 39.8826 29.7847 39.4952 30.0433C39.1078 30.302 38.8058 30.6697 38.6274 31.1C38.449 31.5303 38.4022 32.0039 38.4929 32.4608C38.5837 32.9177 38.8079 33.3374 39.1372 33.6669C39.4665 33.9963 39.8861 34.2207 40.343 34.3117C40.7998 34.4027 41.2734 34.3561 41.7038 34.1779C42.1342 33.9997 42.5021 33.6978 42.7609 33.3105C43.0197 32.9232 43.1579 32.4678 43.1579 32.002C43.1573 31.3778 42.9091 30.7793 42.4678 30.3378C42.0265 29.8963 41.4281 29.6478 40.8039 29.647ZM40.8039 32.7398C40.6579 32.7401 40.5152 32.697 40.3937 32.616C40.2722 32.5351 40.1775 32.4199 40.1215 32.2851C40.0654 32.1503 40.0507 32.0019 40.079 31.8587C40.1074 31.7155 40.1776 31.5839 40.2807 31.4806C40.3838 31.3774 40.5153 31.307 40.6585 31.2784C40.8016 31.2499 40.95 31.2644 41.0849 31.3202C41.2198 31.376 41.3351 31.4706 41.4162 31.592C41.4974 31.7133 41.5407 31.856 41.5407 32.002C41.5406 32.1975 41.463 32.3849 41.3249 32.5233C41.1867 32.6616 40.9994 32.7395 40.8039 32.7398Z" fill="#801C1C"/>
<path d="M14.725 36.896C14.2592 36.8958 13.8038 37.0337 13.4164 37.2924C13.029 37.551 12.7269 37.9187 12.5485 38.349C12.3701 38.7793 12.3233 39.2529 12.414 39.7098C12.5048 40.1667 12.729 40.5864 13.0583 40.9159C13.3876 41.2453 13.8072 41.4697 14.264 41.5607C14.7209 41.6517 15.1945 41.6051 15.6248 41.4269C16.0552 41.2487 16.4231 40.9469 16.682 40.5596C16.9408 40.1723 17.079 39.717 17.079 39.2512C17.0784 38.6269 16.8303 38.0284 16.389 37.5869C15.9477 37.1453 15.3493 36.8969 14.725 36.896ZM14.725 39.9889C14.5791 39.9891 14.4363 39.946 14.3148 39.865C14.1933 39.7841 14.0986 39.6689 14.0426 39.5341C13.9866 39.3993 13.9718 39.2509 14.0002 39.1077C14.0285 38.9645 14.0987 38.8329 14.2019 38.7296C14.3051 38.6263 14.4365 38.556 14.5797 38.5274C14.7229 38.4989 14.8713 38.5135 15.0062 38.5693C15.141 38.6251 15.2563 38.7197 15.3374 38.8411C15.4185 38.9625 15.4618 39.1052 15.4618 39.2512C15.4617 39.4466 15.3841 39.6341 15.2459 39.7723C15.1078 39.9106 14.9205 39.9885 14.725 39.9889Z" fill="#801C1C"/>
<path d="M23.4185 36.896C22.9527 36.8958 22.4973 37.0337 22.1099 37.2924C21.7224 37.551 21.4204 37.9187 21.242 38.349C21.0636 38.7793 21.0168 39.2529 21.1075 39.7098C21.1983 40.1667 21.4225 40.5864 21.7518 40.9159C22.0811 41.2453 22.5007 41.4697 22.9575 41.5607C23.4144 41.6517 23.8879 41.6051 24.3183 41.4269C24.7487 41.2487 25.1166 40.9469 25.3754 40.5596C25.6343 40.1723 25.7724 39.717 25.7725 39.2512C25.7719 38.6269 25.5237 38.0284 25.0825 37.5869C24.6412 37.1453 24.0428 36.8969 23.4185 36.896ZM23.4185 39.9889C23.2725 39.9891 23.1298 39.946 23.0083 39.865C22.8868 39.7841 22.7921 39.6689 22.7361 39.5341C22.6801 39.3993 22.6653 39.2509 22.6937 39.1077C22.722 38.9645 22.7922 38.8329 22.8954 38.7296C22.9985 38.6263 23.13 38.556 23.2732 38.5274C23.4163 38.4989 23.5648 38.5135 23.6996 38.5693C23.8345 38.6251 23.9498 38.7197 24.0309 38.8411C24.112 38.9625 24.1553 39.1052 24.1553 39.2512C24.1552 39.4466 24.0775 39.6341 23.9394 39.7723C23.8013 39.9106 23.614 39.9885 23.4185 39.9889Z" fill="#801C1C"/>
<path d="M32.1112 36.896C31.6454 36.8958 31.19 37.0337 30.8025 37.2924C30.4151 37.551 30.1131 37.9187 29.9347 38.349C29.7563 38.7793 29.7095 39.2529 29.8002 39.7098C29.8909 40.1667 30.1151 40.5864 30.4444 40.9159C30.7737 41.2453 31.1934 41.4697 31.6502 41.5607C32.1071 41.6517 32.5806 41.6051 33.011 41.4269C33.4414 41.2487 33.8093 40.9469 34.0681 40.5596C34.327 40.1723 34.4651 39.717 34.4652 39.2512C34.4646 38.6269 34.2164 38.0284 33.7751 37.5869C33.3338 37.1453 32.7354 36.8969 32.1112 36.896ZM32.1112 39.9889C31.9652 39.9891 31.8225 39.946 31.701 39.865C31.5795 39.7841 31.4848 39.6689 31.4287 39.5341C31.3727 39.3993 31.358 39.2509 31.3863 39.1077C31.4147 38.9645 31.4849 38.8329 31.5881 38.7296C31.6912 38.6263 31.8227 38.556 31.9659 38.5274C32.109 38.4989 32.2574 38.5135 32.3923 38.5693C32.5272 38.6251 32.6425 38.7197 32.7236 38.8411C32.8047 38.9625 32.848 39.1052 32.848 39.2512C32.8479 39.4466 32.7702 39.6341 32.6321 39.7723C32.494 39.9106 32.3067 39.9885 32.1112 39.9889Z" fill="#801C1C"/>
<path d="M14.7252 44.145C14.2594 44.1448 13.8039 44.2827 13.4164 44.5414C13.029 44.8 12.7269 45.1678 12.5485 45.5981C12.37 46.0284 12.3232 46.502 12.414 46.959C12.5047 47.4159 12.729 47.8357 13.0583 48.1652C13.3876 48.4946 13.8073 48.7191 14.2642 48.81C14.7211 48.901 15.1947 48.8544 15.6251 48.6762C16.0555 48.4979 16.4234 48.196 16.6823 47.8087C16.9411 47.4213 17.0792 46.9659 17.0792 46.5001C17.0786 45.8758 16.8305 45.2773 16.3892 44.8358C15.9479 44.3943 15.3495 44.1459 14.7252 44.145ZM14.7252 47.238C14.5792 47.2383 14.4364 47.1952 14.3149 47.1142C14.1934 47.0333 14.0986 46.9181 14.0426 46.7833C13.9865 46.6485 13.9717 46.5001 14.0001 46.3568C14.0284 46.2136 14.0986 46.082 14.2018 45.9787C14.3049 45.8753 14.4364 45.8049 14.5796 45.7763C14.7228 45.7478 14.8712 45.7623 15.0062 45.8181C15.1411 45.874 15.2564 45.9685 15.3375 46.0899C15.4187 46.2113 15.462 46.354 15.462 46.5001C15.4619 46.6955 15.3843 46.883 15.2462 47.0214C15.1081 47.1597 14.9207 47.2376 14.7252 47.238Z" fill="#801C1C"/>
<path d="M23.418 44.145C22.9521 44.1448 22.4966 44.2827 22.1092 44.5414C21.7217 44.8 21.4196 45.1678 21.2412 45.5981C21.0628 46.0284 21.016 46.502 21.1067 46.959C21.1974 47.4159 21.4217 47.8357 21.751 48.1652C22.0804 48.4946 22.5 48.7191 22.9569 48.81C23.4138 48.901 23.8874 48.8544 24.3178 48.6762C24.7483 48.4979 25.1161 48.196 25.375 47.8087C25.6338 47.4213 25.7719 46.9659 25.7719 46.5001C25.7713 45.8758 25.5232 45.2773 25.0819 44.8358C24.6406 44.3943 24.0422 44.1459 23.418 44.145ZM23.418 47.238C23.272 47.2383 23.1292 47.1952 23.0076 47.1142C22.8861 47.0333 22.7913 46.9181 22.7353 46.7833C22.6793 46.6485 22.6645 46.5001 22.6928 46.3568C22.7211 46.2136 22.7913 46.082 22.8945 45.9787C22.9977 45.8753 23.1291 45.8049 23.2723 45.7763C23.4155 45.7478 23.564 45.7623 23.6989 45.8181C23.8338 45.874 23.9491 45.9685 24.0303 46.0899C24.1114 46.2113 24.1547 46.354 24.1547 46.5001C24.1547 46.6955 24.077 46.883 23.9389 47.0214C23.8008 47.1597 23.6135 47.2376 23.418 47.238Z" fill="#801C1C"/>
<path d="M32.1114 44.145C31.6455 44.1448 31.19 44.2827 30.8026 44.5414C30.4151 44.8 30.1131 45.1678 29.9346 45.5981C29.7562 46.0284 29.7094 46.502 29.8001 46.959C29.8909 47.4159 30.1151 47.8357 30.4444 48.1652C30.7738 48.4946 31.1934 48.7191 31.6503 48.81C32.1072 48.901 32.5808 48.8544 33.0113 48.6762C33.4417 48.4979 33.8096 48.196 34.0684 47.8087C34.3272 47.4213 34.4654 46.9659 34.4653 46.5001C34.4648 45.8758 34.2166 45.2773 33.7753 44.8358C33.334 44.3943 32.7356 44.1459 32.1114 44.145ZM32.1114 47.238C31.9654 47.2383 31.8226 47.1952 31.7011 47.1142C31.5795 47.0333 31.4848 46.9181 31.4287 46.7833C31.3727 46.6485 31.3579 46.5001 31.3862 46.3568C31.4146 46.2136 31.4848 46.082 31.5879 45.9787C31.6911 45.8753 31.8226 45.8049 31.9658 45.7763C32.1089 45.7478 32.2574 45.7623 32.3923 45.8181C32.5272 45.874 32.6425 45.9685 32.7237 46.0899C32.8048 46.2113 32.8481 46.354 32.8481 46.5001C32.8481 46.6955 32.7705 46.883 32.6323 47.0214C32.4942 47.1597 32.3069 47.2376 32.1114 47.238Z" fill="#801C1C"/>
<path d="M10.7812 21.3154C10.7812 21.101 10.6961 20.8953 10.5444 20.7437C10.3928 20.592 10.1871 20.5068 9.97266 20.5068C9.7582 20.5068 9.55254 20.592 9.40089 20.7437C9.24925 20.8953 9.16406 21.101 9.16406 21.3154V21.7176C9.16406 21.932 9.24925 22.1377 9.40089 22.2893C9.55254 22.441 9.7582 22.5262 9.97266 22.5262C10.1871 22.5262 10.3928 22.441 10.5444 22.2893C10.6961 22.1377 10.7812 21.932 10.7812 21.7176V21.3154Z" fill="#801C1C"/>
<path d="M9.97266 23.5117C9.7582 23.5117 9.55254 23.5969 9.40089 23.7485C9.24925 23.9002 9.16406 24.1059 9.16406 24.3203V36.0003C9.16406 36.2148 9.24925 36.4204 9.40089 36.5721C9.55254 36.7237 9.7582 36.8089 9.97266 36.8089C10.1871 36.8089 10.3928 36.7237 10.5444 36.5721C10.6961 36.4204 10.7812 36.2148 10.7812 36.0003V24.3203C10.7812 24.1059 10.6961 23.9002 10.5444 23.7485C10.3928 23.5969 10.1871 23.5117 9.97266 23.5117Z" fill="#801C1C"/>
<path d="M61.0689 52.2889H57.2191C59.4332 51.071 61.1794 49.1513 62.1827 46.8319C63.1859 44.5125 63.3891 41.9254 62.7604 39.4778C62.1317 37.0302 60.7067 34.8613 58.7099 33.3126C56.7131 31.7639 54.2578 30.9233 51.7308 30.9233C49.2038 30.9233 46.7485 31.7639 44.7517 33.3126C42.7549 34.8613 41.3299 37.0302 40.7012 39.4778C40.0725 41.9254 40.2757 44.5125 41.2789 46.8319C42.2822 49.1513 44.0283 51.071 46.2425 52.2889H42.3927C41.7683 52.2932 41.1705 52.5423 40.7278 52.9827C40.2851 53.4231 40.0329 54.0196 40.0254 54.644V56.1688C40.0254 56.7294 40.2283 57.2711 40.5967 57.6937C40.2283 58.1164 40.0254 58.6581 40.0254 59.2187V60.7437C40.0254 61.3044 40.2283 61.8461 40.5967 62.2687C40.2283 62.6914 40.0254 63.233 40.0254 63.7936V65.3187C40.0338 65.9409 40.2869 66.5347 40.73 66.9714C41.1731 67.4082 41.7705 67.6528 42.3927 67.6522H61.0689C62.3561 67.6522 63.3398 66.6054 63.3398 65.3187V63.7936C63.3398 63.233 63.1369 62.6914 62.7686 62.2687C63.1369 61.8461 63.3398 61.3044 63.3398 60.7437V59.2187C63.3398 58.6581 63.1369 58.1164 62.7686 57.6937C63.1369 57.2711 63.3398 56.7294 63.3398 56.1688V54.644C63.3398 53.3572 62.3561 52.2889 61.0689 52.2889ZM45.6451 48.4212C45.57 48.3461 45.4809 48.2865 45.3828 48.2458C45.2847 48.2052 45.1795 48.1843 45.0733 48.1843C44.9671 48.1843 44.862 48.2052 44.7638 48.2458C44.6657 48.2865 44.5766 48.3461 44.5015 48.4212L44.2859 48.6273C42.9584 47.0834 42.1597 45.1553 42.0064 43.1249H42.3164C42.5309 43.1249 42.7365 43.0397 42.8882 42.888C43.0398 42.7364 43.125 42.5307 43.125 42.3163C43.125 42.1018 43.0398 41.8962 42.8882 41.7445C42.7365 41.5929 42.5309 41.5077 42.3164 41.5077H42.0064C42.1854 39.4895 42.9811 37.5752 44.2856 36.0249L44.5012 36.2459C44.5761 36.321 44.6649 36.3806 44.7628 36.4214C44.8607 36.4622 44.9656 36.4832 45.0716 36.4834C45.1777 36.4836 45.2827 36.463 45.3807 36.4226C45.4787 36.3822 45.5679 36.3229 45.643 36.2481C45.7181 36.1732 45.7777 36.0843 45.8185 35.9865C45.8592 35.8886 45.8803 35.7837 45.8805 35.6776C45.8807 35.5716 45.86 35.4666 45.8196 35.3686C45.7792 35.2705 45.7199 35.1814 45.6451 35.1063L45.4387 34.8907C46.9827 33.5634 48.911 32.765 50.9414 32.6123V32.9223C50.9414 33.1368 51.0266 33.3424 51.1782 33.4941C51.3299 33.6457 51.5355 33.7309 51.75 33.7309C51.9645 33.7309 52.1701 33.6457 52.3218 33.4941C52.4734 33.3424 52.5586 33.1368 52.5586 32.9223V32.6123C54.5769 32.791 56.4913 33.5864 58.0418 34.8907L57.8208 35.1063C57.7448 35.1809 57.6844 35.2699 57.643 35.3679C57.6015 35.466 57.5799 35.5713 57.5794 35.6778C57.5788 35.7843 57.5993 35.8898 57.6397 35.9883C57.6801 36.0868 57.7396 36.1764 57.8148 36.2518C57.8899 36.3272 57.9793 36.387 58.0776 36.4277C58.176 36.4685 58.2815 36.4893 58.3879 36.4891C58.4944 36.4889 58.5998 36.4677 58.698 36.4266C58.7962 36.3855 58.8854 36.3254 58.9602 36.2497L59.1759 36.0237C60.4805 37.5743 61.2762 39.4891 61.4547 41.5077H61.1448C60.9303 41.5077 60.7247 41.5929 60.573 41.7445C60.4214 41.8962 60.3362 42.1018 60.3362 42.3163C60.3362 42.5307 60.4214 42.7364 60.573 42.888C60.7247 43.0397 60.9303 43.1249 61.1448 43.1249H61.4547C61.3016 45.1553 60.5029 47.0835 59.1756 48.6276L58.96 48.4164C58.8846 48.3414 58.7952 48.2819 58.6969 48.2413C58.5986 48.2008 58.4932 48.18 58.3868 48.1802C58.172 48.1806 57.9662 48.2662 57.8145 48.4184C57.6629 48.5706 57.5779 48.7767 57.5783 48.9915C57.5786 49.2063 57.6643 49.4122 57.8165 49.5638L58.0421 49.7804C56.4916 51.0851 54.5771 51.881 52.5586 52.0598V51.7499C52.5586 51.5354 52.4734 51.3297 52.3218 51.1781C52.1701 51.0265 51.9645 50.9413 51.75 50.9413C51.5355 50.9413 51.3299 51.0265 51.1782 51.1781C51.0266 51.3297 50.9414 51.5354 50.9414 51.7499V52.0598C48.9111 51.9068 46.983 51.1082 45.4391 49.7808L45.6504 49.5652C45.7252 49.4897 45.7844 49.4003 45.8246 49.302C45.8649 49.2036 45.8853 49.0983 45.8848 48.9921C45.8843 48.8858 45.8629 48.7807 45.8218 48.6828C45.7807 48.5848 45.7206 48.4959 45.6451 48.4212ZM61.7227 56.1545C61.7227 56.3446 61.6472 56.5268 61.5128 56.6611C61.3785 56.7955 61.1962 56.871 61.0062 56.871H42.359C42.169 56.871 41.9868 56.7955 41.8524 56.6611C41.7181 56.5268 41.6426 56.3446 41.6426 56.1545V54.6225C41.6426 54.4325 41.7181 54.2503 41.8524 54.1159C41.9868 53.9816 42.169 53.9061 42.359 53.9061H61.0062C61.1962 53.9061 61.3785 53.9816 61.5128 54.1159C61.6472 54.2503 61.7227 54.4325 61.7227 54.6225V56.1545ZM61.7227 60.7366C61.7227 60.9266 61.6472 61.1088 61.5128 61.2432C61.3785 61.3775 61.1962 61.453 61.0062 61.453H42.359C42.169 61.453 41.9868 61.3775 41.8525 61.2432C41.7181 61.1089 41.6426 60.9267 41.6426 60.7367V59.2044C41.6426 59.0144 41.7181 58.8323 41.8525 58.6979C41.9868 58.5636 42.169 58.4881 42.359 58.4881H61.0062C61.1962 58.4881 61.3784 58.5636 61.5128 58.6979C61.6471 58.8323 61.7226 59.0144 61.7227 59.2044V60.7366ZM61.7227 65.3186C61.7227 65.5086 61.6472 65.6908 61.5128 65.8252C61.3785 65.9595 61.1962 66.035 61.0062 66.035H42.359C42.169 66.035 41.9868 65.9596 41.8525 65.8252C41.7181 65.6909 41.6426 65.5087 41.6426 65.3187V63.7865C41.6426 63.5965 41.7181 63.4143 41.8525 63.28C41.9868 63.1456 42.169 63.0702 42.359 63.0702H61.0062C61.1962 63.0702 61.3784 63.1456 61.5128 63.28C61.6471 63.4143 61.7226 63.5965 61.7227 63.7865V65.3186Z" fill="#F7A125"/>
</svg>
