<svg width="69" height="69" viewBox="0 0 69 69" fill="none" xmlns="http://www.w3.org/2000/svg">
    <g id="calendar">
        <g id="stamp-inner-dot">
            <path id="Vector" d="M60.0435 42.3362C60.0435 40.6921 59.556 39.0849 58.6425 37.7178C57.7291 36.3508 56.4308 35.2853 54.9118 34.6561C53.3928 34.0269 51.7214 33.8623 50.1088 34.183C48.4963 34.5038 47.0151 35.2955 45.8525 36.4581C44.6899 37.6207 43.8982 39.1019 43.5775 40.7144C43.2567 42.327 43.4213 43.9984 44.0505 45.5174C44.6797 47.0364 45.7452 48.3347 47.1122 49.2481C48.4793 50.1615 50.0865 50.6491 51.7306 50.6491C53.9346 50.6466 56.0475 49.77 57.606 48.2115C59.1644 46.6531 60.041 44.5401 60.0435 42.3362ZM45.0349 42.3362C45.0349 41.0119 45.4276 39.7174 46.1633 38.6163C46.8991 37.5152 47.9448 36.657 49.1683 36.1502C50.3918 35.6434 51.738 35.5108 53.0369 35.7692C54.3357 36.0275 55.5288 36.6652 56.4652 37.6016C57.4016 38.538 58.0393 39.7311 58.2977 41.0299C58.556 42.3288 58.4234 43.6751 57.9166 44.8985C57.4099 46.122 56.5516 47.1677 55.4505 47.9035C54.3494 48.6392 53.0549 49.0319 51.7306 49.0319C49.9554 49.0299 48.2535 48.3238 46.9982 47.0686C45.743 45.8133 45.0369 44.1114 45.0349 42.3362Z" fill="#F7A125"/>
            <path id="Vector_2" d="M50.5371 56.4507C50.7516 56.4507 50.9572 56.3655 51.1089 56.2138C51.2605 56.0622 51.3457 55.8565 51.3457 55.6421V55.1704C51.3457 54.956 51.2605 54.7503 51.1089 54.5986C50.9572 54.447 50.7516 54.3618 50.5371 54.3618C50.3227 54.3618 50.117 54.447 49.9653 54.5986C49.8137 54.7503 49.7285 54.956 49.7285 55.1704V55.6421C49.7285 55.8565 49.8137 56.0622 49.9653 56.2138C50.117 56.3655 50.3227 56.4507 50.5371 56.4507Z" fill="#F7A125"/>
            <path id="Vector_3" d="M48.1113 56.4507C48.3258 56.4507 48.5315 56.3655 48.6831 56.2138C48.8347 56.0622 48.9199 55.8565 48.9199 55.6421V55.1704C48.9199 54.956 48.8347 54.7503 48.6831 54.5986C48.5315 54.447 48.3258 54.3618 48.1113 54.3618C47.8969 54.3618 47.6912 54.447 47.5396 54.5986C47.3879 54.7503 47.3027 54.956 47.3027 55.1704V55.6421C47.3027 55.8565 47.3879 56.0622 47.5396 56.2138C47.6912 56.3655 47.8969 56.4507 48.1113 56.4507Z" fill="#F7A125"/>
            <path id="Vector_4" d="M45.6855 56.4507C45.9 56.4507 46.1057 56.3655 46.2573 56.2138C46.409 56.0622 46.4941 55.8565 46.4941 55.6421V55.1704C46.4941 54.956 46.409 54.7503 46.2573 54.5986C46.1057 54.447 45.9 54.3618 45.6855 54.3618C45.4711 54.3618 45.2654 54.447 45.1138 54.5986C44.9621 54.7503 44.877 54.956 44.877 55.1704V55.6421C44.877 55.8565 44.9621 56.0622 45.1138 56.2138C45.2654 56.3655 45.4711 56.4507 45.6855 56.4507Z" fill="#F7A125"/>
            <path id="Vector_5" d="M43.2598 56.4507C43.4742 56.4507 43.6799 56.3655 43.8315 56.2138C43.9832 56.0622 44.0684 55.8565 44.0684 55.6421V55.1704C44.0684 54.956 43.9832 54.7503 43.8315 54.5986C43.6799 54.447 43.4742 54.3618 43.2598 54.3618C43.0453 54.3618 42.8396 54.447 42.688 54.5986C42.5364 54.7503 42.4512 54.956 42.4512 55.1704V55.6421C42.4512 55.8565 42.5364 56.0622 42.688 56.2138C42.8396 56.3655 43.0453 56.4507 43.2598 56.4507Z" fill="#F7A125"/>
            <path id="Vector_6" d="M55.3887 56.4507C55.6031 56.4507 55.8088 56.3655 55.9604 56.2138C56.1121 56.0622 56.1973 55.8565 56.1973 55.6421V55.1704C56.1973 54.956 56.1121 54.7503 55.9604 54.5986C55.8088 54.447 55.6031 54.3618 55.3887 54.3618C55.1742 54.3618 54.9685 54.447 54.8169 54.5986C54.6653 54.7503 54.5801 54.956 54.5801 55.1704V55.6421C54.5801 55.8565 54.6653 56.0622 54.8169 56.2138C54.9685 56.3655 55.1742 56.4507 55.3887 56.4507Z" fill="#F7A125"/>
            <path id="Vector_7" d="M52.9629 56.4507C53.1773 56.4507 53.383 56.3655 53.5347 56.2138C53.6863 56.0622 53.7715 55.8565 53.7715 55.6421V55.1704C53.7715 54.956 53.6863 54.7503 53.5347 54.5986C53.383 54.447 53.1773 54.3618 52.9629 54.3618C52.7484 54.3618 52.5428 54.447 52.3911 54.5986C52.2395 54.7503 52.1543 54.956 52.1543 55.1704V55.6421C52.1543 55.8565 52.2395 56.0622 52.3911 56.2138C52.5428 56.3655 52.7484 56.4507 52.9629 56.4507Z" fill="#F7A125"/>
            <path id="Vector_8" d="M60.2402 56.4507C60.4547 56.4507 60.6604 56.3655 60.812 56.2138C60.9636 56.0622 61.0488 55.8565 61.0488 55.6421V55.1704C61.0488 54.956 60.9636 54.7503 60.812 54.5986C60.6604 54.447 60.4547 54.3618 60.2402 54.3618C60.0258 54.3618 59.8201 54.447 59.6685 54.5986C59.5168 54.7503 59.4316 54.956 59.4316 55.1704V55.6421C59.4316 55.8565 59.5168 56.0622 59.6685 56.2138C59.8201 56.3655 60.0258 56.4507 60.2402 56.4507Z" fill="#F7A125"/>
            <path id="Vector_9" d="M57.8145 56.4507C58.0289 56.4507 58.2346 56.3655 58.3862 56.2138C58.5379 56.0622 58.623 55.8565 58.623 55.6421V55.1704C58.623 54.956 58.5379 54.7503 58.3862 54.5986C58.2346 54.447 58.0289 54.3618 57.8145 54.3618C57.6 54.3618 57.3943 54.447 57.2427 54.5986C57.091 54.7503 57.0059 54.956 57.0059 55.1704V55.6421C57.0059 55.8565 57.091 56.0622 57.2427 56.2138C57.3943 56.3655 57.6 56.4507 57.8145 56.4507Z" fill="#F7A125"/>
            <path id="Vector_10" d="M50.5371 61.0258C50.7516 61.0258 50.9572 60.9406 51.1089 60.7889C51.2605 60.6373 51.3457 60.4316 51.3457 60.2172V59.7455C51.3457 59.531 51.2605 59.3254 51.1089 59.1737C50.9572 59.0221 50.7516 58.9369 50.5371 58.9369C50.3227 58.9369 50.117 59.0221 49.9653 59.1737C49.8137 59.3254 49.7285 59.531 49.7285 59.7455V60.2172C49.7285 60.4316 49.8137 60.6373 49.9653 60.7889C50.117 60.9406 50.3227 61.0258 50.5371 61.0258Z" fill="#F7A125"/>
            <path id="Vector_11" d="M48.1113 61.0258C48.3258 61.0258 48.5315 60.9406 48.6831 60.7889C48.8347 60.6373 48.9199 60.4316 48.9199 60.2172V59.7455C48.9199 59.531 48.8347 59.3254 48.6831 59.1737C48.5315 59.0221 48.3258 58.9369 48.1113 58.9369C47.8969 58.9369 47.6912 59.0221 47.5396 59.1737C47.3879 59.3254 47.3027 59.531 47.3027 59.7455V60.2172C47.3027 60.4316 47.3879 60.6373 47.5396 60.7889C47.6912 60.9406 47.8969 61.0258 48.1113 61.0258Z" fill="#F7A125"/>
            <path id="Vector_12" d="M45.6855 61.0258C45.9 61.0258 46.1057 60.9406 46.2573 60.7889C46.409 60.6373 46.4941 60.4316 46.4941 60.2172V59.7455C46.4941 59.531 46.409 59.3254 46.2573 59.1737C46.1057 59.0221 45.9 58.9369 45.6855 58.9369C45.4711 58.9369 45.2654 59.0221 45.1138 59.1737C44.9621 59.3254 44.877 59.531 44.877 59.7455V60.2172C44.877 60.4316 44.9621 60.6373 45.1138 60.7889C45.2654 60.9406 45.4711 61.0258 45.6855 61.0258Z" fill="#F7A125"/>
            <path id="Vector_13" d="M43.2598 61.0258C43.4742 61.0258 43.6799 60.9406 43.8315 60.7889C43.9832 60.6373 44.0684 60.4316 44.0684 60.2172V59.7455C44.0684 59.531 43.9832 59.3254 43.8315 59.1737C43.6799 59.0221 43.4742 58.9369 43.2598 58.9369C43.0453 58.9369 42.8396 59.0221 42.688 59.1737C42.5364 59.3254 42.4512 59.531 42.4512 59.7455V60.2172C42.4512 60.4316 42.5364 60.6373 42.688 60.7889C42.8396 60.9406 43.0453 61.0258 43.2598 61.0258Z" fill="#F7A125"/>
            <path id="Vector_14" d="M55.3887 61.0258C55.6031 61.0258 55.8088 60.9406 55.9604 60.7889C56.1121 60.6373 56.1973 60.4316 56.1973 60.2172V59.7455C56.1973 59.531 56.1121 59.3254 55.9604 59.1737C55.8088 59.0221 55.6031 58.9369 55.3887 58.9369C55.1742 58.9369 54.9685 59.0221 54.8169 59.1737C54.6653 59.3254 54.5801 59.531 54.5801 59.7455V60.2172C54.5801 60.4316 54.6653 60.6373 54.8169 60.7889C54.9685 60.9406 55.1742 61.0258 55.3887 61.0258Z" fill="#F7A125"/>
            <path id="Vector_15" d="M52.9629 61.0258C53.1773 61.0258 53.383 60.9406 53.5347 60.7889C53.6863 60.6373 53.7715 60.4316 53.7715 60.2172V59.7455C53.7715 59.531 53.6863 59.3254 53.5347 59.1737C53.383 59.0221 53.1773 58.9369 52.9629 58.9369C52.7484 58.9369 52.5428 59.0221 52.3911 59.1737C52.2395 59.3254 52.1543 59.531 52.1543 59.7455V60.2172C52.1543 60.4316 52.2395 60.6373 52.3911 60.7889C52.5428 60.9406 52.7484 61.0258 52.9629 61.0258Z" fill="#F7A125"/>
            <path id="Vector_16" d="M60.2402 61.0258C60.4547 61.0258 60.6604 60.9406 60.812 60.7889C60.9636 60.6373 61.0488 60.4316 61.0488 60.2172V59.7455C61.0488 59.531 60.9636 59.3254 60.812 59.1737C60.6604 59.0221 60.4547 58.9369 60.2402 58.9369C60.0258 58.9369 59.8201 59.0221 59.6685 59.1737C59.5168 59.3254 59.4316 59.531 59.4316 59.7455V60.2172C59.4316 60.4316 59.5168 60.6373 59.6685 60.7889C59.8201 60.9406 60.0258 61.0258 60.2402 61.0258Z" fill="#F7A125"/>
            <path id="Vector_17" d="M57.8145 61.0258C58.0289 61.0258 58.2346 60.9406 58.3862 60.7889C58.5379 60.6373 58.623 60.4316 58.623 60.2172V59.7455C58.623 59.531 58.5379 59.3254 58.3862 59.1737C58.2346 59.0221 58.0289 58.9369 57.8145 58.9369C57.6 58.9369 57.3943 59.0221 57.2427 59.1737C57.091 59.3254 57.0059 59.531 57.0059 59.7455V60.2172C57.0059 60.4316 57.091 60.6373 57.2427 60.7889C57.3943 60.9406 57.6 61.0258 57.8145 61.0258Z" fill="#F7A125"/>
            <path id="Vector_18" d="M50.5371 63.512C50.3227 63.512 50.117 63.5972 49.9653 63.7488C49.8137 63.9004 49.7285 64.1061 49.7285 64.3206V64.7922C49.7285 65.0067 49.8137 65.2124 49.9653 65.364C50.117 65.5156 50.3227 65.6008 50.5371 65.6008C50.7516 65.6008 50.9572 65.5156 51.1089 65.364C51.2605 65.2124 51.3457 65.0067 51.3457 64.7922V64.3206C51.3457 64.1061 51.2605 63.9004 51.1089 63.7488C50.9572 63.5972 50.7516 63.512 50.5371 63.512Z" fill="#F7A125"/>
            <path id="Vector_19" d="M48.1113 63.512C47.8969 63.512 47.6912 63.5972 47.5396 63.7488C47.3879 63.9004 47.3027 64.1061 47.3027 64.3206V64.7922C47.3027 65.0067 47.3879 65.2124 47.5396 65.364C47.6912 65.5156 47.8969 65.6008 48.1113 65.6008C48.3258 65.6008 48.5315 65.5156 48.6831 65.364C48.8347 65.2124 48.9199 65.0067 48.9199 64.7922V64.3206C48.9199 64.1061 48.8347 63.9004 48.6831 63.7488C48.5315 63.5972 48.3258 63.512 48.1113 63.512Z" fill="#F7A125"/>
            <path id="Vector_20" d="M45.6855 63.512C45.4711 63.512 45.2654 63.5972 45.1138 63.7488C44.9621 63.9004 44.877 64.1061 44.877 64.3206V64.7922C44.877 65.0067 44.9621 65.2124 45.1138 65.364C45.2654 65.5156 45.4711 65.6008 45.6855 65.6008C45.9 65.6008 46.1057 65.5156 46.2573 65.364C46.409 65.2124 46.4941 65.0067 46.4941 64.7922V64.3206C46.4941 64.1061 46.409 63.9004 46.2573 63.7488C46.1057 63.5972 45.9 63.512 45.6855 63.512Z" fill="#F7A125"/>
            <path id="Vector_21" d="M43.2598 63.512C43.0453 63.512 42.8396 63.5972 42.688 63.7488C42.5364 63.9004 42.4512 64.1061 42.4512 64.3206V64.7922C42.4512 65.0067 42.5364 65.2124 42.688 65.364C42.8396 65.5156 43.0453 65.6008 43.2598 65.6008C43.4742 65.6008 43.6799 65.5156 43.8315 65.364C43.9832 65.2124 44.0684 65.0067 44.0684 64.7922V64.3206C44.0684 64.1061 43.9832 63.9004 43.8315 63.7488C43.6799 63.5972 43.4742 63.512 43.2598 63.512Z" fill="#F7A125"/>
            <path id="Vector_22" d="M55.3887 63.512C55.1742 63.512 54.9685 63.5972 54.8169 63.7488C54.6653 63.9004 54.5801 64.1061 54.5801 64.3206V64.7922C54.5801 65.0067 54.6653 65.2124 54.8169 65.364C54.9685 65.5156 55.1742 65.6008 55.3887 65.6008C55.6031 65.6008 55.8088 65.5156 55.9604 65.364C56.1121 65.2124 56.1973 65.0067 56.1973 64.7922V64.3206C56.1973 64.1061 56.1121 63.9004 55.9604 63.7488C55.8088 63.5972 55.6031 63.512 55.3887 63.512Z" fill="#F7A125"/>
            <path id="Vector_23" d="M52.9629 63.512C52.7484 63.512 52.5428 63.5972 52.3911 63.7488C52.2395 63.9004 52.1543 64.1061 52.1543 64.3206V64.7922C52.1543 65.0067 52.2395 65.2124 52.3911 65.364C52.5428 65.5156 52.7484 65.6008 52.9629 65.6008C53.1773 65.6008 53.383 65.5156 53.5347 65.364C53.6863 65.2124 53.7715 65.0067 53.7715 64.7922V64.3206C53.7715 64.1061 53.6863 63.9004 53.5347 63.7488C53.383 63.5972 53.1773 63.512 52.9629 63.512Z" fill="#F7A125"/>
            <path id="Vector_24" d="M60.2402 63.512C60.0258 63.512 59.8201 63.5972 59.6685 63.7488C59.5168 63.9004 59.4316 64.1061 59.4316 64.3206V64.7922C59.4316 65.0067 59.5168 65.2124 59.6685 65.364C59.8201 65.5156 60.0258 65.6008 60.2402 65.6008C60.4547 65.6008 60.6604 65.5156 60.812 65.364C60.9636 65.2124 61.0488 65.0067 61.0488 64.7922V64.3206C61.0488 64.1061 60.9636 63.9004 60.812 63.7488C60.6604 63.5972 60.4547 63.512 60.2402 63.512Z" fill="#F7A125"/>
            <path id="Vector_25" d="M57.8145 63.512C57.6 63.512 57.3943 63.5972 57.2427 63.7488C57.091 63.9004 57.0059 64.1061 57.0059 64.3206V64.7922C57.0059 65.0067 57.091 65.2124 57.2427 65.364C57.3943 65.5156 57.6 65.6008 57.8145 65.6008C58.0289 65.6008 58.2346 65.5156 58.3862 65.364C58.5379 65.2124 58.623 65.0067 58.623 64.7922V64.3206C58.623 64.1061 58.5379 63.9004 58.3862 63.7488C58.2346 63.5972 58.0289 63.512 57.8145 63.512Z" fill="#F7A125"/>
        </g>
        <g id="calendar-outer">
            <path id="Vector_26" d="M53.9775 7.68176H51.0759V5.29224C51.0759 4.25572 50.6641 3.26165 49.9312 2.52872C49.1983 1.79579 48.2042 1.38403 47.1677 1.38403C46.1312 1.38403 45.1371 1.79579 44.4042 2.52872C43.6712 3.26165 43.2595 4.25572 43.2595 5.29224V7.68176H21.0231V5.29224C21.0231 4.23784 20.6043 3.22664 19.8587 2.48107C19.1131 1.73551 18.1019 1.31665 17.0476 1.31665C15.9932 1.31665 14.982 1.73551 14.2364 2.48107C13.4908 3.22664 13.072 4.23784 13.072 5.29224V7.68176H10.2444C9.64013 7.67827 9.04115 7.79498 8.48235 8.0251C7.92355 8.25521 7.41608 8.59414 6.98947 9.02218C6.56285 9.45021 6.2256 9.9588 5.99734 10.5184C5.76908 11.0779 5.65436 11.6773 5.65986 12.2816V51.9171C5.65986 54.4801 7.68134 56.6017 10.2449 56.6017H40.8337V54.9845H10.2451C8.57389 54.9845 7.27704 53.589 7.27704 51.9174V18.463H57.0056V33.8263H58.6227V12.2817C58.6215 11.6742 58.5001 11.0729 58.2657 10.5124C58.0312 9.95196 57.6883 9.44336 57.2566 9.01588C56.8249 8.5884 56.313 8.25046 55.7502 8.02151C55.1875 7.79255 54.585 7.67709 53.9775 7.68176ZM44.8767 5.29224C44.8767 4.68462 45.118 4.10189 45.5477 3.67224C45.9773 3.24259 46.5601 3.00122 47.1677 3.00122C47.7753 3.00122 48.358 3.24259 48.7877 3.67224C49.2173 4.10189 49.4587 4.68462 49.4587 5.29224V11.3204H44.8767V5.29224ZM14.6892 5.29224C14.6892 4.66675 14.9376 4.06688 15.3799 3.6246C15.8222 3.18231 16.4221 2.93384 17.0476 2.93384C17.673 2.93384 18.2729 3.18231 18.7152 3.6246C19.1575 4.06688 19.4059 4.66675 19.4059 5.29224V11.3204H14.6892V5.29224ZM7.27704 16.8458V12.2813C7.27137 11.8893 7.34414 11.5002 7.4911 11.1367C7.63805 10.7733 7.85621 10.4429 8.13274 10.165C8.40927 9.8871 8.73858 9.66733 9.10131 9.5186C9.46403 9.36987 9.85284 9.29519 10.2449 9.29895H13.072V12.1099C13.0738 12.3275 13.1605 12.5358 13.3136 12.6904C13.4667 12.845 13.6742 12.9337 13.8917 12.9376H20.1635C20.3853 12.9352 20.5978 12.8482 20.7575 12.6943C20.9173 12.5405 21.0123 12.3314 21.0231 12.1099V9.29895H43.2595V12.1099C43.2566 12.3253 43.3389 12.5332 43.4885 12.6882C43.6381 12.8432 43.843 12.9329 44.0584 12.9376H50.3299C50.7766 12.9376 51.0759 12.5565 51.0759 12.1099V9.29895H53.9772C54.3725 9.294 54.7647 9.36743 55.1314 9.515C55.4981 9.66257 55.8318 9.88136 56.1134 10.1587C56.395 10.4361 56.6189 10.7665 56.772 11.1308C56.9251 11.4952 57.0045 11.8863 57.0056 12.2816V16.8458H7.27704Z" fill="#801C1C"/>
            <path id="Vector_27" d="M23.4186 22.3981C22.9528 22.3979 22.4974 22.5358 22.1099 22.7944C21.7225 23.0531 21.4205 23.4208 21.2421 23.8511C21.0637 24.2814 21.0169 24.7549 21.1076 25.2118C21.1983 25.6687 21.4225 26.0885 21.7518 26.4179C22.0811 26.7474 22.5008 26.9718 22.9576 27.0628C23.4145 27.1538 23.888 27.1072 24.3184 26.929C24.7488 26.7508 25.1167 26.449 25.3755 26.0617C25.6344 25.6744 25.7725 25.2191 25.7726 24.7532C25.772 24.129 25.5238 23.5305 25.0825 23.0889C24.6413 22.6474 24.0429 22.399 23.4186 22.3981ZM23.4186 25.4909C23.2726 25.4912 23.1299 25.4481 23.0084 25.3671C22.8869 25.2862 22.7922 25.171 22.7361 25.0362C22.6801 24.9014 22.6654 24.753 22.6937 24.6098C22.7221 24.4666 22.7923 24.335 22.8955 24.2317C22.9986 24.1284 23.1301 24.058 23.2733 24.0295C23.4164 24.001 23.5648 24.0155 23.6997 24.0714C23.8346 24.1272 23.9499 24.2218 24.031 24.3432C24.1121 24.4645 24.1554 24.6073 24.1554 24.7532C24.1553 24.9487 24.0776 25.1361 23.9395 25.2744C23.8014 25.4127 23.6141 25.4906 23.4186 25.4909Z" fill="#801C1C"/>
            <path id="Vector_28" d="M32.1112 22.3981C31.6454 22.3979 31.19 22.5358 30.8026 22.7944C30.4152 23.0531 30.1131 23.4208 29.9347 23.8511C29.7563 24.2814 29.7095 24.7549 29.8002 25.2118C29.891 25.6687 30.1152 26.0885 30.4445 26.4179C30.7738 26.7474 31.1934 26.9718 31.6502 27.0628C32.1071 27.1538 32.5807 27.1072 33.011 26.929C33.4414 26.7508 33.8093 26.449 34.0681 26.0617C34.327 25.6744 34.4652 25.2191 34.4652 24.7532C34.4646 24.129 34.2165 23.5305 33.7752 23.0889C33.3339 22.6474 32.7355 22.399 32.1112 22.3981ZM32.1112 25.4909C31.9653 25.4912 31.8225 25.4481 31.701 25.3671C31.5795 25.2862 31.4848 25.171 31.4288 25.0362C31.3728 24.9014 31.358 24.753 31.3864 24.6098C31.4147 24.4666 31.4849 24.335 31.5881 24.2317C31.6912 24.1284 31.8227 24.058 31.9659 24.0295C32.1091 24.001 32.2575 24.0155 32.3924 24.0714C32.5272 24.1272 32.6425 24.2218 32.7236 24.3432C32.8047 24.4645 32.848 24.6073 32.848 24.7532C32.8479 24.9487 32.7703 25.1361 32.6321 25.2744C32.494 25.4127 32.3067 25.4906 32.1112 25.4909Z" fill="#801C1C"/>
            <path id="Vector_29" d="M40.8039 22.3981C40.338 22.3979 39.8826 22.5358 39.4952 22.7944C39.1078 23.0531 38.8058 23.4208 38.6273 23.8511C38.4489 24.2814 38.4021 24.7549 38.4929 25.2118C38.5836 25.6687 38.8078 26.0885 39.1371 26.4179C39.4664 26.7474 39.886 26.9718 40.3429 27.0628C40.7997 27.1538 41.2733 27.1072 41.7037 26.929C42.1341 26.7508 42.5019 26.449 42.7608 26.0617C43.0196 25.6744 43.1578 25.2191 43.1578 24.7532C43.1572 24.129 42.9091 23.5305 42.4678 23.0889C42.0265 22.6474 41.4281 22.399 40.8039 22.3981ZM40.8039 25.4909C40.6579 25.4912 40.5151 25.4481 40.3936 25.3671C40.2721 25.2862 40.1774 25.171 40.1214 25.0362C40.0654 24.9014 40.0506 24.753 40.079 24.6098C40.1074 24.4666 40.1776 24.335 40.2807 24.2317C40.3839 24.1284 40.5154 24.058 40.6585 24.0295C40.8017 24.001 40.9501 24.0155 41.085 24.0714C41.2199 24.1272 41.3352 24.2218 41.4163 24.3432C41.4974 24.4645 41.5406 24.6073 41.5406 24.7532C41.5405 24.9487 41.4629 25.1361 41.3248 25.2744C41.1866 25.4127 40.9993 25.4906 40.8039 25.4909Z" fill="#801C1C"/>
            <path id="Vector_30" d="M49.4972 22.3981C49.0314 22.3979 48.576 22.5358 48.1886 22.7944C47.8011 23.0531 47.4991 23.4208 47.3207 23.8511C47.1423 24.2814 47.0955 24.7549 47.1862 25.2118C47.277 25.6687 47.5012 26.0885 47.8305 26.4179C48.1598 26.7474 48.5794 26.9718 49.0362 27.0628C49.4931 27.1538 49.9666 27.1072 50.397 26.929C50.8274 26.7508 51.1953 26.449 51.4541 26.0617C51.713 25.6744 51.8512 25.2191 51.8512 24.7532C51.8506 24.129 51.6025 23.5305 51.1612 23.0889C50.7199 22.6474 50.1215 22.399 49.4972 22.3981ZM49.4972 25.4909C49.3512 25.4912 49.2085 25.4481 49.087 25.3671C48.9655 25.2862 48.8708 25.171 48.8148 25.0362C48.7588 24.9014 48.744 24.753 48.7724 24.6098C48.8007 24.4666 48.8709 24.335 48.9741 24.2317C49.0772 24.1284 49.2087 24.058 49.3519 24.0295C49.4951 24.001 49.6435 24.0155 49.7783 24.0714C49.9132 24.1272 50.0285 24.2218 50.1096 24.3432C50.1907 24.4645 50.234 24.6073 50.234 24.7532C50.2339 24.9487 50.1563 25.1361 50.0181 25.2744C49.88 25.4127 49.6927 25.4906 49.4972 25.4909Z" fill="#801C1C"/>
            <path id="Vector_31" d="M14.725 29.647C14.2592 29.6468 13.8038 29.7847 13.4163 30.0433C13.0289 30.302 12.7269 30.6697 12.5485 31.1C12.3701 31.5303 12.3233 32.0039 12.414 32.4608C12.5048 32.9177 12.729 33.3374 13.0583 33.6669C13.3876 33.9963 13.8072 34.2207 14.2641 34.3117C14.7209 34.4027 15.1945 34.3561 15.6249 34.1779C16.0553 33.9997 16.4232 33.6978 16.682 33.3105C16.9408 32.9232 17.079 32.4678 17.079 32.002C17.0784 31.3778 16.8302 30.7793 16.3889 30.3378C15.9476 29.8963 15.3492 29.6478 14.725 29.647ZM14.725 32.7398C14.579 32.7401 14.4363 32.697 14.3148 32.616C14.1933 32.5351 14.0986 32.4199 14.0426 32.2851C13.9865 32.1503 13.9718 32.0019 14.0001 31.8587C14.0285 31.7155 14.0987 31.5839 14.2018 31.4806C14.305 31.3774 14.4364 31.307 14.5796 31.2784C14.7227 31.2499 14.8712 31.2644 15.006 31.3202C15.1409 31.376 15.2562 31.4706 15.3373 31.592C15.4185 31.7133 15.4618 31.856 15.4618 32.002C15.4617 32.1975 15.3841 32.3849 15.246 32.5233C15.1078 32.6616 14.9205 32.7395 14.725 32.7398Z" fill="#801C1C"/>
            <path id="Vector_32" d="M23.4186 29.647C22.9528 29.6468 22.4974 29.7847 22.1099 30.0433C21.7225 30.302 21.4205 30.6697 21.2421 31.1C21.0637 31.5303 21.0169 32.0039 21.1076 32.4608C21.1984 32.9177 21.4226 33.3374 21.7519 33.6669C22.0812 33.9963 22.5008 34.2207 22.9577 34.3117C23.4146 34.4027 23.8881 34.3561 24.3185 34.1779C24.7489 33.9997 25.1168 33.6978 25.3756 33.3105C25.6344 32.9232 25.7726 32.4678 25.7726 32.002C25.772 31.3778 25.5238 30.7793 25.0825 30.3378C24.6412 29.8963 24.0428 29.6478 23.4186 29.647ZM23.4186 32.7398C23.2726 32.7401 23.1299 32.697 23.0084 32.616C22.8869 32.5351 22.7922 32.4199 22.7362 32.2851C22.6802 32.1503 22.6654 32.0019 22.6937 31.8587C22.7221 31.7155 22.7923 31.5839 22.8954 31.4806C22.9986 31.3774 23.13 31.307 23.2732 31.2784C23.4163 31.2499 23.5648 31.2644 23.6996 31.3202C23.8345 31.376 23.9498 31.4706 24.0309 31.592C24.1121 31.7133 24.1554 31.856 24.1554 32.002C24.1553 32.1975 24.0777 32.3849 23.9396 32.5233C23.8014 32.6616 23.6141 32.7395 23.4186 32.7398Z" fill="#801C1C"/>
            <path id="Vector_33" d="M32.1112 29.647C31.6454 29.6468 31.19 29.7847 30.8026 30.0433C30.4151 30.302 30.1131 30.6697 29.9347 31.1C29.7563 31.5303 29.7095 32.0039 29.8002 32.4608C29.891 32.9177 30.1152 33.3374 30.4445 33.6669C30.7738 33.9963 31.1935 34.2207 31.6503 34.3117C32.1072 34.4027 32.5807 34.3561 33.0111 34.1779C33.4415 33.9997 33.8094 33.6978 34.0682 33.3105C34.327 32.9232 34.4652 32.4678 34.4652 32.002C34.4646 31.3778 34.2165 30.7793 33.7752 30.3378C33.3339 29.8963 32.7355 29.6478 32.1112 29.647ZM32.1112 32.7398C31.9653 32.7401 31.8225 32.697 31.701 32.616C31.5795 32.5351 31.4848 32.4199 31.4288 32.2851C31.3728 32.1503 31.358 32.0019 31.3864 31.8587C31.4147 31.7155 31.4849 31.5839 31.588 31.4806C31.6912 31.3774 31.8227 31.307 31.9658 31.2784C32.109 31.2499 32.2574 31.2644 32.3923 31.3202C32.5271 31.376 32.6424 31.4706 32.7236 31.592C32.8047 31.7133 32.848 31.856 32.848 32.002C32.8479 32.1975 32.7703 32.3849 32.6322 32.5233C32.4941 32.6616 32.3067 32.7395 32.1112 32.7398Z" fill="#801C1C"/>
            <path id="Vector_34" d="M40.8039 29.647C40.338 29.6468 39.8826 29.7847 39.4952 30.0433C39.1078 30.302 38.8057 30.6697 38.6273 31.1C38.4489 31.5303 38.4021 32.0039 38.4929 32.4608C38.5836 32.9177 38.8078 33.3374 39.1371 33.6669C39.4665 33.9963 39.8861 34.2207 40.3429 34.3117C40.7998 34.4027 41.2734 34.3561 41.7038 34.1779C42.1342 33.9997 42.502 33.6978 42.7609 33.3105C43.0197 32.9232 43.1578 32.4678 43.1578 32.002C43.1573 31.3778 42.9091 30.7793 42.4678 30.3378C42.0265 29.8963 41.4281 29.6478 40.8039 29.647ZM40.8039 32.7398C40.6579 32.7401 40.5151 32.697 40.3936 32.616C40.2722 32.5351 40.1774 32.4199 40.1214 32.2851C40.0654 32.1503 40.0506 32.0019 40.079 31.8587C40.1073 31.7155 40.1775 31.5839 40.2807 31.4806C40.3838 31.3774 40.5153 31.307 40.6584 31.2784C40.8016 31.2499 40.95 31.2644 41.0849 31.3202C41.2198 31.376 41.3351 31.4706 41.4162 31.592C41.4973 31.7133 41.5406 31.856 41.5406 32.002C41.5406 32.1975 41.4629 32.3849 41.3248 32.5233C41.1867 32.6616 40.9993 32.7395 40.8039 32.7398Z" fill="#801C1C"/>
            <path id="Vector_35" d="M14.725 36.8961C14.2592 36.8959 13.8038 37.0338 13.4163 37.2925C13.0289 37.5511 12.7269 37.9188 12.5485 38.3491C12.3701 38.7794 12.3233 39.253 12.414 39.7099C12.5047 40.1668 12.7289 40.5865 13.0582 40.916C13.3875 41.2455 13.8072 41.4699 14.264 41.5608C14.7209 41.6518 15.1944 41.6052 15.6248 41.4271C16.0552 41.2489 16.4231 40.947 16.6819 40.5597C16.9408 40.1725 17.0789 39.7171 17.079 39.2513C17.0784 38.627 16.8302 38.0285 16.3889 37.587C15.9476 37.1455 15.3492 36.897 14.725 36.8961ZM14.725 39.989C14.579 39.9892 14.4363 39.9461 14.3148 39.8652C14.1933 39.7842 14.0986 39.669 14.0425 39.5342C13.9865 39.3994 13.9718 39.251 14.0001 39.1078C14.0285 38.9646 14.0987 38.833 14.2019 38.7298C14.305 38.6265 14.4365 38.5561 14.5797 38.5275C14.7228 38.499 14.8712 38.5136 15.0061 38.5694C15.141 38.6252 15.2563 38.7198 15.3374 38.8412C15.4185 38.9626 15.4618 39.1053 15.4618 39.2513C15.4617 39.4467 15.384 39.6342 15.2459 39.7725C15.1078 39.9108 14.9205 39.9886 14.725 39.989Z" fill="#801C1C"/>
            <path id="Vector_36" d="M23.4186 36.8961C22.9528 36.8959 22.4974 37.0338 22.1099 37.2925C21.7225 37.5511 21.4205 37.9188 21.2421 38.3491C21.0637 38.7794 21.0169 39.253 21.1076 39.7099C21.1983 40.1668 21.4225 40.5865 21.7518 40.916C22.0811 41.2455 22.5008 41.4699 22.9576 41.5608C23.4145 41.6518 23.888 41.6052 24.3184 41.4271C24.7488 41.2489 25.1167 40.947 25.3755 40.5597C25.6344 40.1725 25.7725 39.7171 25.7726 39.2513C25.772 38.627 25.5238 38.0285 25.0825 37.587C24.6413 37.1455 24.0429 36.897 23.4186 36.8961ZM23.4186 39.989C23.2726 39.9892 23.1299 39.9461 23.0084 39.8652C22.8869 39.7842 22.7922 39.669 22.7361 39.5342C22.6801 39.3994 22.6654 39.251 22.6937 39.1078C22.7221 38.9646 22.7923 38.833 22.8955 38.7298C22.9986 38.6265 23.1301 38.5561 23.2733 38.5275C23.4164 38.499 23.5648 38.5136 23.6997 38.5694C23.8346 38.6252 23.9499 38.7198 24.031 38.8412C24.1121 38.9626 24.1554 39.1053 24.1554 39.2513C24.1553 39.4467 24.0776 39.6342 23.9395 39.7725C23.8014 39.9108 23.6141 39.9886 23.4186 39.989Z" fill="#801C1C"/>
            <path id="Vector_37" d="M32.1112 36.8961C31.6454 36.8959 31.19 37.0338 30.8026 37.2925C30.4152 37.5511 30.1131 37.9188 29.9347 38.3491C29.7563 38.7794 29.7095 39.253 29.8002 39.7099C29.891 40.1668 30.1152 40.5865 30.4445 40.916C30.7738 41.2455 31.1934 41.4699 31.6502 41.5608C32.1071 41.6518 32.5807 41.6052 33.011 41.4271C33.4414 41.2489 33.8093 40.947 34.0681 40.5597C34.327 40.1725 34.4652 39.7171 34.4652 39.2513C34.4646 38.627 34.2165 38.0285 33.7752 37.587C33.3339 37.1455 32.7355 36.897 32.1112 36.8961ZM32.1112 39.989C31.9653 39.9892 31.8225 39.9461 31.701 39.8652C31.5795 39.7842 31.4848 39.669 31.4288 39.5342C31.3728 39.3994 31.358 39.251 31.3864 39.1078C31.4147 38.9646 31.4849 38.833 31.5881 38.7298C31.6912 38.6265 31.8227 38.5561 31.9659 38.5275C32.1091 38.499 32.2575 38.5136 32.3924 38.5694C32.5272 38.6252 32.6425 38.7198 32.7236 38.8412C32.8047 38.9626 32.848 39.1053 32.848 39.2513C32.8479 39.4467 32.7703 39.6342 32.6321 39.7725C32.494 39.9108 32.3067 39.9886 32.1112 39.989Z" fill="#801C1C"/>
            <path id="Vector_38" d="M14.7253 44.1451C14.2594 44.1449 13.8039 44.2828 13.4165 44.5415C13.029 44.8001 12.7269 45.1679 12.5485 45.5982C12.3701 46.0285 12.3233 46.5021 12.414 46.9591C12.5048 47.416 12.729 47.8358 13.0583 48.1653C13.3877 48.4948 13.8073 48.7192 14.2642 48.8101C14.7211 48.9011 15.1947 48.8545 15.6252 48.6763C16.0556 48.498 16.4235 48.1961 16.6823 47.8088C16.9411 47.4214 17.0792 46.966 17.0792 46.5002C17.0787 45.8759 16.8305 45.2774 16.3892 44.8359C15.9479 44.3944 15.3495 44.146 14.7253 44.1451ZM14.7253 47.2381C14.5793 47.2384 14.4365 47.1953 14.3149 47.1144C14.1934 47.0334 14.0986 46.9183 14.0426 46.7834C13.9866 46.6486 13.9718 46.5002 14.0001 46.3569C14.0285 46.2137 14.0986 46.0821 14.2018 45.9788C14.305 45.8754 14.4365 45.805 14.5796 45.7765C14.7228 45.7479 14.8713 45.7624 15.0062 45.8183C15.1411 45.8741 15.2564 45.9687 15.3376 46.09C15.4187 46.2114 15.462 46.3542 15.462 46.5002C15.462 46.6957 15.3844 46.8831 15.2462 47.0215C15.1081 47.1598 14.9208 47.2378 14.7253 47.2381Z" fill="#801C1C"/>
            <path id="Vector_39" d="M23.4179 44.1451C22.952 44.1449 22.4966 44.2828 22.1091 44.5415C21.7216 44.8001 21.4196 45.1679 21.2411 45.5982C21.0627 46.0285 21.0159 46.5021 21.1066 46.9591C21.1974 47.416 21.4216 47.8358 21.751 48.1653C22.0803 48.4948 22.5 48.7192 22.9569 48.8101C23.4138 48.9011 23.8874 48.8545 24.3178 48.6763C24.7482 48.498 25.1161 48.1961 25.3749 47.8088C25.6337 47.4214 25.7719 46.966 25.7719 46.5002C25.7713 45.8759 25.5231 45.2774 25.0818 44.8359C24.6405 44.3944 24.0421 44.146 23.4179 44.1451ZM23.4179 47.2381C23.2719 47.2384 23.1291 47.1953 23.0076 47.1144C22.8861 47.0334 22.7913 46.9183 22.7352 46.7834C22.6792 46.6486 22.6644 46.5002 22.6927 46.3569C22.7211 46.2137 22.7913 46.0821 22.8944 45.9788C22.9976 45.8754 23.1291 45.805 23.2723 45.7765C23.4155 45.7479 23.5639 45.7624 23.6988 45.8183C23.8337 45.8741 23.9491 45.9687 24.0302 46.09C24.1114 46.2114 24.1547 46.3542 24.1547 46.5002C24.1546 46.6957 24.077 46.8831 23.9389 47.0215C23.8007 47.1598 23.6134 47.2378 23.4179 47.2381Z" fill="#801C1C"/>
            <path id="Vector_40" d="M32.1115 44.1451C31.6456 44.1449 31.1902 44.2828 30.8027 44.5415C30.4152 44.8001 30.1132 45.1679 29.9347 45.5982C29.7563 46.0285 29.7095 46.5021 29.8002 46.9591C29.891 47.416 30.1152 47.8358 30.4446 48.1653C30.7739 48.4948 31.1936 48.7192 31.6505 48.8101C32.1074 48.9011 32.581 48.8545 33.0114 48.6763C33.4418 48.498 33.8097 48.1961 34.0685 47.8088C34.3273 47.4214 34.4655 46.966 34.4655 46.5002C34.4649 45.8759 34.2167 45.2774 33.7754 44.8359C33.3341 44.3944 32.7357 44.146 32.1115 44.1451ZM32.1115 47.2381C31.9655 47.2384 31.8227 47.1953 31.7012 47.1144C31.5797 47.0334 31.4849 46.9183 31.4288 46.7834C31.3728 46.6486 31.358 46.5002 31.3863 46.3569C31.4147 46.2137 31.4849 46.0821 31.588 45.9788C31.6912 45.8754 31.8227 45.805 31.9659 45.7765C32.1091 45.7479 32.2575 45.7624 32.3924 45.8183C32.5273 45.8741 32.6427 45.9687 32.7238 46.09C32.805 46.2114 32.8483 46.3542 32.8483 46.5002C32.8482 46.6957 32.7706 46.8831 32.6325 47.0215C32.4943 47.1598 32.307 47.2378 32.1115 47.2381Z" fill="#801C1C"/>
            <path id="Vector_41" d="M10.7812 21.3157C10.7812 21.1012 10.6961 20.8956 10.5444 20.7439C10.3928 20.5923 10.1871 20.5071 9.97266 20.5071C9.7582 20.5071 9.55254 20.5923 9.40089 20.7439C9.24925 20.8956 9.16406 21.1012 9.16406 21.3157V21.7178C9.16406 21.9323 9.24925 22.1379 9.40089 22.2896C9.55254 22.4412 9.7582 22.5264 9.97266 22.5264C10.1871 22.5264 10.3928 22.4412 10.5444 22.2896C10.6961 22.1379 10.7812 21.9323 10.7812 21.7178V21.3157Z" fill="#801C1C"/>
            <path id="Vector_42" d="M9.97266 23.5116C9.7582 23.5116 9.55254 23.5968 9.40089 23.7484C9.24925 23.9001 9.16406 24.1057 9.16406 24.3202V36.0002C9.16406 36.2146 9.24925 36.4203 9.40089 36.572C9.55254 36.7236 9.7582 36.8088 9.97266 36.8088C10.1871 36.8088 10.3928 36.7236 10.5444 36.572C10.6961 36.4203 10.7812 36.2146 10.7812 36.0002V24.3202C10.7812 24.1057 10.6961 23.9001 10.5444 23.7484C10.3928 23.5968 10.1871 23.5116 9.97266 23.5116Z" fill="#801C1C"/>
        </g>
        <path id="stamp-outer" d="M61.0689 52.2891H57.2191C59.4332 51.0712 61.1794 49.1514 62.1827 46.832C63.1859 44.5127 63.3891 41.9255 62.7604 39.4779C62.1317 37.0304 60.7067 34.8615 58.7099 33.3127C56.7131 31.764 54.2578 30.9235 51.7308 30.9235C49.2038 30.9235 46.7485 31.764 44.7517 33.3127C42.7549 34.8615 41.3299 37.0304 40.7012 39.4779C40.0725 41.9255 40.2757 44.5127 41.2789 46.832C42.2822 49.1514 44.0283 51.0712 46.2425 52.2891H42.3927C41.7683 52.2933 41.1705 52.5424 40.7278 52.9828C40.2851 53.4232 40.0329 54.0197 40.0254 54.6441V56.169C40.0254 56.7296 40.2283 57.2712 40.5967 57.6938C40.2283 58.1165 40.0254 58.6582 40.0254 59.2188V60.7438C40.0254 61.3045 40.2283 61.8462 40.5967 62.2689C40.2283 62.6915 40.0254 63.2331 40.0254 63.7937V65.3189C40.0338 65.941 40.2869 66.5348 40.73 66.9716C41.1731 67.4083 41.7705 67.6529 42.3927 67.6523H61.0689C62.3561 67.6523 63.3398 66.6055 63.3398 65.3189V63.7937C63.3398 63.2331 63.1369 62.6915 62.7686 62.2689C63.1369 61.8462 63.3398 61.3045 63.3398 60.7438V59.2188C63.3398 58.6582 63.1369 58.1165 62.7686 57.6938C63.1369 57.2712 63.3398 56.7296 63.3398 56.169V54.6441C63.3398 53.3573 62.3561 52.2891 61.0689 52.2891ZM45.6451 48.4213C45.57 48.3462 45.4809 48.2866 45.3828 48.246C45.2847 48.2053 45.1795 48.1844 45.0733 48.1844C44.9671 48.1844 44.862 48.2053 44.7638 48.246C44.6657 48.2866 44.5766 48.3462 44.5015 48.4213L44.2859 48.6275C42.9584 47.0835 42.1597 45.1554 42.0064 43.125H42.3164C42.5309 43.125 42.7365 43.0398 42.8882 42.8882C43.0398 42.7365 43.125 42.5309 43.125 42.3164C43.125 42.1019 43.0398 41.8963 42.8882 41.7446C42.7365 41.593 42.5309 41.5078 42.3164 41.5078H42.0064C42.1854 39.4896 42.9811 37.5753 44.2856 36.025L44.5012 36.246C44.5761 36.3211 44.6649 36.3808 44.7628 36.4215C44.8607 36.4623 44.9656 36.4834 45.0716 36.4836C45.1777 36.4838 45.2827 36.4631 45.3807 36.4227C45.4787 36.3823 45.5679 36.323 45.643 36.2482C45.7181 36.1734 45.7777 36.0845 45.8185 35.9866C45.8592 35.8887 45.8803 35.7838 45.8805 35.6778C45.8807 35.5717 45.86 35.4667 45.8196 35.3687C45.7792 35.2707 45.7199 35.1816 45.6451 35.1064L45.4387 34.8908C46.9827 33.5635 48.911 32.7652 50.9414 32.6125V32.9224C50.9414 33.1369 51.0266 33.3426 51.1782 33.4942C51.3299 33.6458 51.5355 33.731 51.75 33.731C51.9645 33.731 52.1701 33.6458 52.3218 33.4942C52.4734 33.3426 52.5586 33.1369 52.5586 32.9224V32.6125C54.5769 32.7911 56.4913 33.5865 58.0418 34.8908L57.8208 35.1064C57.7448 35.1811 57.6844 35.27 57.643 35.3681C57.6015 35.4661 57.5799 35.5714 57.5794 35.6779C57.5788 35.7844 57.5993 35.8899 57.6397 35.9884C57.6801 36.0869 57.7396 36.1765 57.8148 36.2519C57.8899 36.3273 57.9793 36.3871 58.0776 36.4278C58.176 36.4686 58.2815 36.4895 58.3879 36.4893C58.4944 36.4891 58.5998 36.4678 58.698 36.4267C58.7962 36.3856 58.8854 36.3255 58.9602 36.2498L59.1759 36.0238C60.4805 37.5745 61.2762 39.4892 61.4547 41.5078H61.1448C60.9303 41.5078 60.7247 41.593 60.573 41.7446C60.4214 41.8963 60.3362 42.1019 60.3362 42.3164C60.3362 42.5309 60.4214 42.7365 60.573 42.8882C60.7247 43.0398 60.9303 43.125 61.1448 43.125H61.4547C61.3016 45.1554 60.5029 47.0836 59.1756 48.6277L58.96 48.4166C58.8846 48.3415 58.7952 48.282 58.6969 48.2414C58.5986 48.2009 58.4932 48.1801 58.3868 48.1803C58.172 48.1807 57.9662 48.2664 57.8145 48.4185C57.6629 48.5707 57.5779 48.7768 57.5783 48.9916C57.5786 49.2065 57.6643 49.4123 57.8165 49.564L58.0421 49.7805C56.4916 51.0853 54.5771 51.8811 52.5586 52.06V51.75C52.5586 51.5355 52.4734 51.3299 52.3218 51.1782C52.1701 51.0266 51.9645 50.9414 51.75 50.9414C51.5355 50.9414 51.3299 51.0266 51.1782 51.1782C51.0266 51.3299 50.9414 51.5355 50.9414 51.75V52.06C48.9111 51.9069 46.983 51.1083 45.4391 49.7809L45.6504 49.5653C45.7252 49.4899 45.7844 49.4004 45.8246 49.3021C45.8649 49.2038 45.8853 49.0984 45.8848 48.9922C45.8843 48.886 45.8629 48.7809 45.8218 48.6829C45.7807 48.5849 45.7206 48.496 45.6451 48.4213ZM61.7227 56.1547C61.7227 56.3447 61.6472 56.5269 61.5128 56.6613C61.3785 56.7956 61.1962 56.8711 61.0062 56.8711H42.359C42.169 56.8711 41.9868 56.7956 41.8524 56.6613C41.7181 56.5269 41.6426 56.3447 41.6426 56.1547V54.6227C41.6426 54.4327 41.7181 54.2504 41.8524 54.1161C41.9868 53.9817 42.169 53.9062 42.359 53.9062H61.0062C61.1962 53.9062 61.3785 53.9817 61.5128 54.1161C61.6472 54.2504 61.7227 54.4327 61.7227 54.6227V56.1547ZM61.7227 60.7367C61.7227 60.9267 61.6472 61.1089 61.5128 61.2433C61.3785 61.3776 61.1962 61.4531 61.0062 61.4531H42.359C42.169 61.4531 41.9868 61.3777 41.8525 61.2433C41.7181 61.109 41.6426 60.9268 41.6426 60.7368V59.2045C41.6426 59.0146 41.7181 58.8324 41.8525 58.6981C41.9868 58.5637 42.169 58.4883 42.359 58.4883H61.0062C61.1962 58.4883 61.3784 58.5637 61.5128 58.6981C61.6471 58.8324 61.7226 59.0146 61.7227 59.2045V60.7367ZM61.7227 65.3187C61.7227 65.5087 61.6472 65.691 61.5128 65.8253C61.3785 65.9597 61.1962 66.0351 61.0062 66.0351H42.359C42.169 66.0351 41.9868 65.9597 41.8525 65.8254C41.7181 65.691 41.6426 65.5088 41.6426 65.3189V63.7866C41.6426 63.5966 41.7181 63.4144 41.8525 63.2801C41.9868 63.1458 42.169 63.0703 42.359 63.0703H61.0062C61.1962 63.0703 61.3784 63.1458 61.5128 63.2801C61.6471 63.4144 61.7226 63.5966 61.7227 63.7866V65.3187Z" fill="#F7A125"/>
    </g>
</svg>
