<svg width="45" height="40" viewBox="0 0 45 40" fill="none" xmlns="http://www.w3.org/2000/svg">
<path d="M39.6387 21.3233V17.2191C39.6387 7.7245 31.9503 0 22.5 0C13.0497 0 5.36133 7.7245 5.36133 17.2191V21.3233C2.38403 21.9209 0 24.561 0 27.8155C0 31.4764 3.0353 34.4383 6.67969 34.4383H11.9531C12.6812 34.4383 13.2715 33.8452 13.2715 33.1137V17.2191C13.2715 12.1066 17.4114 7.94729 22.5 7.94729C27.5886 7.94729 31.7285 12.1066 31.7285 17.2191V33.1137C31.7285 33.8452 32.3188 34.4383 33.0469 34.4383H34.3652V35.7628C34.3652 36.4932 33.7738 37.0874 33.0469 37.0874H22.5C21.7719 37.0874 21.1816 37.6804 21.1816 38.4119C21.1816 39.1434 21.7719 39.7365 22.5 39.7365H33.0469C35.2277 39.7365 37.002 37.9539 37.002 35.7628V34.4383H38.3203C41.9641 34.4383 45 31.477 45 27.8155C45 24.5637 42.6187 21.9215 39.6387 21.3233ZM10.6348 31.7892H6.67969C4.48813 31.7892 2.63672 29.9695 2.63672 27.8155C2.63672 25.6615 4.48813 23.8419 6.67969 23.8419H10.6348V31.7892ZM22.5 5.2982C15.9575 5.2982 10.6348 10.6459 10.6348 17.2191V21.1928H7.99805V17.2191C7.99805 9.18522 14.5036 2.6491 22.5 2.6491C30.4964 2.6491 37.002 9.18522 37.002 17.2191V21.1928H34.3652V17.2191C34.3652 10.6459 29.0425 5.2982 22.5 5.2982ZM38.3203 31.7892H34.3652V23.8419H38.3203C40.5119 23.8419 42.3633 25.6615 42.3633 27.8155C42.3633 29.9695 40.5119 31.7892 38.3203 31.7892Z" fill="#FF0000"/>
</svg>
