<svg width="13" height="21" viewBox="0 0 13 21" fill="none" xmlns="http://www.w3.org/2000/svg">
<path fill-rule="evenodd" clip-rule="evenodd" d="M4.59792 20.6628C4.06426 20.6628 3.63014 20.2148 3.63014 19.6641V12.2273H1.76612C1.23246 12.2273 0.79834 11.7791 0.79834 11.2286V8.04187C0.79834 7.49115 1.23246 7.04316 1.76612 7.04316H3.63014V5.44738C3.63014 3.86511 4.1116 2.51893 5.0223 1.55461C5.93711 0.585899 7.21556 0.0739746 8.71944 0.0739746L11.1561 0.0780587C11.6888 0.0790012 12.1222 0.526994 12.1222 1.07678V4.03554C12.1222 4.58626 11.6882 5.03426 11.1547 5.03426L9.51415 5.03489C9.01382 5.03489 8.88642 5.1384 8.85917 5.17013C8.81427 5.22275 8.76084 5.37151 8.76084 5.78227V7.043H11.0314C11.2024 7.043 11.368 7.08651 11.5103 7.16851C11.8173 7.34554 12.0082 7.68028 12.0082 8.04203L12.007 11.2287C12.007 11.7791 11.5729 12.2271 11.0392 12.2271H8.76084V19.6641C8.76084 20.2148 8.32657 20.6628 7.79291 20.6628H4.59792ZM7.59107 19.4558V11.6869C7.59107 11.3192 7.88104 11.0201 8.23722 11.0201H10.8374L10.8384 8.25016H8.23707C7.88089 8.25016 7.59107 7.95108 7.59107 7.58336V5.78227C7.59107 5.31072 7.6375 4.77445 7.98242 4.37138C8.39918 3.88412 9.05599 3.82788 9.51385 3.82788L10.9526 3.82725V1.28475L8.71853 1.28098C6.30166 1.28098 4.79976 2.87754 4.79976 5.44738V7.58336C4.79976 7.95093 4.50994 8.25016 4.15376 8.25016H1.96796V11.0201H4.15376C4.50994 11.0201 4.79976 11.3192 4.79976 11.6869V19.4558H7.59107ZM11.154 1.28506H11.1538H11.154Z" fill="#4E111C"/>
</svg>
