<svg width="48" height="48" viewBox="0 0 48 48" fill="none" xmlns="http://www.w3.org/2000/svg">
<g clip-path="url(#clip0)">
<path d="M34.9085 13.2095H12.4628C10.7393 13.2095 9.33765 14.6098 9.33765 16.3317V21.3149C9.33765 23.0367 10.7393 24.4371 12.4628 24.4371H14.9568H15.5726V25.0523V36.2645C15.5726 36.6121 15.8558 36.8951 16.2038 36.8951H31.1676C31.5155 36.8951 31.7988 36.6121 31.7988 36.2645V25.0523V24.4371H32.4146H34.9085C36.632 24.4371 38.0337 23.0367 38.0337 21.3149V16.3317C38.0337 14.6098 36.632 13.2095 34.9085 13.2095ZM30.5364 20.0691V35.0187V35.6339H29.9206H17.4507H16.835V35.0187V20.0691V19.4539H17.4507H29.9206H30.5364V20.0691ZM36.7713 21.3149C36.7713 22.3407 35.9354 23.1759 34.9085 23.1759H32.4146H31.7988V22.5607V20.0691V19.4539H32.4146H33.6616C34.0095 19.4539 34.2927 19.1709 34.2927 18.8233C34.2927 18.4757 34.0095 18.1927 33.6616 18.1927H31.1676H16.2038H13.7098C13.3619 18.1927 13.0786 18.4757 13.0786 18.8233C13.0786 19.1709 13.3619 19.4539 13.7098 19.4539H14.9568H15.5726V20.0691V22.5607V23.1759H14.9568H12.4628C11.436 23.1759 10.6 22.3407 10.6 21.3149V16.3317C10.6 15.3058 11.436 14.4707 12.4628 14.4707H34.9085C35.9354 14.4707 36.7713 15.3058 36.7713 16.3317V21.3149Z" fill="#F7A125"/>
</g>
<circle cx="23.6856" cy="23.6856" r="22.6856" stroke="#F7A125" stroke-width="2"/>
<defs>
<clipPath id="clip0">
<rect width="28.696" height="23.6856" fill="white" transform="translate(9.33765 13.2095)"/>
</clipPath>
</defs>
</svg>
