<svg width="48" height="48" viewBox="0 0 48 48" fill="none" xmlns="http://www.w3.org/2000/svg">
<path d="M23.6847 13.5806C22.2909 13.5806 21.1575 14.714 21.1575 16.1077C21.1575 17.5015 22.2909 18.6349 23.6847 18.6349C25.0784 18.6349 26.2118 17.5014 26.2118 16.1077C26.2118 14.7141 25.0783 13.5806 23.6847 13.5806ZM23.6847 17.3719C22.9878 17.3719 22.4205 16.8046 22.4205 16.1077C22.4205 15.4109 22.9878 14.8436 23.6847 14.8436C24.3815 14.8436 24.9488 15.4109 24.9488 16.1077C24.9488 16.8046 24.3815 17.3719 23.6847 17.3719Z" fill="#F7A125"/>
<path d="M36.9469 21.1596C37.2959 21.1596 37.5784 20.8789 37.5784 20.5299V18.0042C37.5784 17.7816 37.4612 17.5751 37.2694 17.4616L24.9166 10.1257C24.9111 10.122 24.9055 10.1189 24.9 10.1158C24.1322 9.69036 23.2664 9.67745 22.4542 10.1245L10.1022 17.4616C9.91037 17.575 9.79321 17.7816 9.79321 18.0042V20.5299C9.79321 20.8789 10.0757 21.1596 10.4247 21.1596H12.3192V32.5268C10.926 32.5268 9.79321 33.6594 9.79321 35.0524V36.9467C9.79321 37.2956 10.0757 37.5781 10.4247 37.5781H36.9469C37.2959 37.5781 37.5784 37.2957 37.5784 36.9467V35.0524C37.5784 33.6594 36.4455 32.5268 35.0524 32.5268V21.1596H36.9469ZM36.3154 35.0522V36.3151H11.0562V35.0522C11.0562 34.356 11.6229 33.7892 12.3191 33.7892H12.9506H34.4209H35.0524C35.7486 33.7892 36.3154 34.3559 36.3154 35.0522ZM13.5821 32.5262V21.1596H16.108V32.5262H13.5821ZM17.371 32.5262V21.1596H21.1598V32.5262H17.371ZM22.4228 32.5262V21.1596H24.9487V32.5262H22.4228ZM26.2117 32.5262V21.1596H30.0005V32.5262H26.2117ZM31.2635 32.5262V21.1596H33.7895V32.5262H31.2635ZM11.0562 19.8966V18.3617L23.0808 11.2181C23.4743 11.0017 23.8923 11.0023 24.2809 11.2138L36.3154 18.3617V19.8966H11.0562Z" fill="#F7A125"/>
<circle cx="23.6856" cy="23.6856" r="22.6856" stroke="#F7A125" stroke-width="2"/>
</svg>
