<svg width="45" height="18" viewBox="0 0 45 18" fill="none" xmlns="http://www.w3.org/2000/svg">
<path fill-rule="evenodd" clip-rule="evenodd" d="M42.2609 0H2.73939C2.01286 0 1.31608 0.289968 0.802349 0.806115C0.288614 1.32226 0 2.02231 0 2.75225V7.1732C0.000916063 10.0188 1.12659 12.7475 3.12951 14.7594C5.13243 16.7713 7.84863 17.9017 10.6809 17.902H15.9652C16.5925 17.9019 17.2118 17.7606 17.7777 17.4886C18.3435 17.2166 18.8415 16.8207 19.2352 16.33C19.6278 15.8386 20.1253 15.4421 20.6908 15.1696C21.2563 14.8971 21.8755 14.7557 22.5027 14.7557C23.1299 14.7557 23.7491 14.8971 24.3146 15.1696C24.8802 15.4421 25.3776 15.8386 25.7702 16.33C26.1637 16.8209 26.6617 17.2169 27.2276 17.489C27.7935 17.761 28.4129 17.9022 29.0402 17.902H34.3191C35.722 17.9036 37.1114 17.6272 38.4079 17.0886C39.7043 16.5501 40.8823 15.7599 41.8744 14.7633C42.8665 13.7668 43.6532 12.5834 44.1896 11.281C44.7259 9.97859 45.0013 8.58269 45 7.1732V2.75225C45 2.02235 44.7114 1.32234 44.1977 0.806204C43.6841 0.290064 42.9873 6.57566e-05 42.2609 0ZM7.57085 5.96893C7.44177 6.62588 7.44445 7.30211 7.57876 7.958C7.71306 8.61389 7.97627 9.23627 8.35299 9.78868C8.7297 10.3411 9.21234 10.8124 9.77263 11.1751C10.3329 11.5377 10.9596 11.7844 11.616 11.9007C12.2724 12.017 12.9452 12.0005 13.5952 11.8522C14.2452 11.7039 14.8591 11.4268 15.4012 11.0372C15.9432 10.6475 16.4024 10.1531 16.7519 9.58291C17.1013 9.0127 17.334 8.37818 17.4363 7.71648L7.57085 5.96893ZM37.4215 7.958C37.5558 7.30211 37.5585 6.62588 37.4294 5.96893L27.5639 7.71648C27.6663 8.37818 27.899 9.0127 28.2484 9.58291C28.5979 10.1531 29.0571 10.6475 29.5991 11.0372C30.1412 11.4268 30.7551 11.7039 31.4051 11.8522C32.055 12.0005 32.7279 12.017 33.3843 11.9007C34.0407 11.7844 34.6674 11.5377 35.2276 11.1751C35.7879 10.8124 36.2706 10.3411 36.6473 9.78868C37.024 9.23627 37.2872 8.61389 37.4215 7.958Z" fill="#FF0000"/>
</svg>
