<svg width="17" height="17" viewBox="0 0 17 17" fill="none" xmlns="http://www.w3.org/2000/svg">
<path fill-rule="evenodd" clip-rule="evenodd" d="M16.5394 2.94298C16.3303 2.38957 16.0084 1.8941 15.5868 1.48222C15.1748 1.06393 14.676 0.738894 14.1289 0.533015C13.6044 0.330278 13.0058 0.188752 12.1304 0.150165C11.2486 0.108311 10.9686 0.0986328 8.7319 0.0986328C6.49521 0.0986328 6.21525 0.108311 5.33664 0.146897C4.4613 0.185484 3.85951 0.327136 3.33818 0.529747C2.78454 0.738894 2.28898 1.06066 1.87701 1.48222C1.45864 1.8941 1.13367 2.39284 0.927629 2.93984C0.724854 3.46434 0.5833 4.06275 0.544706 4.93792C0.502844 5.81963 0.493164 6.09954 0.493164 8.3358C0.493164 10.5721 0.502844 10.852 0.541438 11.7304C0.580032 12.6056 0.721711 13.2073 0.924486 13.7286C1.13367 14.282 1.45864 14.7775 1.87701 15.1894C2.28898 15.6077 2.78781 15.9327 3.33491 16.1386C3.85951 16.3413 4.45803 16.4829 5.3335 16.5214C6.21198 16.5602 6.49207 16.5697 8.72876 16.5697C10.9655 16.5697 11.2454 16.5602 12.124 16.5214C12.9994 16.4829 13.6012 16.3413 14.1225 16.1386C15.2296 15.7106 16.105 14.8354 16.533 13.7286C16.7357 13.2041 16.8774 12.6056 16.916 11.7304C16.9546 10.852 16.9642 10.5721 16.9642 8.3358C16.9642 6.09954 16.961 5.81963 16.9224 4.94119C16.8838 4.06601 16.7422 3.46434 16.5394 2.94298ZM15.1556 13.1944C14.8788 13.912 14.3092 14.4815 13.5915 14.7583C13.3018 14.8709 12.8642 15.006 12.0628 15.0413C11.1939 15.08 10.9333 15.0896 8.73517 15.0896C6.53708 15.0896 6.27321 15.08 5.40742 15.0413C4.60285 15.006 4.16839 14.8709 3.87875 14.7583C3.5216 14.6263 3.1965 14.4171 2.93263 14.1436C2.65908 13.8766 2.44989 13.5548 2.31789 13.1977C2.20525 12.9081 2.07011 12.4705 2.03479 11.6693C1.99607 10.8006 1.98651 10.5399 1.98651 8.34221C1.98651 6.14454 1.99607 5.88071 2.03479 5.01522C2.07011 4.21081 2.20525 3.77642 2.31789 3.48684C2.44989 3.12963 2.65908 2.80472 2.9359 2.54077C3.20291 2.26727 3.52474 2.05813 3.88201 1.92628C4.17166 1.81366 4.60939 1.67855 5.41069 1.6431C6.27962 1.60452 6.54035 1.59484 8.73832 1.59484C10.9397 1.59484 11.2003 1.60452 12.0661 1.6431C12.8706 1.67855 13.3051 1.81366 13.5947 1.92628C13.9519 2.05813 14.277 2.26727 14.5409 2.54077C14.8144 2.80786 15.0236 3.12963 15.1556 3.48684C15.2682 3.77642 15.4034 4.21395 15.4388 5.01522C15.4774 5.88398 15.4871 6.14454 15.4871 8.34221C15.4871 10.5399 15.4774 10.7973 15.4388 11.6661C15.4034 12.4705 15.2682 12.9049 15.1556 13.1944Z" fill="#4E111C"/>
<path fill-rule="evenodd" clip-rule="evenodd" d="M4.61084 8.33383C4.61084 10.6073 6.4553 12.4516 8.72861 12.4516C11.002 12.4516 12.8464 10.6073 12.8464 8.33383C12.8464 6.0604 11.002 4.21606 8.72861 4.21606C6.4553 4.21606 4.61084 6.0604 4.61084 8.33383ZM6.05751 8.33383C6.05751 6.8589 7.2538 5.66274 8.72861 5.66274C10.2035 5.66274 11.3997 6.8589 11.3997 8.33383C11.3997 9.80876 10.2035 11.0049 8.72861 11.0049C7.2538 11.0049 6.05751 9.80876 6.05751 8.33383Z" fill="#4E111C"/>
<path d="M12.8458 5.2459C12.2773 5.2459 11.8164 4.78495 11.8164 4.21645C11.8164 3.64783 12.2773 3.18701 12.8458 3.18701C13.4144 3.18701 13.8753 3.64783 13.8753 4.21645C13.8753 4.78495 13.4144 5.2459 12.8458 5.2459Z" fill="#4E111C"/>
</svg>
