<svg width="11" height="22" viewBox="0 0 11 22" fill="none" xmlns="http://www.w3.org/2000/svg">
<g id="KB-1-logo">
<path id="Vector" d="M4.7034 0.957738C4.19474 0.899094 4.04731 1.3654 4.04731 1.3654C3.84613 2.23692 3.09801 4.27238 0.438229 5.15246C0.438229 5.15246 0.000838128 5.2616 0.000838128 5.71732V8.08468C0.000838128 8.08468 -0.0419236 8.61982 0.483434 8.61982H3.6706C3.6706 8.61982 4.1194 8.66258 4.1194 9.38749V10.4757C4.15646 10.6634 4.26397 10.8108 4.54335 10.6459C4.55923 10.6353 4.57349 10.6264 4.58937 10.617C4.59752 10.6133 4.60485 10.6068 4.61055 10.6015C4.65168 10.5742 4.68059 10.5592 4.70625 10.5555C4.84024 10.4932 4.98929 10.4573 5.14527 10.4573C5.71136 10.4573 6.17359 10.9004 6.20535 11.458C6.20698 11.48 6.20902 11.5003 6.20902 11.5211V12.6015V13.0361C6.24038 13.5476 6.66433 13.9524 7.18276 13.9524C7.72278 13.9524 8.1618 13.5142 8.1618 12.9746V12.6015V9.44614V9.29341C8.1618 8.70615 8.63829 8.23089 9.22433 8.23089C9.40067 8.23089 9.56683 8.27487 9.71344 8.34981C9.71426 8.34981 9.71426 8.34981 9.71548 8.35144C10.0881 8.49683 10.2368 8.31275 10.2905 8.07613V7.48195V1.45988C10.2897 0.971178 9.78797 0.957738 9.78797 0.957738H4.7034Z" fill="#FF0000"/>
<path id="Vector_2" d="M5.74646 12.612C5.74646 12.1584 5.37952 11.791 4.92503 11.791C4.47216 11.791 4.10645 12.1584 4.10645 12.612C4.10645 13.0661 4.47216 13.4322 4.92503 13.4322C5.37952 13.4322 5.74646 13.0657 5.74646 12.612Z" fill="#FF0000"/>
<path id="Vector_3" d="M5.7371 15.2317C5.7371 14.7788 5.37057 14.4106 4.91567 14.4106C4.46239 14.4106 4.09668 14.7792 4.09668 15.2317C4.09668 15.6833 4.4628 16.0519 4.91567 16.0519C5.37057 16.0519 5.7371 15.6833 5.7371 15.2317Z" fill="#FF0000"/>
<path id="Vector_4" d="M4.10645 17.3495C4.10645 17.6721 4.36668 17.9319 4.68841 17.9319C5.01014 17.9319 5.27201 17.6721 5.27201 17.3495C5.27241 17.0266 5.01055 16.7651 4.68841 16.7651C4.36668 16.7651 4.10645 17.0262 4.10645 17.3495Z" fill="#FF0000"/>
<path id="Vector_5" d="M7.19228 14.4224C6.73982 14.4224 6.37207 14.7905 6.37207 15.2434C6.37207 15.6975 6.73982 16.0636 7.19228 16.0636C7.64596 16.0636 8.0133 15.6971 8.0133 15.2434C8.0133 14.7905 7.64596 14.4224 7.19228 14.4224Z" fill="#FF0000"/>
<path id="Vector_6" d="M6.36029 16.7651C6.03733 16.7651 5.77832 17.0262 5.77832 17.3495C5.77832 17.6721 6.03733 17.9319 6.36029 17.9319C6.68365 17.9319 6.94307 17.6721 6.94307 17.3495C6.94307 17.0262 6.68365 16.7651 6.36029 16.7651Z" fill="#FF0000"/>
<path id="Vector_7" d="M8.64258 15.2434C8.64258 15.6975 9.01074 16.0636 9.46279 16.0636C9.91728 16.0636 10.2846 15.6971 10.2846 15.2434C10.2842 14.7905 9.91728 14.4224 9.46279 14.4224C9.01074 14.4224 8.64258 14.7905 8.64258 15.2434Z" fill="#FF0000"/>
<path id="Vector_8" d="M8.03306 16.7651C7.71133 16.7651 7.44824 17.0262 7.44824 17.3495C7.44824 17.6721 7.71133 17.9319 8.03306 17.9319C8.3556 17.9319 8.61706 17.6721 8.61706 17.3495C8.61706 17.0262 8.35601 16.7651 8.03306 16.7651Z" fill="#FF0000"/>
<path id="Vector_9" d="M9.11719 17.3495C9.11719 17.6721 9.37783 17.9319 9.69915 17.9319C10.0225 17.9319 10.284 17.6721 10.284 17.3495C10.284 17.0266 10.0225 16.7651 9.69915 16.7651C9.37783 16.7651 9.11719 17.0262 9.11719 17.3495Z" fill="#FF0000"/>
<path id="Vector_10" d="M4.08105 19.0657C4.08105 19.3606 4.32011 19.5968 4.61252 19.5968C4.90574 19.5968 5.14277 19.3606 5.14277 19.0657C5.14277 18.7733 4.90574 18.5347 4.61252 18.5347C4.32011 18.5347 4.08105 18.7733 4.08105 19.0657Z" fill="#FF0000"/>
<path id="Vector_11" d="M5.7832 19.0657C5.7832 19.3606 6.02023 19.5968 6.31467 19.5968C6.60545 19.5968 6.84369 19.3606 6.84369 19.0657C6.8441 18.7733 6.60545 18.5347 6.31467 18.5347C6.02063 18.5347 5.7832 18.7733 5.7832 19.0657Z" fill="#FF0000"/>
<path id="Vector_12" d="M7.48438 19.0657C7.48438 19.3606 7.72343 19.5968 8.0134 19.5968C8.30703 19.5968 8.54527 19.3606 8.54527 19.0657C8.54527 18.7733 8.30703 18.5347 8.0134 18.5347C7.72303 18.5347 7.48438 18.7733 7.48438 19.0657Z" fill="#FF0000"/>
<path id="Vector_13" d="M9.18262 19.0657C9.18262 19.3606 9.41964 19.5968 9.71286 19.5968C10.0065 19.5968 10.2419 19.3606 10.2419 19.0657C10.2419 18.7733 10.0065 18.5347 9.71286 18.5347C9.41964 18.5347 9.18262 18.7733 9.18262 19.0657Z" fill="#FF0000"/>
<path id="Vector_14" d="M10.2842 10.1364C10.2842 9.68432 9.91565 9.31738 9.4636 9.31738C9.01074 9.31738 8.64258 9.68432 8.64258 10.1364C8.64258 10.5892 9.01074 10.9578 9.4636 10.9578C9.91565 10.9578 10.2842 10.5892 10.2842 10.1364Z" fill="#FF0000"/>
<path id="Vector_15" d="M8.64258 12.6589C8.64258 13.1118 9.01074 13.4803 9.46279 13.4803C9.91728 13.4803 10.2846 13.1118 10.2846 12.6589C10.2842 12.206 9.91728 11.8379 9.46279 11.8379C9.01074 11.8379 8.64258 12.2065 8.64258 12.6589Z" fill="#FF0000"/>
<path id="Vector_16" fill-rule="evenodd" clip-rule="evenodd" d="M10.2677 20.7749V21.0469H4.11816V20.7749H10.2677Z" fill="#FF0000"/>
</g>
</svg>
