<svg width="11" height="22" viewBox="0 0 11 22" fill="none" xmlns="http://www.w3.org/2000/svg">
<path d="M4.7034 0.957738C4.19474 0.899094 4.04731 1.3654 4.04731 1.3654C3.84613 2.23692 3.09801 4.27238 0.438229 5.15246C0.438229 5.15246 0.000838128 5.2616 0.000838128 5.71732V8.08468C0.000838128 8.08468 -0.0419236 8.61982 0.483434 8.61982H3.6706C3.6706 8.61982 4.1194 8.66258 4.1194 9.38749V10.4757C4.15646 10.6634 4.26397 10.8108 4.54335 10.6459C4.55923 10.6353 4.57349 10.6264 4.58937 10.617C4.59752 10.6133 4.60485 10.6068 4.61055 10.6015C4.65168 10.5742 4.68059 10.5592 4.70625 10.5555C4.84024 10.4932 4.98929 10.4573 5.14527 10.4573C5.71136 10.4573 6.17359 10.9004 6.20535 11.458C6.20698 11.48 6.20902 11.5003 6.20902 11.5211V12.6015V13.0361C6.24038 13.5476 6.66433 13.9524 7.18276 13.9524C7.72278 13.9524 8.1618 13.5142 8.1618 12.9746V12.6015V9.44614V9.29341C8.1618 8.70615 8.63829 8.23089 9.22433 8.23089C9.40067 8.23089 9.56683 8.27487 9.71344 8.34981C9.71426 8.34981 9.71426 8.34981 9.71548 8.35144C10.0881 8.49683 10.2368 8.31275 10.2905 8.07613V7.48195V1.45988C10.2897 0.971178 9.78797 0.957738 9.78797 0.957738H4.7034Z" fill="#C24848"/>
<path d="M5.74621 12.6123C5.74621 12.1586 5.37928 11.7913 4.92478 11.7913C4.47192 11.7913 4.1062 12.1586 4.1062 12.6123C4.1062 13.0664 4.47192 13.4325 4.92478 13.4325C5.37928 13.4325 5.74621 13.066 5.74621 12.6123Z" fill="#C24848"/>
<path d="M5.73685 15.2317C5.73685 14.7788 5.37033 14.4106 4.91542 14.4106C4.46215 14.4106 4.09644 14.7792 4.09644 15.2317C4.09644 15.6833 4.46256 16.0519 4.91542 16.0519C5.37033 16.0519 5.73685 15.6833 5.73685 15.2317Z" fill="#C24848"/>
<path d="M4.1062 17.3493C4.1062 17.6718 4.36644 17.9317 4.68817 17.9317C5.0099 17.9317 5.27176 17.6718 5.27176 17.3493C5.27217 17.0263 5.01031 16.7649 4.68817 16.7649C4.36644 16.7649 4.1062 17.0259 4.1062 17.3493Z" fill="#C24848"/>
<path d="M7.19204 14.4224C6.73958 14.4224 6.37183 14.7905 6.37183 15.2434C6.37183 15.6975 6.73958 16.0636 7.19204 16.0636C7.64572 16.0636 8.01306 15.6971 8.01306 15.2434C8.01306 14.7905 7.64572 14.4224 7.19204 14.4224Z" fill="#C24848"/>
<path d="M6.36029 16.7654C6.03733 16.7654 5.77832 17.0264 5.77832 17.3498C5.77832 17.6723 6.03733 17.9322 6.36029 17.9322C6.68365 17.9322 6.94307 17.6723 6.94307 17.3498C6.94307 17.0264 6.68365 16.7654 6.36029 16.7654Z" fill="#C24848"/>
<path d="M8.64258 15.2434C8.64258 15.6975 9.01074 16.0636 9.46279 16.0636C9.91728 16.0636 10.2846 15.6971 10.2846 15.2434C10.2842 14.7905 9.91728 14.4224 9.46279 14.4224C9.01074 14.4224 8.64258 14.7905 8.64258 15.2434Z" fill="#C24848"/>
<path d="M8.03282 16.7654C7.71108 16.7654 7.448 17.0264 7.448 17.3498C7.448 17.6723 7.71108 17.9322 8.03282 17.9322C8.35536 17.9322 8.61682 17.6723 8.61682 17.3498C8.61682 17.0264 8.35577 16.7654 8.03282 16.7654Z" fill="#C24848"/>
<path d="M9.1167 17.3493C9.1167 17.6718 9.37734 17.9317 9.69867 17.9317C10.022 17.9317 10.2835 17.6718 10.2835 17.3493C10.2835 17.0263 10.022 16.7649 9.69867 16.7649C9.37734 16.7649 9.1167 17.0259 9.1167 17.3493Z" fill="#C24848"/>
<path d="M4.08081 19.0657C4.08081 19.3606 4.31987 19.5968 4.61228 19.5968C4.9055 19.5968 5.14252 19.3606 5.14252 19.0657C5.14252 18.7733 4.9055 18.5347 4.61228 18.5347C4.31987 18.5347 4.08081 18.7733 4.08081 19.0657Z" fill="#C24848"/>
<path d="M5.7832 19.0657C5.7832 19.3606 6.02023 19.5968 6.31467 19.5968C6.60545 19.5968 6.84369 19.3606 6.84369 19.0657C6.8441 18.7733 6.60545 18.5347 6.31467 18.5347C6.02063 18.5347 5.7832 18.7733 5.7832 19.0657Z" fill="#C24848"/>
<path d="M7.48389 19.0657C7.48389 19.3606 7.72295 19.5968 8.01291 19.5968C8.30654 19.5968 8.54478 19.3606 8.54478 19.0657C8.54478 18.7733 8.30654 18.5347 8.01291 18.5347C7.72254 18.5347 7.48389 18.7733 7.48389 19.0657Z" fill="#C24848"/>
<path d="M9.18213 19.0657C9.18213 19.3606 9.41915 19.5968 9.71237 19.5968C10.006 19.5968 10.2414 19.3606 10.2414 19.0657C10.2414 18.7733 10.006 18.5347 9.71237 18.5347C9.41915 18.5347 9.18213 18.7733 9.18213 19.0657Z" fill="#C24848"/>
<path d="M10.2842 10.1364C10.2842 9.68432 9.91565 9.31738 9.4636 9.31738C9.01074 9.31738 8.64258 9.68432 8.64258 10.1364C8.64258 10.5892 9.01074 10.9578 9.4636 10.9578C9.91565 10.9578 10.2842 10.5892 10.2842 10.1364Z" fill="#C24848"/>
<path d="M8.64258 12.6589C8.64258 13.1118 9.01074 13.4803 9.46279 13.4803C9.91728 13.4803 10.2846 13.1118 10.2846 12.6589C10.2842 12.206 9.91728 11.8379 9.46279 11.8379C9.01074 11.8379 8.64258 12.2065 8.64258 12.6589Z" fill="#C24848"/>
<path fill-rule="evenodd" clip-rule="evenodd" d="M10.2672 20.7751V21.0472H4.11768V20.7751H10.2672Z" fill="#C24848"/>
</svg>
