<svg width="18" height="18" viewBox="0 0 18 18" fill="none" xmlns="http://www.w3.org/2000/svg">
<path fill-rule="evenodd" clip-rule="evenodd" d="M16.959 17.9236C17.0307 17.9236 13.7565 17.9243 13.6842 17.9243C13.0872 17.9243 13.105 17.374 13.1546 15.839C13.1838 14.9379 13.2239 13.6976 13.1571 12.0302C13.1571 10.3986 12.9877 9.67054 11.98 9.67054C11.0692 9.67054 10.5421 10.0419 10.5421 11.9381C10.4749 13.6396 10.5157 14.9021 10.5453 15.8173C10.5956 17.3712 10.6135 17.9236 10.015 17.9236H6.74018C6.13735 17.9236 6.14655 17.4979 6.20277 14.8957C6.23989 13.1781 6.29749 10.5123 6.21311 6.39489C6.21311 6.09225 6.44923 5.84663 6.74018 5.84663C7.60121 5.89996 8.29819 5.86862 8.84413 5.84407C9.92235 5.79559 10.4114 5.7736 10.4114 6.48261C11.046 5.9636 11.9265 5.57104 13.032 5.57104C17.6377 5.57104 17.5645 9.46149 17.4799 13.9622C17.4589 15.0791 17.4372 16.2335 17.4861 17.3754C17.4861 17.678 17.25 17.9236 16.959 17.9236ZM7.26664 16.8273H9.48737C9.48737 16.1054 9.47132 15.4085 9.45606 14.7463C9.37321 11.1488 9.31391 8.57418 11.9794 8.57418C14.3312 8.57418 14.2958 10.7713 14.2333 14.647C14.2224 15.3237 14.2106 16.0516 14.2106 16.828H16.4313V11.3432C16.4313 7.93454 15.51 6.66771 13.0314 6.66771C11.6399 6.66771 10.7418 7.46524 10.396 8.148C10.1276 8.67725 9.35665 8.41847 9.35665 7.89215V6.9433H7.26664V16.8273Z" fill="#4E111C"/>
<path fill-rule="evenodd" clip-rule="evenodd" d="M0.0303316 8.67967C-0.0348522 6.02186 -0.0453866 5.59233 0.658005 5.59233C1.66478 5.64898 2.50838 5.61751 3.18099 5.59243C4.44935 5.54512 5.10969 5.52049 5.10969 6.15216C5.01101 10.3609 5.07779 13.0838 5.12078 14.837C5.18597 17.4948 5.1965 17.9243 4.49311 17.9243H0.658005C0.317655 17.9243 0.0414286 17.6735 0.0414286 17.3645C0.140109 13.1557 0.0733301 10.4329 0.0303316 8.67967ZM1.27435 16.8047H3.87631V6.712H1.27435V16.8047Z" fill="#4E111C"/>
<path fill-rule="evenodd" clip-rule="evenodd" d="M2.57527 0.423828C-0.866342 0.423828 -0.845283 5.57104 2.57527 5.57104C5.99357 5.57104 6.02065 0.423828 2.57527 0.423828ZM2.57466 4.4569C0.643265 4.4569 0.625215 1.53824 2.57466 1.53824C4.52787 1.53824 4.50305 4.4569 2.57466 4.4569Z" fill="#4E111C"/>
</svg>
