<svg width="27" height="39" viewBox="0 0 27 39" fill="none" xmlns="http://www.w3.org/2000/svg">
<path d="M13.5 0C6.05615 0 0 6.08137 0 13.5562C0 22.9513 13.5133 39 13.5133 39C13.5133 39 27 22.4893 27 13.5562C27 6.08137 20.9441 0 13.5 0ZM17.5732 17.5255C16.4501 18.6531 14.9752 19.217 13.5 19.217C12.0251 19.217 10.5497 18.6531 9.42701 17.5255C7.18096 15.2703 7.18096 11.6007 9.42701 9.34534C10.5146 8.25275 11.9613 7.65099 13.5 7.65099C15.0387 7.65099 16.4852 8.25299 17.5732 9.34534C19.8193 11.6007 19.8193 15.2703 17.5732 17.5255Z" fill="#C24848"/>
</svg>
