<svg width="45" height="45" viewBox="0 0 45 45" fill="none" xmlns="http://www.w3.org/2000/svg">
<mask id="mask0" mask-type="alpha" maskUnits="userSpaceOnUse" x="0" y="0" width="45" height="45">
<circle cx="22.5" cy="22.5" r="22.5" fill="#C4C4C4"/>
</mask>
<g mask="url(#mask0)">
<path d="M39.4861 13.454C39.2101 13.0263 38.7384 12.7684 38.2323 12.7684H24.9144V9.5963C24.9144 8.35395 23.9154 7.34692 22.6829 7.34692C21.4504 7.34692 20.4514 8.35395 20.4514 9.5963V23.2881H7.13287C6.62683 23.2881 6.15511 23.546 5.87911 23.9738L3.48024 27.6917C3.38549 27.8383 3.38549 28.0276 3.48024 28.1746L5.87911 31.8925C6.15511 32.3202 6.62683 32.5781 7.13287 32.5781H20.4511V61.5532H16.2998C15.0673 61.5532 14.0683 62.5602 14.0683 63.8026C14.0683 65.0449 15.0673 66.052 16.2998 66.052H29.0657C30.2982 66.052 31.2972 65.0449 31.2972 63.8026C31.2972 62.5602 30.2982 61.5532 29.0657 61.5532H24.9144V22.0578H38.2323C38.7384 22.0578 39.2101 21.7999 39.4861 21.3721L41.885 17.6542C41.9797 17.5076 41.9797 17.3183 41.885 17.1713L39.4861 13.454Z" fill="#C24848"/>
</g>
</svg>
