<svg width="83" height="44" viewBox="0 0 83 44" fill="none" xmlns="http://www.w3.org/2000/svg">
<mask id="mask0" mask-type="alpha" maskUnits="userSpaceOnUse" x="39" y="0" width="44" height="43">
<rect x="50.0093" y="0.000244141" width="33.643" height="33.643" transform="rotate(18.0198 50.0093 0.000244141)" fill="white"/>
</mask>
<g mask="url(#mask0)">
<path d="M74.9345 14.0057C76.4009 14.4827 77.2103 16.0727 76.7333 17.539L71.5297 33.5354C71.0527 35.0018 69.4627 35.8112 67.9963 35.3342L46.6678 28.396C45.2015 27.919 44.392 26.329 44.869 24.8627L50.0727 8.86626C50.5497 7.39993 52.1397 6.59047 53.606 7.06747L74.9345 14.0057Z" stroke="#FFE5BF" stroke-width="2" stroke-linecap="round" stroke-linejoin="round"/>
<path d="M76.7334 17.5385L60.3676 22.5333L50.0728 8.86572" stroke="#FFE5BF" stroke-width="2" stroke-linecap="round" stroke-linejoin="round"/>
</g>
<mask id="mask1" mask-type="alpha" maskUnits="userSpaceOnUse" x="0" y="0" width="44" height="44">
<rect y="12.9148" width="33.643" height="33.643" transform="rotate(-22.5739 0 12.9148)" fill="white"/>
</mask>
<g mask="url(#mask1)">
<path d="M28.0401 7.33105C29.4639 6.73913 31.1131 7.41978 31.7051 8.84361L38.1624 24.3763C38.7544 25.8002 38.0737 27.4494 36.6499 28.0414L15.9396 36.6512C14.5157 37.2431 12.8665 36.5624 12.2746 35.1386L5.81719 19.6059C5.22527 18.182 5.90592 16.5328 7.32975 15.9409L28.0401 7.33105Z" stroke="#FFE5BF" stroke-width="2" stroke-linecap="round" stroke-linejoin="round"/>
<path d="M31.7048 8.8432L22.5276 23.2851L5.81689 19.6055" stroke="#FFE5BF" stroke-width="2" stroke-linecap="round" stroke-linejoin="round"/>
</g>
<mask id="mask2" mask-type="alpha" maskUnits="userSpaceOnUse" x="25" y="6" width="34" height="35">
<rect x="25.3013" y="6.60059" width="33.643" height="33.643" fill="white"/>
</mask>
<g mask="url(#mask2)">
<path d="M53.3363 12.2085C54.8782 12.2085 56.1398 13.4701 56.1398 15.0121V31.8336C56.1398 33.3756 54.8782 34.6372 53.3363 34.6372H30.9076C29.3656 34.6372 28.104 33.3756 28.104 31.8336V15.0121C28.104 13.4701 29.3656 12.2085 30.9076 12.2085H53.3363Z" fill="#C24848" stroke="#FFE5BF" stroke-width="2" stroke-linecap="round" stroke-linejoin="round"/>
<path d="M56.1398 15.0115L42.1219 24.824L28.104 15.0115" stroke="#FFE5BF" stroke-width="2" stroke-linecap="round" stroke-linejoin="round"/>
</g>
</svg>
