<svg width="23" height="20" viewBox="0 0 23 20" fill="none" xmlns="http://www.w3.org/2000/svg">
<path d="M6.13889 3.04414C6.13889 1.36503 4.7799 0 3.09324 0C1.41261 0 0.0566406 1.36654 0.0566406 3.04414C0.0566406 4.71872 1.41412 6.08527 3.09324 6.08527C4.7799 6.08527 6.13889 4.71872 6.13889 3.04414Z" fill="#9F9F9F"/>
<path d="M0.0898438 10.8962C0.0898438 12.0921 1.05473 13.0555 2.24762 13.0555C3.44052 13.0555 4.41144 12.0921 4.41144 10.8962C4.41295 9.69878 3.44203 8.72937 2.24762 8.72937C1.05473 8.72937 0.0898438 9.69727 0.0898438 10.8962Z" fill="#9F9F9F"/>
<path d="M11.5333 0.0436401C9.85571 0.0436401 8.49219 1.40867 8.49219 3.08779C8.49219 4.77143 9.85571 6.12891 11.5333 6.12891C13.2154 6.12891 14.5775 4.76992 14.5775 3.08779C14.5775 1.40867 13.2154 0.0436401 11.5333 0.0436401Z" fill="#9F9F9F"/>
<path d="M8.45173 8.73083C7.2543 8.73083 6.29395 9.69874 6.29395 10.8977C6.29395 12.0936 7.2543 13.057 8.45173 13.057C9.65066 13.057 10.6125 12.0936 10.6125 10.8977C10.6125 9.69874 9.65066 8.73083 8.45173 8.73083Z" fill="#9F9F9F"/>
<path d="M16.9092 3.08779C16.9092 4.77143 18.2742 6.12891 19.9503 6.12891C21.6355 6.12891 22.9975 4.76992 22.9975 3.08779C22.996 1.40867 21.6355 0.0436401 19.9503 0.0436401C18.2742 0.0436401 16.9092 1.40867 16.9092 3.08779Z" fill="#9F9F9F"/>
<path d="M14.6517 8.73083C13.4589 8.73083 12.4834 9.69874 12.4834 10.8977C12.4834 12.0936 13.4589 13.057 14.6517 13.057C15.8477 13.057 16.8171 12.0936 16.8171 10.8977C16.8171 9.69874 15.8492 8.73083 14.6517 8.73083Z" fill="#9F9F9F"/>
<path d="M18.6738 10.8962C18.6738 12.0921 19.6402 13.0555 20.8316 13.0555C22.0305 13.0555 23 12.0921 23 10.8962C23 9.69878 22.0305 8.72937 20.8316 8.72937C19.6402 8.72937 18.6738 9.69727 18.6738 10.8962Z" fill="#9F9F9F"/>
<path d="M0 17.2604C0 18.3536 0.886365 19.2294 1.97054 19.2294C3.05773 19.2294 3.93655 18.3536 3.93655 17.2604C3.93655 16.1762 3.05773 15.2914 1.97054 15.2914C0.886365 15.2914 0 16.1762 0 17.2604Z" fill="#9F9F9F"/>
<path d="M6.30566 17.2604C6.30566 18.3536 7.18448 19.2294 8.2762 19.2294C9.35434 19.2294 10.2377 18.3536 10.2377 17.2604C10.2392 16.1762 9.35434 15.2914 8.2762 15.2914C7.18599 15.2914 6.30566 16.1762 6.30566 17.2604Z" fill="#9F9F9F"/>
<path d="M12.6123 17.2604C12.6123 18.3536 13.4987 19.2294 14.5738 19.2294C15.6625 19.2294 16.5458 18.3536 16.5458 17.2604C16.5458 16.1762 15.6625 15.2914 14.5738 15.2914C13.4972 15.2914 12.6123 16.1762 12.6123 17.2604Z" fill="#9F9F9F"/>
<path d="M18.9141 17.2604C18.9141 18.3536 19.7929 19.2294 20.8801 19.2294C21.9688 19.2294 22.8416 18.3536 22.8416 17.2604C22.8416 16.1762 21.9688 15.2914 20.8801 15.2914C19.7929 15.2914 18.9141 16.1762 18.9141 17.2604Z" fill="#9F9F9F"/>
</svg>
