<svg width="52" height="52" viewBox="0 0 52 52" fill="none" xmlns="http://www.w3.org/2000/svg">
<path fill-rule="evenodd" clip-rule="evenodd" d="M0.835693 26.3903C0.835693 40.4078 12.163 51.8124 26.0872 51.8124C40.0099 51.8124 51.3364 40.4078 51.3364 26.3903C51.3364 12.372 40.0099 0.968262 26.0872 0.968262C12.163 0.968262 0.835693 12.372 0.835693 26.3903ZM24.8542 19.0263C24.8542 22.4066 22.1215 25.1577 18.7639 25.1577C15.405 25.1577 12.6727 22.4066 12.6727 19.0263C12.6727 15.6443 15.4054 12.894 18.7639 12.894C22.1215 12.894 24.8542 15.6443 24.8542 19.0263ZM15.7956 38.3411C15.3916 38.3411 14.9872 38.1853 14.6787 37.8747C14.062 37.2539 14.062 36.2465 14.6787 35.6265L35.2598 14.9055C35.8761 14.2846 36.8763 14.2846 37.4934 14.9055C38.1101 15.5264 38.1101 16.5337 37.4934 17.1542L16.9122 37.8747C16.6045 38.1853 16.1993 38.3411 15.7956 38.3411ZM27.2847 33.7349C27.2847 30.3546 30.0174 27.6034 33.3758 27.6034C36.7339 27.6034 39.4662 30.3546 39.4662 33.7349C39.4658 37.1164 36.7335 39.8672 33.3758 39.8672C30.0174 39.8672 27.2847 37.1164 27.2847 33.7349Z" fill="#C24848"/>
</svg>
