<svg width="52" height="52" viewBox="0 0 52 52" fill="none" xmlns="http://www.w3.org/2000/svg">
<path fill-rule="evenodd" clip-rule="evenodd" d="M0.835724 26.3899C0.835724 40.4074 12.163 51.812 26.0872 51.812C40.0099 51.812 51.3364 40.4074 51.3364 26.3899C51.3364 12.3717 40.0099 0.967896 26.0872 0.967896C12.163 0.967896 0.835724 12.3717 0.835724 26.3899ZM24.8543 19.0259C24.8543 22.4062 22.1216 25.1574 18.7639 25.1574C15.4051 25.1574 12.6728 22.4062 12.6728 19.0259C12.6728 15.644 15.4055 12.8936 18.7639 12.8936C22.1216 12.8936 24.8543 15.644 24.8543 19.0259ZM15.7957 38.3407C15.3916 38.3407 14.9872 38.185 14.6787 37.8744C14.062 37.2535 14.062 36.2462 14.6787 35.6261L35.2599 14.9051C35.8762 14.2843 36.8764 14.2843 37.4934 14.9051C38.1101 15.526 38.1101 16.5333 37.4934 17.1538L16.9123 37.8744C16.6045 38.185 16.1993 38.3407 15.7957 38.3407ZM27.2847 33.7345C27.2847 30.3542 30.0174 27.6031 33.3759 27.6031C36.7339 27.6031 39.4662 30.3542 39.4662 33.7345C39.4658 37.1161 36.7335 39.8668 33.3759 39.8668C30.0174 39.8668 27.2847 37.1161 27.2847 33.7345Z" fill="white"/>
</svg>
