<svg width="29" height="25" viewBox="0 0 29 25" fill="none" xmlns="http://www.w3.org/2000/svg">
<g id="Services-icon-svg">
<path id="Vector" d="M8.0189 4.28423C8.0189 2.21403 6.34338 0.531067 4.26388 0.531067C2.19182 0.531067 0.52002 2.21589 0.52002 4.28423C0.52002 6.34884 2.19368 8.03367 4.26388 8.03367C6.34338 8.03367 8.0189 6.34884 8.0189 4.28423Z" fill="#E8E8E8"/>
<path id="Vector_2" d="M0.562256 13.9652C0.562256 15.4396 1.75188 16.6274 3.22261 16.6274C4.69334 16.6274 5.89041 15.4396 5.89041 13.9652C5.89227 12.4888 4.6952 11.2936 3.22261 11.2936C1.75188 11.2936 0.562256 12.487 0.562256 13.9652Z" fill="#E8E8E8"/>
<path id="Vector_3" d="M14.6708 0.585327C12.6025 0.585327 10.9214 2.26829 10.9214 4.33849C10.9214 6.41427 12.6025 8.08794 14.6708 8.08794C16.7447 8.08794 18.424 6.41241 18.424 4.33849C18.424 2.26829 16.7447 0.585327 14.6708 0.585327Z" fill="#E8E8E8"/>
<path id="Vector_4" d="M10.872 11.2958C9.39571 11.2958 8.21167 12.4892 8.21167 13.9674C8.21167 15.4418 9.39571 16.6296 10.872 16.6296C12.3502 16.6296 13.5361 15.4418 13.5361 13.9674C13.5361 12.4892 12.3502 11.2958 10.872 11.2958Z" fill="#E8E8E8"/>
<path id="Vector_5" d="M21.3 4.33849C21.3 6.41427 22.983 8.08794 25.0495 8.08794C27.1271 8.08794 28.8064 6.41241 28.8064 4.33849C28.8045 2.26829 27.1271 0.585327 25.0495 0.585327C22.983 0.585327 21.3 2.26829 21.3 4.33849Z" fill="#E8E8E8"/>
<path id="Vector_6" d="M18.5147 11.2958C17.044 11.2958 15.8413 12.4892 15.8413 13.9674C15.8413 15.4418 17.044 16.6296 18.5147 16.6296C19.9892 16.6296 21.1844 15.4418 21.1844 13.9674C21.1844 12.4892 19.991 11.2958 18.5147 11.2958Z" fill="#E8E8E8"/>
<path id="Vector_7" d="M23.4746 13.9652C23.4746 15.4396 24.6661 16.6274 26.135 16.6274C27.6131 16.6274 28.8083 15.4396 28.8083 13.9652C28.8083 12.4888 27.6131 11.2936 26.135 11.2936C24.6661 11.2936 23.4746 12.487 23.4746 13.9652Z" fill="#E8E8E8"/>
<path id="Vector_8" d="M0.45166 21.8121C0.45166 23.16 1.54447 24.2397 2.88116 24.2397C4.22158 24.2397 5.30508 23.16 5.30508 21.8121C5.30508 20.4754 4.22158 19.3845 2.88116 19.3845C1.54447 19.3845 0.45166 20.4754 0.45166 21.8121Z" fill="#E8E8E8"/>
<path id="Vector_9" d="M8.22583 21.8121C8.22583 23.16 9.30933 24.2397 10.6553 24.2397C11.9846 24.2397 13.0737 23.16 13.0737 21.8121C13.0755 20.4754 11.9846 19.3845 10.6553 19.3845C9.3112 19.3845 8.22583 20.4754 8.22583 21.8121Z" fill="#E8E8E8"/>
<path id="Vector_10" d="M16.002 21.8121C16.002 23.16 17.0948 24.2397 18.4203 24.2397C19.7626 24.2397 20.8517 23.16 20.8517 21.8121C20.8517 20.4754 19.7626 19.3845 18.4203 19.3845C17.0929 19.3845 16.002 20.4754 16.002 21.8121Z" fill="#E8E8E8"/>
<path id="Vector_11" d="M23.7708 21.8121C23.7708 23.16 24.8543 24.2397 26.1947 24.2397C27.5369 24.2397 28.613 23.16 28.613 21.8121C28.613 20.4754 27.5369 19.3845 26.1947 19.3845C24.8543 19.3845 23.7708 20.4754 23.7708 21.8121Z" fill="#E8E8E8"/>
</g>
</svg>
