<svg width="29" height="25" viewBox="0 0 29 25" fill="none" xmlns="http://www.w3.org/2000/svg">
<path d="M8.0189 4.69945C8.0189 2.62925 6.34338 0.946289 4.26388 0.946289C2.19182 0.946289 0.52002 2.63111 0.52002 4.69945C0.52002 6.76406 2.19368 8.44889 4.26388 8.44889C6.34338 8.44889 8.0189 6.76406 8.0189 4.69945Z" fill="#DE500D"/>
<path d="M0.562195 14.3805C0.562195 15.855 1.75181 17.0427 3.22255 17.0427C4.69328 17.0427 5.89035 15.855 5.89035 14.3805C5.89221 12.9042 4.69514 11.709 3.22255 11.709C1.75181 11.709 0.562195 12.9023 0.562195 14.3805Z" fill="#DE500D"/>
<path d="M14.6707 1.00049C12.6024 1.00049 10.9213 2.68346 10.9213 4.75365C10.9213 6.82944 12.6024 8.5031 14.6707 8.5031C16.7446 8.5031 18.4239 6.82757 18.4239 4.75365C18.4239 2.68346 16.7446 1.00049 14.6707 1.00049Z" fill="#DE500D"/>
<path d="M10.8719 11.7109C9.39558 11.7109 8.21155 12.9043 8.21155 14.3825C8.21155 15.8569 9.39558 17.0447 10.8719 17.0447C12.3501 17.0447 13.536 15.8569 13.536 14.3825C13.536 12.9043 12.3501 11.7109 10.8719 11.7109Z" fill="#DE500D"/>
<path d="M21.3 4.75365C21.3 6.82944 22.9829 8.5031 25.0494 8.5031C27.127 8.5031 28.8063 6.82757 28.8063 4.75365C28.8044 2.68346 27.127 1.00049 25.0494 1.00049C22.9829 1.00049 21.3 2.68346 21.3 4.75365Z" fill="#DE500D"/>
<path d="M18.5146 11.7109C17.0439 11.7109 15.8412 12.9043 15.8412 14.3825C15.8412 15.8569 17.0439 17.0447 18.5146 17.0447C19.9891 17.0447 21.1843 15.8569 21.1843 14.3825C21.1843 12.9043 19.991 11.7109 18.5146 11.7109Z" fill="#DE500D"/>
<path d="M23.4745 14.3805C23.4745 15.855 24.666 17.0427 26.1349 17.0427C27.6131 17.0427 28.8083 15.855 28.8083 14.3805C28.8083 12.9042 27.6131 11.709 26.1349 11.709C24.666 11.709 23.4745 12.9023 23.4745 14.3805Z" fill="#DE500D"/>
<path d="M0.45163 22.2274C0.45163 23.5753 1.54444 24.6551 2.88113 24.6551C4.22155 24.6551 5.30505 23.5753 5.30505 22.2274C5.30505 20.8908 4.22155 19.7998 2.88113 19.7998C1.54444 19.7998 0.45163 20.8908 0.45163 22.2274Z" fill="#DE500D"/>
<path d="M8.22583 22.2274C8.22583 23.5753 9.30933 24.6551 10.6553 24.6551C11.9846 24.6551 13.0737 23.5753 13.0737 22.2274C13.0755 20.8908 11.9846 19.7998 10.6553 19.7998C9.3112 19.7998 8.22583 20.8908 8.22583 22.2274Z" fill="#DE500D"/>
<path d="M16.0018 22.2274C16.0018 23.5753 17.0946 24.6551 18.4201 24.6551C19.7624 24.6551 20.8515 23.5753 20.8515 22.2274C20.8515 20.8908 19.7624 19.7998 18.4201 19.7998C17.0928 19.7998 16.0018 20.8908 16.0018 22.2274Z" fill="#DE500D"/>
<path d="M23.7707 22.2274C23.7707 23.5753 24.8542 24.6551 26.1946 24.6551C27.5369 24.6551 28.6129 23.5753 28.6129 22.2274C28.6129 20.8908 27.5369 19.7998 26.1946 19.7998C24.8542 19.7998 23.7707 20.8908 23.7707 22.2274Z" fill="#DE500D"/>
</svg>
