<svg width="29" height="25" viewBox="0 0 29 25" fill="none" xmlns="http://www.w3.org/2000/svg">
<path d="M8.0189 4.28441C8.0189 2.21421 6.34338 0.53125 4.26388 0.53125C2.19182 0.53125 0.52002 2.21607 0.52002 4.28441C0.52002 6.34902 2.19368 8.03385 4.26388 8.03385C6.34338 8.03385 8.0189 6.34902 8.0189 4.28441Z" fill="#E8E8E8"/>
<path d="M0.562256 13.9655C0.562256 15.4399 1.75188 16.6277 3.22261 16.6277C4.69334 16.6277 5.89041 15.4399 5.89041 13.9655C5.89227 12.4891 4.6952 11.2939 3.22261 11.2939C1.75188 11.2939 0.562256 12.4873 0.562256 13.9655Z" fill="#E8E8E8"/>
<path d="M14.6708 0.585449C12.6025 0.585449 10.9214 2.26842 10.9214 4.33861C10.9214 6.4144 12.6025 8.08806 14.6708 8.08806C16.7447 8.08806 18.424 6.41254 18.424 4.33861C18.424 2.26842 16.7447 0.585449 14.6708 0.585449Z" fill="#E8E8E8"/>
<path d="M10.872 11.2959C9.39571 11.2959 8.21167 12.4892 8.21167 13.9674C8.21167 15.4419 9.39571 16.6296 10.872 16.6296C12.3502 16.6296 13.5361 15.4419 13.5361 13.9674C13.5361 12.4892 12.3502 11.2959 10.872 11.2959Z" fill="#E8E8E8"/>
<path d="M21.3 4.33861C21.3 6.4144 22.983 8.08806 25.0495 8.08806C27.1271 8.08806 28.8064 6.41254 28.8064 4.33861C28.8045 2.26842 27.1271 0.585449 25.0495 0.585449C22.983 0.585449 21.3 2.26842 21.3 4.33861Z" fill="#E8E8E8"/>
<path d="M18.5147 11.2959C17.044 11.2959 15.8413 12.4892 15.8413 13.9674C15.8413 15.4419 17.044 16.6296 18.5147 16.6296C19.9892 16.6296 21.1844 15.4419 21.1844 13.9674C21.1844 12.4892 19.991 11.2959 18.5147 11.2959Z" fill="#E8E8E8"/>
<path d="M23.4746 13.9655C23.4746 15.4399 24.6661 16.6277 26.135 16.6277C27.6131 16.6277 28.8083 15.4399 28.8083 13.9655C28.8083 12.4891 27.6131 11.2939 26.135 11.2939C24.6661 11.2939 23.4746 12.4873 23.4746 13.9655Z" fill="#E8E8E8"/>
<path d="M0.45166 21.8124C0.45166 23.1603 1.54447 24.24 2.88116 24.24C4.22158 24.24 5.30508 23.1603 5.30508 21.8124C5.30508 20.4757 4.22158 19.3848 2.88116 19.3848C1.54447 19.3848 0.45166 20.4757 0.45166 21.8124Z" fill="#E8E8E8"/>
<path d="M8.22583 21.8124C8.22583 23.1603 9.30933 24.24 10.6553 24.24C11.9846 24.24 13.0737 23.1603 13.0737 21.8124C13.0755 20.4757 11.9846 19.3848 10.6553 19.3848C9.3112 19.3848 8.22583 20.4757 8.22583 21.8124Z" fill="#E8E8E8"/>
<path d="M16.002 21.8124C16.002 23.1603 17.0948 24.24 18.4203 24.24C19.7626 24.24 20.8517 23.1603 20.8517 21.8124C20.8517 20.4757 19.7626 19.3848 18.4203 19.3848C17.0929 19.3848 16.002 20.4757 16.002 21.8124Z" fill="#E8E8E8"/>
<path d="M23.7708 21.8124C23.7708 23.1603 24.8543 24.24 26.1947 24.24C27.5369 24.24 28.613 23.1603 28.613 21.8124C28.613 20.4757 27.5369 19.3848 26.1947 19.3848C24.8543 19.3848 23.7708 20.4757 23.7708 21.8124Z" fill="#E8E8E8"/>
</svg>
