<svg width="44" height="49" viewBox="0 0 44 49" fill="none" xmlns="http://www.w3.org/2000/svg">
<path d="M43.4025 24.9738V29.3737C43.4025 32.3462 40.9972 34.7515 38.0248 34.7515H19.4471C16.4747 34.7515 14.0694 32.3462 14.0694 29.3737V24.9738H43.4025Z" fill="white"/>
<path d="M43.4025 18.6179V19.1067H14.0694V18.6179C14.0694 15.6454 16.4747 13.2401 19.4471 13.2401H38.0248C40.9972 13.2401 43.4025 15.6454 43.4025 18.6179Z" fill="white"/>
<path d="M27.7581 42.4515C27.7581 43.5535 26.882 44.4478 25.8025 44.4478H6.24711C5.16765 44.4478 4.29156 43.5535 4.29156 42.4515V28.9766V24.4849V20.4924V19.9933V6.51839C4.29156 5.41644 5.16765 4.52211 6.24711 4.52211H7.22488C8.30434 4.52211 9.18042 5.41644 9.18042 6.51839C9.18042 7.62034 10.0565 8.51468 11.136 8.51468H20.9137C21.9931 8.51468 22.8692 7.62034 22.8692 6.51839C22.8692 5.41644 23.7453 4.52211 24.8248 4.52211H25.8025C26.882 4.52211 27.7581 5.41644 27.7581 6.51839V10.511H31.6692V6.51839C31.6692 3.21654 29.037 0.529541 25.8025 0.529541H6.24711C3.01264 0.529541 0.380478 3.21654 0.380478 6.51839V42.4515C0.380478 45.7534 3.01264 48.4404 6.24711 48.4404H25.8025C29.037 48.4404 31.6692 45.7534 31.6692 42.4515V38.4589H27.7581V42.4515Z" fill="white"/>
</svg>
