<svg width="44" height="49" viewBox="0 0 44 49" fill="none" xmlns="http://www.w3.org/2000/svg">
<path d="M43.4027 24.9741V29.3741C43.4027 32.3465 40.9974 34.7518 38.025 34.7518H19.4473C16.4749 34.7518 14.0696 32.3465 14.0696 29.3741V24.9741H43.4027Z" fill="#C24848"/>
<path d="M43.4027 18.618V19.1069H14.0696V18.618C14.0696 15.6456 16.4749 13.2402 19.4473 13.2402H38.025C40.9974 13.2402 43.4027 15.6456 43.4027 18.618Z" fill="#C24848"/>
<path d="M27.7582 42.4517C27.7582 43.5537 26.8821 44.448 25.8027 44.448H6.24725C5.16779 44.448 4.2917 43.5537 4.2917 42.4517V28.9768V24.4852V20.4926V19.9936V6.51864C4.2917 5.41669 5.16779 4.52235 6.24725 4.52235H7.22502C8.30448 4.52235 9.18056 5.41669 9.18056 6.51864C9.18056 7.62059 10.0566 8.51492 11.1361 8.51492H20.9138C21.9933 8.51492 22.8694 7.62059 22.8694 6.51864C22.8694 5.41669 23.7454 4.52235 24.8249 4.52235H25.8027C26.8821 4.52235 27.7582 5.41669 27.7582 6.51864V10.5112H31.6693V6.51864C31.6693 3.21678 29.0371 0.529785 25.8027 0.529785H6.24725C3.01278 0.529785 0.380615 3.21678 0.380615 6.51864V42.4517C0.380615 45.7536 3.01278 48.4406 6.24725 48.4406H25.8027C29.0371 48.4406 31.6693 45.7536 31.6693 42.4517V38.4592H27.7582V42.4517Z" fill="#C24848"/>
</svg>
