<svg width="22" height="17" viewBox="0 0 22 17" fill="none" xmlns="http://www.w3.org/2000/svg">
<path fill-rule="evenodd" clip-rule="evenodd" d="M20.4584 2.34227C20.6501 2.33396 20.9527 2.32085 21.4521 2.29835C21.449 2.30281 19.999 4.24613 19.488 4.91295C19.2329 5.24597 19.1055 5.67987 19.1292 6.13449C19.2863 9.13754 18.5301 12.0233 16.2256 14.052C13.4896 16.4605 9.42542 16.9111 5.81571 16.3578C4.19181 16.1088 2.54828 15.2786 2.08317 15.03L0.863281 14.3781L2.18401 13.9537C3.62758 13.4896 4.50582 13.2018 5.59297 12.7509C4.5044 12.2356 3.66559 11.3087 3.26174 10.1107L2.95449 9.1988L3.20629 9.23657C2.96737 9.00104 2.77888 8.76229 2.63248 8.54488C2.11254 7.77289 1.83718 6.82925 1.89577 6.02087L1.95358 5.22509L2.44084 5.40964C2.23522 5.0301 2.08678 4.62476 1.99944 4.19976C1.7866 3.16384 1.96473 2.06313 2.50116 1.10045L2.92559 0.338598L3.49359 1.00541C5.28949 3.1141 7.56417 4.36497 10.2639 4.73116C10.0156 3.05806 10.7601 1.62663 12.1473 0.793069C13.8413 -0.224579 16.2107 -0.162703 17.8047 1.23771C18.4117 1.08372 20.8059 0.22283 20.8059 0.22283L20.0389 2.36391C20.1288 2.35656 20.1528 2.35552 20.4584 2.34227ZM17.925 6.19477C17.8869 5.46577 18.0992 4.75965 18.5228 4.20676C18.7036 3.97093 18.8539 3.77424 18.9793 3.60996L18.3151 3.6095L18.8354 2.15734C18.5855 2.2444 18.3302 2.32439 18.0192 2.39993C17.6727 2.48407 17.3024 2.38719 17.0287 2.14091C15.761 0.999819 13.9309 1.10422 12.7779 1.79683C12.2259 2.12847 11.0021 3.1082 11.5605 5.03771L11.5614 5.04057C11.5857 5.12462 11.5892 5.13673 11.6842 6.03785C11.6287 6.02527 11.5101 6.01884 11.3379 6.0095C10.1562 5.94541 6.44675 5.74422 3.22664 2.47962C2.87933 3.78131 3.35309 5.13536 4.53527 6.03662L6.17598 7.28765L4.10519 7.08743C3.68343 7.04659 3.42189 7.00468 3.19758 6.94587C3.28209 7.2485 3.42299 7.57676 3.63866 7.89719C3.96711 8.38483 4.5868 9.02063 5.67395 9.28087L7.91124 9.81641L5.69248 10.4204C5.40173 10.4997 5.10972 10.5476 4.80686 10.5648C5.37722 11.4218 6.3051 11.9497 7.41943 12.0194L9.74578 12.1649L7.63871 13.1397C6.12932 13.838 5.1947 14.2008 3.98439 14.6079C4.58177 14.8472 5.30355 15.0869 6.00193 15.1939C9.85825 15.7852 13.2906 15.0499 15.4186 13.1766C17.2402 11.573 18.0835 9.22391 17.925 6.19477Z" fill="#4E111C"/>
</svg>
