<svg width="56" height="56" viewBox="0 0 56 56" fill="none" xmlns="http://www.w3.org/2000/svg">
    <g id="wallet">
        <path fill-rule="evenodd" clip-rule="evenodd" d="M51.8972 45.778H43.0973C37.5519 45.778 33.0403 41.2323 33.0403 35.645C33.0403 30.0577 37.5519 25.5119 43.0973 25.5119H51.8972C52.5921 25.5119 53.1544 24.9454 53.1544 24.2452V20.4453C53.1544 17.7892 51.1096 15.629 48.5261 15.4196L41.3062 2.71359C40.6371 1.53847 39.5568 0.698566 38.264 0.349805C36.9774 0.00341883 35.6319 0.18534 34.4803 0.860656L9.73019 15.3787H5.3833C2.61003 15.3787 0.354736 17.6509 0.354736 20.4453V50.8446C0.354736 53.6389 2.60991 55.9112 5.3833 55.9112H48.1258C50.8991 55.9112 53.1544 53.639 53.1544 50.8446V47.0447C53.1544 46.3446 52.5921 45.778 51.8972 45.778ZM42.8646 10.5577L45.6038 15.3783H34.6466L42.8646 10.5577ZM35.7481 3.05031L14.7294 15.379H19.6924L39.1281 3.97772L39.1255 3.97309C38.7928 3.38802 38.2575 2.96992 37.6154 2.79678C36.9806 2.62602 36.3165 2.71508 35.7481 3.05031Z" fill="#C24848"/>
        <path fill-rule="evenodd" clip-rule="evenodd" d="M42.2768 27.5557H51.2601C53.3832 27.5557 55.1101 29.31 55.1101 31.4668V39.2889C55.1101 41.4456 53.3832 43.2 51.2601 43.2H42.2768C38.0308 43.2 34.5769 39.6913 34.5769 35.3778C34.5769 31.0644 38.0308 27.5557 42.2768 27.5557ZM39.7114 35.378C39.7114 36.8154 40.8632 37.9854 42.2781 37.9854C43.693 37.9854 44.8448 36.8154 44.8447 35.378C44.8447 33.9407 43.6929 32.7707 42.2781 32.7707C40.8632 32.7707 39.7114 33.9407 39.7114 35.378Z" fill="#C24848"/>
    </g>
</svg>
