<svg width="56" height="56" viewBox="0 0 56 56" fill="none" xmlns="http://www.w3.org/2000/svg">
<path fill-rule="evenodd" clip-rule="evenodd" d="M51.8972 45.5998H43.0972C37.5518 45.5998 33.0402 41.054 33.0402 35.4667C33.0402 29.8794 37.5518 25.3337 43.0972 25.3337H51.8972C52.5921 25.3337 53.1543 24.7671 53.1543 24.067V20.2671C53.1543 17.6109 51.1095 15.4508 48.526 15.2413L41.3061 2.53537C40.6371 1.36024 39.5567 0.520343 38.2639 0.171582C36.9773 -0.174804 35.6319 0.00711707 34.4803 0.682433L9.73013 15.2005H5.38324C2.60997 15.2005 0.354675 17.4727 0.354675 20.2671V50.6664C0.354675 53.4606 2.60985 55.733 5.38324 55.733H48.1258C50.8991 55.733 53.1543 53.4608 53.1543 50.6664V46.8665C53.1543 46.1663 52.5921 45.5998 51.8972 45.5998ZM42.8645 10.3794L45.6037 15.2001H34.6465L42.8645 10.3794ZM35.748 2.87208L14.7293 15.2008H19.6924L39.128 3.7995L39.1254 3.79487C38.7927 3.2098 38.2574 2.79169 37.6153 2.61856C36.9806 2.4478 36.3164 2.53686 35.748 2.87208Z" fill="white"/>
<path fill-rule="evenodd" clip-rule="evenodd" d="M42.2768 27.3779H51.2601C53.3832 27.3779 55.1101 29.1323 55.1101 31.289V39.1112C55.1101 41.2679 53.3832 43.0223 51.2601 43.0223H42.2768C38.0308 43.0223 34.5769 39.5135 34.5769 35.2001C34.5769 30.8867 38.0308 27.3779 42.2768 27.3779ZM39.7114 35.2003C39.7114 36.6376 40.8632 37.8076 42.2781 37.8076C43.693 37.8076 44.8448 36.6376 44.8447 35.2003C44.8447 33.763 43.6929 32.5929 42.2781 32.5929C40.8632 32.5929 39.7114 33.763 39.7114 35.2003Z" fill="white"/>
</svg>
