<svg width="21" height="17" viewBox="0 0 21 17" fill="none" xmlns="http://www.w3.org/2000/svg">
<path fill-rule="evenodd" clip-rule="evenodd" d="M9.72113 6.01805L14.2382 8.34441C14.5055 8.48213 14.6709 8.74569 14.6698 9.03245C14.6686 9.3192 14.5012 9.58159 14.233 9.7174L9.71583 12.0037C9.59181 12.0665 9.45704 12.0978 9.32257 12.0978C9.17578 12.0978 9.02931 12.0605 8.89718 11.9862C8.64416 11.8439 8.49316 11.5933 8.49316 11.3159V6.70316C8.49316 6.42447 8.6451 6.1734 8.89983 6.03127C9.15441 5.88928 9.4614 5.88429 9.72113 6.01805ZM9.69109 7.28772V10.7353L13.0671 9.02647L9.69109 7.28772Z" fill="#4E111C"/>
<path fill-rule="evenodd" clip-rule="evenodd" d="M20.6941 4.40886L20.6951 4.4182C20.7012 4.48663 20.8465 6.11205 20.8466 7.744V9.26956C20.8466 10.9015 20.7012 12.5269 20.6951 12.5954L20.6927 12.6162C20.6726 12.7766 20.4752 14.2049 19.7926 14.9395C18.9737 15.8318 18.05 15.9289 17.606 15.9756L17.6056 15.9756C17.5632 15.98 17.5246 15.984 17.4902 15.9885L17.4542 15.9923C14.7323 16.1882 10.6219 16.215 10.5807 16.2152L10.5745 16.2153L10.5682 16.2152C10.3593 16.2122 5.43184 16.1392 3.86027 15.9912L3.81267 15.9846C3.7648 15.9763 3.69519 15.9684 3.61428 15.9593L3.60768 15.9585C3.07801 15.8985 2.09328 15.7868 1.31448 14.9428C0.601187 14.2001 0.427772 12.7672 0.410336 12.6058L0.409237 12.5955C0.403111 12.5271 0.257812 10.9015 0.257812 9.26956V7.744C0.257812 6.11205 0.403111 4.48648 0.409237 4.4182L0.411593 4.39735C0.431856 4.23683 0.629148 2.80849 1.31166 2.07402C2.14229 1.16923 3.07126 1.06299 3.51768 1.01197C3.52394 1.01125 3.53011 1.01054 3.5362 1.00984C3.56413 1.00664 3.59013 1.00366 3.61412 1.00046L3.65041 0.996729C6.39678 0.800746 10.5074 0.773993 10.5485 0.773837L10.5522 0.773682L10.5558 0.773837C10.5969 0.773993 14.7075 0.800746 17.4294 0.996729L17.4654 1.00046C17.496 1.00451 17.5302 1.0084 17.5676 1.01259C18.0192 1.06346 18.9582 1.16954 19.7865 2.04275C20.5031 2.78516 20.6767 4.24477 20.6941 4.40886ZM19.4936 12.4784C19.5061 12.3357 19.6393 10.7801 19.6393 9.2696V7.74404C19.6393 6.20915 19.5022 4.63179 19.4931 4.52991C19.4417 4.06437 19.2396 3.20454 18.9128 2.86748L18.908 2.86234C18.3822 2.30706 17.8094 2.24235 17.4303 2.19958L17.4282 2.19933C17.3908 2.19507 17.3561 2.1911 17.3241 2.18713C14.6769 1.99768 10.6945 1.96937 10.5515 1.96844L10.5461 1.96848C10.329 1.97011 6.39802 1.99958 3.75376 2.18713C3.72597 2.1907 3.69608 2.19413 3.66419 2.19779L3.65543 2.1988C3.28692 2.24095 2.72976 2.30472 2.20135 2.88023C1.88263 3.22336 1.67058 4.07231 1.60947 4.53567C1.59659 4.68141 1.4637 6.23528 1.4637 7.74404V9.2696C1.4637 10.8012 1.60036 12.3752 1.60994 12.4831C1.66131 12.9395 1.86347 13.7845 2.19019 14.1216L2.20135 14.1334C2.67598 14.6504 3.29321 14.7204 3.74417 14.7716L3.74434 14.7716C3.83324 14.7816 3.91759 14.7912 3.99566 14.8038C5.51933 14.9439 10.3746 15.0175 10.579 15.0205C10.7612 15.0194 14.7166 14.9904 17.3493 14.8019C17.3882 14.7971 17.4313 14.7924 17.4778 14.7876C17.8623 14.7473 18.389 14.692 18.9017 14.1334C19.2342 13.7755 19.4424 12.8718 19.4936 12.4784Z" fill="#4E111C"/>
</svg>
